<svg width="782" height="859" viewBox="0 0 782 859" fill="none" xmlns="http://www.w3.org/2000/svg">
<path d="M642.967 656.921C645.877 649.154 649.011 632.514 649.386 622.455C650.261 600.506 647.398 578.893 640.219 552.48C631.35 520.187 618.977 493.303 600.428 465.657L590.949 451.403L604.181 452.021C662.218 454.659 711.354 441.084 732.106 416.464C750.824 394.14 746.8 367.067 720.757 342.872C711.684 334.294 687.669 319.715 672.295 313.348C633.15 297.226 584.804 289.693 542.205 293.076C534.879 293.705 528.103 294.258 527.057 294.312C525.517 294.346 525.903 293.419 529.173 288.894C536.454 278.735 552.532 248.356 557.374 235.957C568.756 206.27 572.243 180.066 567.411 160.404C557.065 118.42 514.398 111.626 462.798 143.608C435.313 160.693 406.658 189.043 385.376 220.34C377.172 232.396 364.509 254.782 360.299 265.123C358.699 268.925 357.281 271.941 357.184 271.888C356.99 271.78 353.49 265.277 349.309 257.256C335.331 230.75 315.61 204.989 297.207 189.211C287.671 181.01 271.679 171.639 262.56 168.866C248.148 164.426 233.583 165.985 222.764 172.915C180.488 200.433 187.087 299.53 236.698 381.911C240.315 387.972 245.735 396.046 248.65 399.943L254.014 406.972L238.799 406.27C185.676 403.693 137.777 416.18 115.181 438.636C108.186 445.533 101.975 457.426 100.661 466.203C99.2402 475.175 103.366 490.39 109.585 499.541C139.328 543.151 225.361 571.955 305.548 565.072L319.252 563.923L315.681 568.534C308.744 577.617 290.839 611.292 286.233 623.948C275.294 653.754 272.233 676.899 276.538 697.283C281.701 722.072 302.225 736.997 328.287 734.84C338.252 734.027 358.026 727.877 368.438 722.368C399.07 706.014 427.761 680.345 452.811 646.827C461.856 634.857 481.248 601.246 484.888 591.476L486.96 585.907L494.543 600.377C508.705 627.239 526.149 650.47 544.327 666.883C557.294 678.507 575.237 688.706 586.715 690.886C613.174 695.793 632.789 683.979 642.967 656.921ZM618.624 678.408C610.335 684.207 601.524 685.913 590.38 684.046C583.579 682.811 580.701 681.596 569.443 675.356C549.7 664.285 535.534 650.475 517.98 625.155C508.803 611.957 491.218 579.141 491.364 575.674C491.405 574.683 492.777 569.233 494.407 563.546C502.847 534.129 501.044 507.401 489.525 490.876C485.736 485.353 483.438 483.319 477.054 479.273L469.117 474.367L470.224 464.588C471.714 450.457 474.61 440.655 480.156 430.421C482.746 425.52 485.401 421.415 486.005 421.243C486.457 421.113 492.753 423.716 499.912 427.05C521.346 436.903 541.977 443.397 567.358 447.96L580.517 450.311L588.322 460.72C621.946 505.341 644.134 571.507 641.97 620.499C641.091 640.164 637.994 652.389 630.609 665.026C626.018 672.621 624.609 674.248 618.624 678.408ZM721.783 416.319C712.83 424.918 699.392 431.538 679.391 437.182C669.342 439.977 655.414 442.903 648.379 443.693C633.415 445.284 608.03 445.535 593.784 444.229L583.891 443.309L577.665 436.689C561.879 420.08 540.86 406.275 526.838 403.192C512.223 400.034 498.089 401.958 489.522 408.489L485.517 411.593L479.92 407.73C465.263 397.324 452.25 383.267 448.951 374.341L446.994 368.946L456.241 362.792C476.318 349.459 502.629 324.879 514.911 307.986C518.751 302.889 518.751 302.889 529.136 301.548C587.611 293.783 660.523 308.723 700.956 336.712C706.887 340.888 714.006 346.354 716.725 349.002C724.363 356.278 731.802 367.119 734.269 374.57C739.559 390.43 735.805 402.925 721.783 416.319ZM561.852 439.584C550.524 437.361 533.44 432.707 522.487 428.664C510.845 424.492 492.43 416.059 492.968 415.089C493.774 413.635 502.528 409.742 506.073 409.299C524.645 406.919 543.857 415.287 565.908 435.242C569.112 438.158 571.141 440.677 570.441 440.796C569.838 440.969 565.937 440.454 561.852 439.584ZM443.771 646.886C404.242 697.6 355.841 729.074 319.905 727.532C311.629 727.127 309.958 726.708 302.874 722.781C292.393 716.972 288.032 710.879 284.36 696.676C280.059 679.716 282.346 657.282 290.963 631.894C295.503 618.44 311.602 587.566 321.388 573.345L329.002 562.356L342.864 558.633C382.544 547.927 405.617 527.129 406.455 501.358L406.766 492.785L413.313 489.443C424.877 483.685 441.788 479.498 452.251 479.847C457.509 479.973 461.809 480.456 461.896 480.757C461.928 481.156 462.302 486.432 462.687 492.603C464.193 514.604 471.715 547.038 480.711 570.403C483.122 576.809 483.166 576.96 479.793 585.103C474.703 597.491 452.429 635.843 443.771 646.886ZM483.97 557.887C478.109 542.597 472.006 515.386 470.061 495.55C468.859 482.843 469.299 481.819 474.983 485.984C489.997 497.348 495.6 521.113 490.144 550.409C487.492 565.036 486.922 565.607 483.97 557.887ZM432.548 474.883C426.624 476.415 417.76 479.36 412.947 481.635L404.138 485.625L402.323 481.576C397.481 470.4 384.056 455.481 370.5 446.066L364.568 441.89L370.587 431.031C377.305 418.912 379.386 411.954 381.314 395.658C381.996 390.08 382.583 385.588 382.831 385.599C382.928 385.653 386.893 385.823 391.602 386.025C401.268 386.44 417.91 382.736 429.701 377.485C434.051 375.587 438.047 373.873 438.703 373.603C439.36 373.333 441.476 376.154 443.356 379.858C449.103 390.775 465.849 408.169 476.427 414.032L479.629 415.807L474.309 425.406C468.182 436.459 464.374 449.05 462.971 463.482L461.992 472.572L452.715 472.373C447.457 472.247 438.773 473.264 432.548 474.883ZM523.671 283.943L515.724 295.762L501.905 299.636C471.704 308.117 452.972 320.168 443.406 337.426C439.161 345.085 437.124 353.336 437.823 360.314L438.207 365.343L431.51 368.729C417.405 375.866 389.818 381.233 384.092 378.06C383.219 377.575 382.122 371.771 381.467 364.944C379.668 341.64 373.728 315.279 365.336 292.884C360.914 281.18 360.839 281.772 369.712 262.102C380.498 238.296 400.382 209.519 420.857 187.915C458.064 148.715 500.659 126.571 529.358 131.326C575.41 139.108 572.717 211.255 523.671 283.943ZM387.084 527.377C378.154 536.622 361.078 545.914 345.051 550.339C335.508 552.907 335.164 553.984 348.699 539.18C353.379 534.169 361.719 525.991 367.293 520.969C377.721 511.54 397.549 497.055 398.908 497.808C399.296 498.023 399.429 500.758 399.045 503.968C398.462 510.742 393.207 521.138 387.084 527.377ZM488.495 326.804C476.874 338.613 451.032 359.144 445.851 360.708C444.193 361.183 445.331 350.66 447.565 344.801C449.916 338.499 458.834 328.36 466.811 322.896C474.54 317.42 490.132 310.347 500.278 307.606L507.861 305.599L501.191 313.055C497.641 317.171 491.917 323.377 488.495 326.804ZM383.824 498.699C367.753 510.07 351.029 525.135 338.033 540.112C332.966 546.049 327.802 551.932 326.554 553.268C324.887 555.132 321.074 556.06 311.442 557.185C271.722 561.784 227.689 556.769 186.166 542.878C178.426 540.362 171.03 536.769 155.599 528.216C137.646 518.264 134.411 516.09 128.638 510.483C104.892 487.18 101.36 464.943 118.595 445.979C140.726 421.617 194.648 408.793 251.966 414.329L260.868 415.207L267.946 422.807C296.551 453.365 330.637 464.654 352.707 451.159C358.369 447.58 358.617 447.591 362.984 450.011C370.166 453.992 383.079 465.713 388.336 472.936C392.47 478.523 397.978 488.04 397.549 488.816C397.495 488.913 391.348 493.364 383.824 498.699ZM358.473 436.864C357.903 437.435 352.923 435.435 345.72 431.95C326.302 422.58 302.976 415.227 277.745 410.621L263.853 407.99L256.837 398.905C232.324 366.685 212.144 320.011 205.236 278.918C196.342 227.219 207.47 185.858 232.82 175.828C239.185 173.273 250.164 173.148 259.1 175.566C266.418 177.468 283.251 186.925 291.028 193.264C311.901 210.538 333.317 239.646 347.992 270.848C350.639 276.371 352.855 281.529 352.877 282.175C352.953 282.724 351.453 288.864 349.62 295.832C339.929 332.54 344.73 361.184 363.295 376.671C365.884 378.867 369.615 381.062 371.523 381.739C375.048 382.932 375.091 383.083 374.476 390.601C372.886 409.491 366.038 429.397 358.473 436.864ZM345.546 446.683C338.762 449.766 328.311 450.311 319.322 447.989C307.239 444.841 289.284 433.747 276.931 421.703L272.022 416.827L280.051 418.363C292.326 420.478 313.227 426.486 325.441 431.229C339.758 436.756 352.178 442.5 351.64 443.47C351.425 443.858 348.637 445.227 345.546 446.683ZM369.204 371.962C353.091 360.749 347.872 333.774 355.532 301.645L357.515 293.491L359.06 296.883C361.07 301.038 369.418 331.522 371.415 341.881C373.162 351.088 375.358 373.218 374.659 374.479C374.337 375.06 372.148 373.974 369.204 371.962Z" fill="#1357BC"/>
</svg>
