<svg width="796" height="829" viewBox="0 0 796 829" fill="none" xmlns="http://www.w3.org/2000/svg">
<path d="M332.814 61.4851L442.228 84.7418L503.15 178.554L479.894 287.968L386.081 348.891L276.667 325.634L215.745 231.822L239.001 122.408L332.814 61.4851Z" stroke="#1357BC" stroke-width="8" stroke-linejoin="round"/>
<path d="M540.761 134.043L650.175 157.3L711.098 251.112L687.841 360.526L594.029 421.449L484.615 398.192L423.692 304.38L446.949 194.965L540.761 134.043Z" stroke="#1357BC" stroke-width="8" stroke-linejoin="round"/>
<path d="M163.595 203.863L273.009 227.119L333.932 320.932L310.675 430.346L216.863 491.268L107.449 468.012L46.5261 374.199L69.7827 264.785L163.595 203.863Z" stroke="#1357BC" stroke-width="8" stroke-linejoin="round"/>
<path d="M463.59 767.09L557.402 706.168L580.659 596.754L519.737 502.942L410.323 479.685L316.51 540.607L293.253 650.021L354.176 743.834L463.59 767.09Z" stroke="#1357BC" stroke-width="8" stroke-linejoin="round"/>
<path d="M631.723 624.83L725.536 563.907L748.792 454.493L687.87 360.681L578.456 337.424L484.643 398.347L461.387 507.761L522.309 601.573L631.723 624.83Z" stroke="#1357BC" stroke-width="8" stroke-linejoin="round"/>
<path d="M254.587 694.812L348.399 633.889L371.656 524.475L310.733 430.663L201.319 407.406L107.507 468.329L84.2503 577.743L145.173 671.555L254.587 694.812Z" stroke="#1357BC" stroke-width="8" stroke-linejoin="round"/>
</svg>
