<svg width="734" height="755" viewBox="0 0 734 755" fill="none" xmlns="http://www.w3.org/2000/svg">
<path fill-rule="evenodd" clip-rule="evenodd" d="M72.8328 224.882C71.5564 224.726 70.2974 225.283 69.5537 226.332C68.81 227.381 68.7014 228.753 69.2707 229.906L165.553 424.881L75.2381 540.662C74.4472 541.676 74.276 543.042 74.7921 544.22C75.3081 545.397 76.4284 546.197 77.7099 546.303L303.54 564.945L360.81 696.38C361.323 697.559 362.442 698.361 363.723 698.469C365.004 698.578 366.242 697.975 366.946 696.899L487.543 512.742L632.205 527.834C633.484 527.967 634.733 527.389 635.458 526.327C636.184 525.265 636.268 523.891 635.679 522.749L536.361 330.166L623.483 212.238C624.247 211.203 624.382 209.834 623.835 208.67C623.289 207.506 622.148 206.736 620.864 206.663L402.076 194.358L343.182 59.1965C342.668 58.0177 341.55 57.2155 340.268 57.1071C338.987 56.9986 337.75 57.6015 337.045 58.6771L216.71 242.435L72.8328 224.882ZM394.249 193.918L339.352 67.9315L224.458 243.381L306.918 253.441C308.038 253.578 309.023 254.246 309.565 255.236C310.106 256.226 310.137 257.416 309.647 258.433L296.964 284.783L390.857 276.906L334.801 196.239C334.037 195.14 333.967 193.702 334.62 192.534C335.273 191.366 336.536 190.672 337.872 190.748L394.249 193.918ZM398.912 276.23L344.646 198.14L397.38 201.105L429.014 273.704L398.912 276.23ZM403.524 282.867L434.466 280.271C435.59 280.177 436.6 279.546 437.179 278.577C437.757 277.608 437.833 276.42 437.382 275.385L405.208 201.546L614.003 213.289L532.783 323.229L505.763 270.836C505.15 269.647 503.912 268.911 502.574 268.941C501.236 268.971 500.032 269.762 499.473 270.978L457.964 361.207L403.524 282.867ZM395.47 283.543L293.44 292.104L247.445 387.657L303.157 472.483L410.933 463.441L454.569 368.588L395.47 283.543ZM459.205 375.26L418.948 462.768L519.005 454.373C520.339 454.261 521.62 454.92 522.305 456.069C522.99 457.219 522.959 458.659 522.226 459.778L491.857 506.154L626.488 520.199L531.723 336.445L483.358 401.912C482.687 402.819 481.62 403.348 480.492 403.332C479.364 403.315 478.312 402.756 477.668 401.829L459.205 375.26ZM528.145 329.507L502.832 280.425L462.6 367.879L480.63 393.824L528.145 329.507ZM301.222 259.798L220.182 249.911L191.554 293.627L288.868 285.463L301.222 259.798ZM181.765 295.798L212.434 248.966L78.4154 232.615L170.333 418.752L220.28 354.721C220.974 353.832 222.055 353.331 223.182 353.377C224.31 353.423 225.346 354.009 225.965 354.953L242.962 380.831L285.344 292.783L184.986 301.203C183.652 301.315 182.372 300.657 181.687 299.507C181.002 298.357 181.032 296.918 181.765 295.798ZM407.572 470.747L307.53 479.141L363.402 564.212C364.137 565.331 364.169 566.77 363.486 567.921C362.802 569.071 361.523 569.732 360.189 569.621L311.46 565.599L364.639 687.645L479.71 511.925L397.658 503.365C396.535 503.248 395.538 502.597 394.98 501.616C394.421 500.636 394.37 499.446 394.841 498.421L407.572 470.747ZM484.024 505.337L403.242 496.909L415.586 470.075L512.437 461.949L484.024 505.337ZM353.611 562.055L299.592 479.807L274.978 481.872L308.285 558.313L353.611 562.055ZM269.526 475.305L295.22 473.149L243.903 395.015L201.062 484.016C200.482 485.222 199.265 485.991 197.926 485.998C196.588 486.005 195.363 485.248 194.77 484.048L168.994 431.85L84.7419 539.86L300.365 557.659L266.61 480.191C266.159 479.156 266.234 477.968 266.813 476.999C267.391 476.03 268.401 475.399 269.526 475.305ZM173.775 425.721L222.796 362.878L239.42 388.19L197.868 474.512L173.775 425.721Z" fill="#1357BC"/>
</svg>
