<svg width="979" height="996" viewBox="0 0 979 996" fill="none" xmlns="http://www.w3.org/2000/svg">
<path d="M745.587 761.767C748.961 752.761 752.595 733.465 753.03 721.801C754.045 696.349 750.725 671.287 742.399 640.657C732.116 603.211 717.768 572.035 696.259 539.977L685.266 523.449L700.61 524.165C767.91 527.225 824.889 511.483 848.952 482.934C870.657 457.046 865.992 425.653 835.792 397.596C825.271 387.648 797.423 370.742 779.596 363.359C734.203 344.664 678.141 335.928 628.743 339.852C620.247 340.581 612.389 341.223 611.177 341.286C609.391 341.324 609.839 340.25 613.63 335.003C622.073 323.222 640.717 287.994 646.333 273.617C659.531 239.192 663.575 208.806 657.972 186.005C645.974 137.32 596.497 129.442 536.661 166.528C504.79 186.34 471.561 219.215 446.884 255.507C437.369 269.487 422.686 295.446 417.804 307.437C415.948 311.847 414.304 315.344 414.191 315.282C413.966 315.157 409.908 307.616 405.06 298.315C388.85 267.578 365.983 237.706 344.642 219.41C333.584 209.9 315.04 199.033 304.465 195.817C287.753 190.669 270.863 192.476 258.317 200.513C209.294 232.423 216.946 347.336 274.475 442.865C278.67 449.894 284.955 459.256 288.335 463.775L294.556 471.927L276.912 471.112C215.31 468.124 159.767 482.604 133.564 508.644C125.453 516.641 118.25 530.432 116.727 540.611C115.079 551.015 119.863 568.658 127.074 579.269C161.565 629.84 261.329 663.241 354.315 655.259L370.206 653.927L366.065 659.274C358.02 669.806 337.257 708.856 331.917 723.533C319.232 758.095 315.682 784.934 320.674 808.572C326.661 837.317 350.461 854.625 380.682 852.123C392.238 851.18 415.168 844.049 427.242 837.661C462.763 818.696 496.033 788.93 525.08 750.063C535.57 736.183 558.057 697.207 562.277 685.878L564.68 679.42L573.474 696.199C589.896 727.349 610.124 754.287 631.203 773.32C646.239 786.799 667.046 798.626 680.356 801.154C711.038 806.844 733.784 793.145 745.587 761.767ZM717.358 786.685C707.746 793.409 697.528 795.388 684.606 793.222C676.72 791.79 673.382 790.381 660.328 783.145C637.433 770.307 621.006 754.293 600.651 724.932C590.01 709.628 569.617 671.574 569.787 667.553C569.835 666.404 571.426 660.084 573.316 653.489C583.103 619.378 581.012 588.384 567.655 569.221C563.26 562.817 560.596 560.459 553.193 555.767L543.989 550.077L545.273 538.737C547 522.352 550.359 510.986 556.79 499.118C559.793 493.434 562.873 488.674 563.572 488.474C564.097 488.324 571.398 491.342 579.699 495.209C604.554 506.634 628.478 514.164 657.91 519.455L673.17 522.182L682.22 534.253C721.21 585.995 746.94 662.722 744.43 719.533C743.411 742.337 739.82 756.513 731.256 771.167C725.933 779.974 724.298 781.86 717.358 786.685ZM836.982 482.765C826.6 492.737 811.017 500.413 787.824 506.957C776.171 510.198 760.02 513.592 751.862 514.508C734.51 516.353 705.073 516.644 688.553 515.13L677.082 514.062L669.862 506.386C651.557 487.127 627.183 471.118 610.923 467.543C593.976 463.88 577.586 466.112 567.65 473.686L563.007 477.285L556.517 472.805C539.52 460.739 524.43 444.437 520.605 434.087L518.335 427.831L529.058 420.694C552.34 405.233 582.85 376.731 597.092 357.141C601.545 351.232 601.545 351.232 613.588 349.676C681.396 340.672 765.944 357.997 812.83 390.453C819.709 395.294 827.964 401.634 831.116 404.704C839.974 413.141 848.6 425.712 851.46 434.353C857.595 452.745 853.241 467.233 836.982 482.765ZM651.525 509.743C638.39 507.165 618.579 501.769 605.878 497.08C592.377 492.242 571.023 482.463 571.647 481.339C572.581 479.653 582.733 475.139 586.843 474.624C608.38 471.865 630.658 481.568 656.228 504.708C659.944 508.09 662.297 511.011 661.485 511.149C660.785 511.349 656.262 510.752 651.525 509.743ZM514.598 750.131C468.76 808.939 412.634 845.436 370.962 843.649C361.366 843.179 359.428 842.693 351.213 838.14C339.06 831.403 334.002 824.337 329.744 807.868C324.757 788.201 327.409 762.187 337.402 732.746C342.666 717.145 361.334 681.343 372.682 664.853L381.511 652.11L397.586 647.792C443.599 635.378 470.354 611.261 471.326 581.376L471.687 571.435L479.279 567.56C492.689 560.883 512.299 556.027 524.431 556.432C530.529 556.579 535.515 557.138 535.615 557.488C535.653 557.95 536.087 564.069 536.534 571.224C538.28 596.737 547.002 634.347 557.434 661.441C560.23 668.87 560.28 669.045 556.37 678.488C550.467 692.853 524.638 737.325 514.598 750.131ZM561.213 646.927C554.417 629.198 547.339 597.644 545.084 574.641C543.69 559.906 544.201 558.719 550.792 563.549C568.202 576.727 574.699 604.285 568.373 638.256C565.297 655.217 564.636 655.879 561.213 646.927ZM501.584 550.675C494.714 552.453 484.436 555.868 478.854 558.506L468.64 563.132L466.535 558.438C460.919 545.478 445.353 528.178 429.633 517.259L422.754 512.418L429.734 499.825C437.524 485.772 439.937 477.703 442.173 458.807C442.964 452.338 443.644 447.13 443.931 447.142C444.044 447.204 448.642 447.402 454.103 447.636C465.311 448.117 484.609 443.822 498.282 437.733C503.327 435.532 507.96 433.544 508.722 433.231C509.483 432.919 511.937 436.189 514.117 440.484C520.781 453.144 540.2 473.314 552.466 480.113L556.179 482.172L550.01 493.302C542.905 506.119 538.489 520.721 536.863 537.456L535.727 547.997L524.969 547.765C518.872 547.619 508.803 548.798 501.584 550.675ZM607.25 329.262L598.035 342.966L582.011 347.459C546.99 357.294 525.268 371.268 514.175 391.28C509.252 400.162 506.891 409.729 507.701 417.821L508.146 423.653L500.38 427.579C484.024 435.855 452.034 442.08 445.394 438.399C444.381 437.838 443.11 431.107 442.35 423.19C440.264 396.167 433.376 365.599 423.645 339.629C418.516 326.057 418.43 326.744 428.72 303.934C441.227 276.328 464.284 242.959 488.027 217.907C531.172 172.451 580.565 146.772 613.846 152.286C667.247 161.311 664.124 244.971 607.25 329.262ZM448.864 611.548C438.508 622.268 418.706 633.044 400.121 638.175C389.055 641.153 388.657 642.402 404.352 625.235C409.779 619.425 419.45 609.941 425.914 604.117C438.006 593.183 460.999 576.386 462.574 577.26C463.024 577.509 463.179 580.681 462.734 584.403C462.057 592.258 455.964 604.313 448.864 611.548ZM566.46 378.963C552.985 392.657 523.018 416.464 517.01 418.278C515.087 418.829 516.407 406.627 518.997 399.832C521.723 392.525 532.065 380.768 541.315 374.431C550.278 368.082 568.359 359.88 580.124 356.701L588.917 354.373L581.182 363.019C577.066 367.792 570.428 374.989 566.46 378.963ZM445.083 578.293C426.447 591.479 407.054 608.948 391.984 626.315C386.108 633.2 380.12 640.022 378.673 641.571C376.739 643.733 372.318 644.809 361.149 646.114C315.089 651.447 264.029 645.631 215.878 629.523C206.903 626.605 198.326 622.439 180.433 612.521C159.614 600.981 155.863 598.46 149.169 591.957C121.632 564.936 117.537 539.15 137.523 517.159C163.186 488.909 225.714 474.038 292.181 480.457L302.503 481.476L310.711 490.288C343.882 525.724 383.407 538.815 409 523.165C415.566 519.015 415.853 519.028 420.918 521.835C429.245 526.451 444.219 540.042 450.316 548.419C455.11 554.897 461.497 565.933 460.998 566.833C460.936 566.945 453.809 572.107 445.083 578.293ZM415.687 506.589C415.025 507.252 409.25 504.932 400.898 500.89C378.381 490.026 351.331 481.499 322.074 476.157L305.965 473.107L297.829 462.571C269.403 425.209 246.003 371.086 237.992 323.435C227.678 263.484 240.583 215.522 269.979 203.891C277.359 200.927 290.091 200.783 300.453 203.587C308.939 205.793 328.458 216.759 337.477 224.11C361.681 244.14 386.515 277.895 403.532 314.076C406.602 320.481 409.171 326.462 409.197 327.211C409.285 327.848 407.546 334.967 405.42 343.048C394.183 385.615 399.75 418.83 421.277 436.789C424.28 439.335 428.606 441.88 430.819 442.666C434.906 444.05 434.956 444.225 434.244 452.942C432.399 474.847 424.459 497.93 415.687 506.589ZM400.696 517.975C392.83 521.551 380.711 522.182 370.287 519.49C356.275 515.839 335.455 502.975 321.13 489.008L315.437 483.354L324.748 485.135C338.982 487.587 363.219 494.555 377.382 500.054C393.984 506.464 408.386 513.125 407.763 514.249C407.514 514.699 404.28 516.287 400.696 517.975ZM428.13 431.328C409.445 418.326 403.393 387.046 412.276 349.788L414.575 340.333L416.367 344.266C418.697 349.085 428.378 384.434 430.694 396.447C432.72 407.123 435.266 432.785 434.456 434.247C434.082 434.921 431.544 433.661 428.13 431.328Z" fill="#1357BC"/>
</svg>
