<svg width="794" height="732" viewBox="0 0 794 732" fill="none" xmlns="http://www.w3.org/2000/svg">
<path d="M471.225 359.736L207.571 207.515C200.572 203.474 196.895 195.449 198.405 187.51L228.692 28.2797C231.136 15.4302 245.53 8.83551 256.857 15.3754L516.659 165.372C523.502 169.323 527.186 177.098 525.909 184.896L499.476 346.351C497.329 359.463 482.732 366.379 471.225 359.736Z" stroke="#1357BC" stroke-width="8" stroke-linejoin="round"/>
<path d="M439.167 423.786V119.344C439.167 111.262 444.278 104.066 451.908 101.404L604.949 48.0175C617.299 43.7094 630.207 52.8775 630.207 65.9573V365.95C630.207 373.853 625.316 380.93 617.924 383.724L464.883 441.559C452.455 446.256 439.167 437.072 439.167 423.786Z" stroke="#1357BC" stroke-width="8" stroke-linejoin="round"/>
<path d="M163.941 661.472V357.03C163.941 348.949 169.053 341.752 176.683 339.091L329.724 285.704C342.074 281.396 354.982 290.564 354.982 303.644V603.637C354.982 611.539 350.091 618.617 342.699 621.41L189.658 679.246C177.229 683.942 163.941 674.759 163.941 661.472Z" stroke="#1357BC" stroke-width="8" stroke-linejoin="round"/>
<path d="M770.001 421.879L506.346 574.1C499.348 578.14 490.559 577.312 484.439 572.035L361.684 466.191C351.778 457.649 353.264 441.887 364.592 435.347L624.393 285.35C631.237 281.399 639.812 282.096 645.927 287.101L772.534 390.721C782.816 399.136 781.507 415.235 770.001 421.879Z" stroke="#1357BC" stroke-width="8" stroke-linejoin="round"/>
<path d="M533.31 716.711L269.656 564.49C262.657 560.449 258.98 552.424 260.49 544.485L290.777 385.254C293.221 372.405 307.615 365.81 318.942 372.35L578.744 522.347C585.587 526.298 589.271 534.072 587.994 541.871L561.56 703.326C559.414 716.438 544.817 723.354 533.31 716.711Z" stroke="#1357BC" stroke-width="8" stroke-linejoin="round"/>
<path d="M23.8085 312.577L287.463 160.356C294.461 156.316 303.25 157.144 309.37 162.421L432.125 268.265C442.031 276.807 440.545 292.57 429.217 299.109L169.416 449.106C162.572 453.057 153.997 452.36 147.882 447.355L21.2748 343.735C10.9929 335.32 12.3021 319.221 23.8085 312.577Z" stroke="#1357BC" stroke-width="8" stroke-linejoin="round"/>
</svg>
