<svg width="379" height="386" viewBox="0 0 379 386" fill="none" xmlns="http://www.w3.org/2000/svg">
<path d="M288.238 294.8C289.541 291.321 290.945 283.866 291.113 279.36C291.505 269.528 290.223 259.846 287.007 248.014C283.034 233.548 277.491 221.505 269.182 209.121L264.936 202.736L270.863 203.012C296.861 204.194 318.873 198.113 328.169 187.084C336.554 177.084 334.751 164.956 323.085 154.118C319.02 150.275 308.263 143.744 301.376 140.892C283.84 133.67 262.183 130.295 243.1 131.811C239.818 132.092 236.783 132.34 236.315 132.365C235.624 132.379 235.798 131.964 237.262 129.937C240.524 125.386 247.726 111.778 249.895 106.224C254.994 92.925 256.556 81.1866 254.392 72.3786C249.757 53.5711 230.644 50.5279 207.528 64.8545C195.216 72.5079 182.38 85.2078 172.847 99.2277C169.171 104.628 163.499 114.656 161.613 119.289C160.896 120.992 160.261 122.343 160.217 122.319C160.13 122.271 158.563 119.358 156.69 115.765C150.428 103.891 141.594 92.3511 133.35 85.2832C129.078 81.6095 121.915 77.4114 117.829 76.169C111.373 74.1802 104.849 74.8785 100.002 77.9832C81.0642 90.3102 84.0202 134.702 106.244 171.605C107.865 174.321 110.293 177.938 111.598 179.683L114.001 182.832L107.185 182.518C83.3882 181.363 61.9313 186.957 51.8088 197.016C48.6756 200.106 45.893 205.433 45.3046 209.365C44.6681 213.384 46.5163 220.2 49.302 224.299C62.626 243.835 101.166 256.738 137.087 253.655L143.226 253.14L141.626 255.206C138.518 259.274 130.497 274.36 128.434 280.029C123.534 293.381 122.163 303.749 124.091 312.881C126.404 323.985 135.598 330.671 147.272 329.705C151.737 329.34 160.595 326.586 165.259 324.118C178.981 316.792 191.833 305.293 203.055 290.278C207.107 284.916 215.794 269.86 217.424 265.483L218.352 262.988L221.749 269.47C228.093 281.503 235.908 291.91 244.05 299.263C249.859 304.47 257.897 309.039 263.039 310.015C274.891 312.213 283.679 306.921 288.238 294.8ZM277.333 304.425C273.62 307.023 269.673 307.787 264.681 306.951C261.634 306.398 260.345 305.853 255.302 303.058C246.457 298.099 240.112 291.913 232.248 280.57C228.137 274.658 220.26 259.958 220.325 258.404C220.344 257.96 220.958 255.519 221.688 252.971C225.469 239.794 224.662 227.82 219.501 220.418C217.804 217.944 216.775 217.033 213.915 215.22L210.359 213.022L210.855 208.642C211.522 202.312 212.82 197.921 215.304 193.336C216.464 191.141 217.654 189.302 217.924 189.225C218.127 189.167 220.947 190.333 224.154 191.826C233.756 196.24 242.998 199.149 254.368 201.193L260.263 202.246L263.759 206.909C278.821 226.898 288.761 256.538 287.791 278.484C287.398 287.294 286.01 292.77 282.702 298.431C280.645 301.833 280.014 302.562 277.333 304.425ZM323.544 187.019C319.534 190.871 313.514 193.837 304.554 196.365C300.053 197.617 293.813 198.928 290.662 199.282C283.959 199.994 272.587 200.107 266.205 199.522L261.774 199.109L258.985 196.144C251.913 188.704 242.498 182.52 236.216 181.139C229.669 179.724 223.338 180.586 219.5 183.512L217.706 184.902L215.199 183.172C208.633 178.51 202.803 172.213 201.326 168.214L200.449 165.798L204.591 163.041C213.585 157.068 225.372 146.057 230.873 138.49C232.593 136.207 232.593 136.207 237.246 135.606C263.44 132.128 296.102 138.82 314.215 151.358C316.872 153.229 320.061 155.678 321.279 156.864C324.7 160.123 328.032 164.979 329.137 168.317C331.507 175.422 329.826 181.019 323.544 187.019ZM251.901 197.441C246.827 196.445 239.174 194.36 234.267 192.549C229.052 190.68 220.803 186.903 221.043 186.468C221.405 185.817 225.326 184.073 226.914 183.874C235.234 182.808 243.84 186.557 253.718 195.496C255.153 196.802 256.062 197.931 255.749 197.984C255.479 198.061 253.731 197.831 251.901 197.441ZM199.005 290.305C181.298 313.023 159.616 327.122 143.518 326.431C139.81 326.25 139.062 326.062 135.889 324.303C131.193 321.7 129.24 318.971 127.595 312.609C125.668 305.011 126.693 294.962 130.553 283.589C132.587 277.562 139.798 263.731 144.182 257.361L147.593 252.438L153.802 250.77C171.578 245.975 181.914 236.658 182.289 225.113L182.429 221.273L185.361 219.776C190.542 217.197 198.117 215.321 202.804 215.477C205.159 215.534 207.086 215.75 207.124 215.885C207.139 216.063 207.306 218.427 207.479 221.192C208.154 231.047 211.523 245.576 215.553 256.043C216.633 258.913 216.653 258.98 215.142 262.628C212.862 268.177 202.884 285.358 199.005 290.305ZM217.013 250.436C214.387 243.587 211.654 231.398 210.782 222.512C210.244 216.819 210.441 216.361 212.987 218.226C219.713 223.317 222.223 233.963 219.779 247.087C218.591 253.639 218.335 253.894 217.013 250.436ZM193.978 213.253C191.324 213.94 187.353 215.259 185.197 216.278L181.251 218.065L180.438 216.252C178.269 211.246 172.255 204.562 166.182 200.344L163.525 198.474L166.222 193.61C169.231 188.181 170.163 185.064 171.027 177.764C171.332 175.265 171.595 173.253 171.706 173.258C171.75 173.282 173.526 173.358 175.635 173.448C179.965 173.634 187.42 171.975 192.702 169.623C194.651 168.773 196.441 168.005 196.735 167.884C197.029 167.763 197.977 169.027 198.819 170.686C201.394 175.576 208.895 183.368 213.634 185.995L215.068 186.79L212.685 191.09C209.941 196.041 208.235 201.682 207.606 208.147L207.168 212.218L203.012 212.129C200.656 212.073 196.767 212.528 193.978 213.253ZM234.797 127.72L231.238 133.014L225.047 134.749C211.518 138.549 203.127 143.947 198.842 151.678C196.94 155.109 196.028 158.805 196.341 161.931L196.513 164.184L193.513 165.7C187.194 168.897 174.836 171.302 172.271 169.88C171.88 169.663 171.389 167.063 171.095 164.005C170.29 153.566 167.629 141.757 163.869 131.725C161.888 126.482 161.855 126.747 165.83 117.936C170.661 107.271 179.569 94.3804 188.741 84.7025C205.408 67.1424 224.489 57.2226 237.345 59.3527C257.975 62.8389 256.768 95.1577 234.797 127.72ZM173.612 236.769C169.611 240.91 161.962 245.073 154.782 247.055C150.507 248.206 150.353 248.688 156.416 242.056C158.513 239.812 162.249 236.148 164.746 233.898C169.417 229.675 178.299 223.186 178.908 223.523C179.082 223.619 179.142 224.845 178.97 226.283C178.708 229.317 176.354 233.974 173.612 236.769ZM219.04 146.919C213.834 152.21 202.258 161.407 199.937 162.107C199.194 162.32 199.704 157.606 200.705 154.981C201.758 152.159 205.753 147.617 209.326 145.169C212.789 142.716 219.773 139.548 224.319 138.32L227.715 137.42L224.727 140.761C223.137 142.604 220.573 145.385 219.04 146.919ZM172.151 223.922C164.952 229.016 157.46 235.765 151.639 242.474C149.369 245.133 147.055 247.768 146.496 248.367C145.749 249.202 144.041 249.618 139.727 250.122C121.934 252.182 102.209 249.935 83.6076 243.713C80.1405 242.586 76.8272 240.976 69.915 237.145C61.8725 232.687 60.4231 231.713 57.8374 229.201C47.1997 218.762 45.6176 208.801 53.3385 200.306C63.2523 189.392 87.4071 183.648 113.084 186.128L117.071 186.521L120.242 189.925C133.056 203.614 148.325 208.671 158.212 202.626C160.748 201.023 160.859 201.028 162.816 202.112C166.033 203.895 171.817 209.146 174.172 212.382C176.024 214.884 178.492 219.148 178.299 219.495C178.275 219.539 175.522 221.533 172.151 223.922ZM160.795 196.223C160.54 196.478 158.308 195.582 155.082 194.021C146.384 189.824 135.934 186.53 124.632 184.467L118.409 183.288L115.266 179.218C104.285 164.785 95.2451 143.876 92.1504 125.469C88.166 102.309 93.1511 83.781 104.507 79.2881C107.358 78.1432 112.277 78.0874 116.279 79.1706C119.558 80.0227 127.098 84.2591 130.582 87.0987C139.932 94.8366 149.526 107.876 156.1 121.853C157.285 124.328 158.278 126.638 158.288 126.927C158.322 127.173 157.65 129.924 156.829 133.045C152.488 149.489 154.639 162.321 162.955 169.258C164.115 170.242 165.786 171.225 166.641 171.528C168.22 172.063 168.239 172.131 167.964 175.498C167.251 183.96 164.184 192.877 160.795 196.223ZM155.004 200.621C151.965 202.002 147.284 202.246 143.257 201.206C137.844 199.796 129.801 194.826 124.267 189.431L122.068 187.247L125.665 187.935C131.164 188.882 140.526 191.574 145.998 193.698C152.411 196.174 157.975 198.747 157.734 199.182C157.638 199.355 156.389 199.969 155.004 200.621ZM165.602 167.149C158.384 162.126 156.046 150.042 159.478 135.649L160.366 131.997L161.058 133.516C161.958 135.378 165.698 149.033 166.592 153.674C167.375 157.798 168.359 167.711 168.046 168.276C167.901 168.537 166.921 168.05 165.602 167.149Z" fill="#2666C5"/>
</svg>
