<svg width="90" height="92" viewBox="0 0 90 92" fill="none" xmlns="http://www.w3.org/2000/svg">
<path d="M13.0256 44.9163L2 44.9163M2 44.9163L9.16667 52.083M2 44.9163L9.16667 37.7497" stroke="#407CD4" stroke-width="2"/>
<path d="M77.5256 44.9163L88 44.9163M88 44.9163L80.8333 52.083M88 44.9163L80.8333 37.7497" stroke="#407CD4" stroke-width="2"/>
<path d="M44.9987 11.9231V2M44.9987 2L37.832 9.16667M44.9987 2L52.1654 9.16667" stroke="#407CD4" stroke-width="2"/>
<path d="M44.9987 78.6276V89.791M44.9987 89.791L37.832 82.6243M44.9987 89.791L52.1654 82.6243" stroke="#407CD4" stroke-width="2"/>
<path d="M36.3332 58.1116V57.1116H35.3332H30.7773C30.2251 57.1116 29.7773 56.6638 29.7773 56.1116V33.084C29.7773 32.5317 30.2251 32.084 30.7773 32.084H60.3281C60.8804 32.084 61.3281 32.5317 61.3281 33.084V56.1116C61.3281 56.6639 60.8804 57.1116 60.3281 57.1116H44.5886H44.2716L44.0125 57.2942L36.3332 62.7066V58.1116Z" stroke="#407CD5" stroke-width="2"/>
<circle cx="38.2469" cy="44.8485" r="1.72055" fill="#407CD5"/>
<circle cx="45.993" cy="44.8485" r="1.72055" fill="#407CD5"/>
<circle cx="53.7274" cy="44.8485" r="1.72055" fill="#407CD5"/>
<rect x="-0.612502" y="5.16301e-08" width="30.2561" height="0.866209" transform="matrix(-0.707107 -0.707107 -0.707107 0.707107 78.1849 33.6567)" stroke="#407CD4" stroke-width="0.866209" stroke-dasharray="2 2"/>
<rect x="-0.612502" y="5.16301e-08" width="30.2561" height="0.866209" transform="matrix(-0.707107 -0.707107 -0.707107 0.707107 33.1849 77.6567)" stroke="#407CD4" stroke-width="0.866209" stroke-dasharray="2 2"/>
<rect y="-0.612502" width="30.2561" height="0.866209" transform="matrix(0.707107 -0.707107 -0.707107 -0.707107 11.7935 35.2698)" stroke="#407CD4" stroke-width="0.866209" stroke-dasharray="2 2"/>
<rect y="-0.612502" width="30.2561" height="0.866209" transform="matrix(0.707107 -0.707107 -0.707107 -0.707107 55.7935 78.2698)" stroke="#407CD4" stroke-width="0.866209" stroke-dasharray="2 2"/>
</svg>
