<svg width="24" height="29" viewBox="0 0 24 29" fill="none" xmlns="http://www.w3.org/2000/svg">
<path d="M3.09207 21.1015H6.2339C6.60685 21.1015 6.93459 20.802 6.93459 20.429V11.6421C6.93459 11.2691 6.6125 10.9866 6.2339 10.9866H3.71366V10.495C3.71366 5.60141 7.60138 1.62327 12.3593 1.62327C17.1173 1.62327 21.005 5.60141 21.005 10.495V10.9866H18.4848C18.1118 10.9866 17.7841 11.2691 17.7841 11.6421V20.429C17.7841 20.802 18.1062 21.1015 18.4848 21.1015H19.1402V23.3448C19.1402 24.4015 18.2757 25.283 17.219 25.283H12.9131C12.6419 24.3789 11.8225 23.746 10.8449 23.746C9.65261 23.746 8.68068 24.7066 8.68068 25.9046V25.9837C8.68068 27.176 9.64696 28.1593 10.8449 28.1593C11.8169 28.1593 12.6362 27.4868 12.9131 26.6392H17.219C19.0272 26.6392 20.4964 25.1474 20.4964 23.3448V21.1015H21.6266C22.9376 21.1015 23.9999 20.0391 23.9999 18.7338V13.3373C23.9999 12.2806 23.3218 11.3821 22.3612 11.077V10.495C22.3612 4.85551 17.8632 0.26709 12.3593 0.26709C6.85548 0.26709 2.35747 4.85551 2.35747 10.495V11.077C1.39684 11.3821 0.71875 12.2806 0.71875 13.3373V18.7338C0.71875 20.0391 1.78109 21.1015 3.09207 21.1015ZM11.6812 25.9837C11.6812 26.4301 11.3083 26.7974 10.8619 26.7974C10.4155 26.7974 10.0425 26.4358 10.0425 25.9837V25.9046C10.0425 25.4582 10.4155 25.0909 10.8619 25.0909C11.3083 25.0909 11.6812 25.4582 11.6812 25.9046V25.9837ZM22.6437 13.3373V18.7338C22.6437 19.2932 22.186 19.7453 21.6266 19.7453H19.1402V12.3428H21.6266C22.186 12.3428 22.6437 12.7779 22.6437 13.3373ZM2.07493 13.3373C2.07493 12.7779 2.53265 12.3428 3.09207 12.3428H5.57841V19.7453H3.09207C2.53265 19.7453 2.07493 19.2932 2.07493 18.7338V13.3373Z" fill="white"/>
</svg>
