<svg width="23" height="23" viewBox="0 0 23 23" fill="none" xmlns="http://www.w3.org/2000/svg">
<g clip-path="url(#clip0)">
<path d="M22.7793 22.2821V22.2812H22.7848V14.2127C22.7848 10.2655 21.9351 7.22491 17.3206 7.22491C15.1022 7.22491 13.6136 8.44225 13.0058 9.59633H12.9417V7.59341H8.56641V22.2812H13.1222V15.0083C13.1222 13.0934 13.4852 11.2417 15.8566 11.2417C18.1932 11.2417 18.2281 13.4271 18.2281 15.1312V22.2821H22.7793Z" fill="white"/>
<path d="M1.14844 7.5943H5.70977V22.282H1.14844V7.5943Z" fill="white"/>
<path d="M3.42699 0.282043C1.96857 0.282043 0.785156 1.46546 0.785156 2.92388C0.785156 4.38229 1.96857 5.59046 3.42699 5.59046C4.88541 5.59046 6.06882 4.38229 6.06882 2.92388C6.06791 1.46546 4.88449 0.282043 3.42699 0.282043V0.282043Z" fill="white"/>
</g>
<defs>
<clipPath id="clip0">
<rect width="22" height="22" fill="white" transform="translate(0.785156 0.282043)"/>
</clipPath>
</defs>
</svg>
