<svg width="54" height="54" viewBox="0 0 54 54" fill="none" xmlns="http://www.w3.org/2000/svg">
<path d="M27 45C36.9243 45 45 36.9243 45 27C45 17.0757 36.9243 9 27 9C17.0757 9 9 17.0757 9 27C9 36.9243 17.0757 45 27 45ZM19.2649 26.8735C19.8438 26.2946 20.7778 26.2946 21.3568 26.8735L24.8157 30.3324L33.6308 21.5173C34.2097 20.9384 35.1438 20.9384 35.7227 21.5173C36.3016 22.0962 36.3016 23.0303 35.7227 23.6092L25.8568 33.4703C25.5697 33.7573 25.1903 33.9032 24.8108 33.9032C24.4314 33.9032 24.0519 33.7573 23.7649 33.4703L19.26 28.9654C18.6859 28.3914 18.6859 27.4524 19.2649 26.8735Z" fill="url(#paint0_linear)"/>
<path d="M27 49.5C39.4096 49.5 49.5 39.4096 49.5 27C49.5 14.5904 39.4096 4.5 27 4.5C14.5904 4.5 4.5 14.5904 4.5 27C4.5 39.4096 14.5904 49.5 27 49.5Z" stroke="#255098" stroke-opacity="0.08" stroke-width="9"/>
<defs>
<linearGradient id="paint0_linear" x1="27" y1="9" x2="27" y2="45" gradientUnits="userSpaceOnUse">
<stop stop-color="#124DB0"/>
<stop offset="1" stop-color="#06378B"/>
</linearGradient>
</defs>
</svg>
