<svg width="83" height="84" viewBox="0 0 83 84" fill="none" xmlns="http://www.w3.org/2000/svg">
<path d="M61.5478 52.6362C61.3812 52.6358 61.2187 52.5845 61.0821 52.4891L49.529 44.4412C49.4411 44.3798 49.366 44.3016 49.3083 44.2112C49.2505 44.1208 49.2111 44.0199 49.1923 43.9142C49.1735 43.8086 49.1757 43.7002 49.1988 43.5955C49.2219 43.4907 49.2654 43.3914 49.3268 43.3035C49.3882 43.2155 49.4664 43.1404 49.5568 43.0827C49.6472 43.0249 49.7482 42.9855 49.8538 42.9667C49.9595 42.9479 50.0678 42.9501 50.1726 42.9732C50.2774 42.9963 50.3766 43.0398 50.4646 43.1012L62.0176 51.1533C62.1604 51.2529 62.2675 51.3955 62.3236 51.5603C62.3796 51.725 62.3815 51.9034 62.3291 52.0694C62.2766 52.2353 62.1726 52.3802 62.0321 52.4829C61.8915 52.5856 61.7219 52.6407 61.5478 52.6403V52.6362Z" fill="#407CD4"/>
<path d="M61.5459 52.6359H33.1535C32.9368 52.6359 32.729 52.5498 32.5757 52.3966C32.4225 52.2434 32.3364 52.0356 32.3364 51.8189V32.0299C32.3364 31.8132 32.4225 31.6054 32.5757 31.4522C32.729 31.299 32.9368 31.2129 33.1535 31.2129H61.5459C61.7626 31.2129 61.9704 31.299 62.1237 31.4522C62.2769 31.6054 62.363 31.8132 62.363 32.0299V51.8189C62.363 52.0356 62.2769 52.2434 62.1237 52.3966C61.9704 52.5498 61.7626 52.6359 61.5459 52.6359ZM33.9705 51.0018H60.7289V32.847H33.9705V51.0018Z" fill="#407CD4"/>
<path d="M46.2257 67.6329H26.6165C25.533 67.6329 24.4939 67.2025 23.7278 66.4364C22.9617 65.6703 22.5312 64.6312 22.5312 63.5477V19.427C22.5312 18.3436 22.9617 17.3045 23.7278 16.5383C24.4939 15.7722 25.533 15.3418 26.6165 15.3418H46.2257C47.3091 15.3418 48.3482 15.7722 49.1144 16.5383C49.8805 17.3045 50.3109 18.3436 50.3109 19.427V29.3664C50.3109 29.5831 50.2248 29.791 50.0716 29.9442C49.9184 30.0974 49.7106 30.1835 49.4939 30.1835C49.2772 30.1835 49.0694 30.0974 48.9161 29.9442C48.7629 29.791 48.6768 29.5831 48.6768 29.3664V19.427C48.6768 18.777 48.4186 18.1535 47.9589 17.6938C47.4992 17.2341 46.8758 16.9759 46.2257 16.9759H26.6165C25.9664 16.9759 25.343 17.2341 24.8833 17.6938C24.4236 18.1535 24.1653 18.777 24.1653 19.427V63.5477C24.1653 64.1978 24.4236 64.8212 24.8833 65.2809C25.343 65.7406 25.9664 65.9988 26.6165 65.9988H46.2257C46.8758 65.9988 47.4992 65.7406 47.9589 65.2809C48.4186 64.8212 48.6768 64.1978 48.6768 63.5477V54.5602C48.6768 54.3435 48.7629 54.1356 48.9161 53.9824C49.0694 53.8292 49.2772 53.7431 49.4939 53.7431C49.7106 53.7431 49.9184 53.8292 50.0716 53.9824C50.2248 54.1356 50.3109 54.3435 50.3109 54.5602V63.5477C50.3109 64.6312 49.8805 65.6703 49.1144 66.4364C48.3482 67.2025 47.3091 67.6329 46.2257 67.6329Z" fill="#407CD4"/>
<path d="M50.1055 21.8779H22.7344V23.512H50.1055V21.8779Z" fill="#407CD4"/>
<path d="M50.1026 59.4629H23.5117V61.097H50.1026V59.4629Z" fill="#407CD4"/>
<path d="M39.0771 20.2444H33.7663C33.5496 20.2444 33.3418 20.1584 33.1885 20.0051C33.0353 19.8519 32.9492 19.6441 32.9492 19.4274C32.9492 19.2107 33.0353 19.0029 33.1885 18.8497C33.3418 18.6964 33.5496 18.6104 33.7663 18.6104H39.0771C39.2938 18.6104 39.5016 18.6964 39.6548 18.8497C39.8081 19.0029 39.8941 19.2107 39.8941 19.4274C39.8941 19.6441 39.8081 19.8519 39.6548 20.0051C39.5016 20.1584 39.2938 20.2444 39.0771 20.2444Z" fill="#407CD4"/>
<path d="M36.4225 62.7305C36.2609 62.7305 36.103 62.7784 35.9686 62.8682C35.8342 62.9579 35.7295 63.0856 35.6677 63.2348C35.6058 63.3841 35.5896 63.5484 35.6212 63.7069C35.6527 63.8654 35.7305 64.011 35.8448 64.1253C35.959 64.2395 36.1046 64.3173 36.2631 64.3489C36.4216 64.3804 36.5859 64.3642 36.7352 64.3024C36.8845 64.2405 37.0121 64.1358 37.1019 64.0014C37.1916 63.8671 37.2396 63.7091 37.2396 63.5475C37.2396 63.3308 37.1535 63.123 37.0003 62.9698C36.847 62.8165 36.6392 62.7305 36.4225 62.7305Z" fill="#407CD4"/>
<path d="M47.3461 46.4183C47.1795 46.4179 47.017 46.3666 46.8803 46.2713L32.68 36.434C32.5018 36.3105 32.3799 36.1212 32.3412 35.9078C32.3026 35.6945 32.3502 35.4745 32.4737 35.2962C32.5972 35.118 32.7865 34.9961 32.9999 34.9575C33.2132 34.9188 33.4332 34.9664 33.6115 35.0899L47.3461 44.6086L61.0807 35.0899C61.2589 34.9664 61.4789 34.9188 61.6923 34.9575C61.9056 34.9961 62.0949 35.118 62.2184 35.2962C62.3419 35.4745 62.3896 35.6945 62.3509 35.9078C62.3122 36.1212 62.1903 36.3105 62.0121 36.434L47.8118 46.2753C47.6747 46.3693 47.5122 46.4191 47.3461 46.4183Z" fill="#407CD4"/>
<path d="M33.1512 52.6364C32.9772 52.6368 32.8075 52.5817 32.667 52.479C32.5265 52.3763 32.4224 52.2314 32.37 52.0655C32.3176 51.8995 32.3195 51.7211 32.3755 51.5563C32.4315 51.3916 32.5387 51.249 32.6814 51.1493L44.2304 43.0973C44.4081 42.9733 44.6278 42.9249 44.8412 42.9628C45.0545 43.0007 45.2441 43.1219 45.3682 43.2995C45.4922 43.4772 45.5406 43.6969 45.5027 43.9103C45.4648 44.1237 45.3436 44.3132 45.1659 44.4373L33.6129 52.4934C33.4769 52.5865 33.316 52.6364 33.1512 52.6364Z" fill="#407CD4"/>
<path d="M41.5 83C19.1325 83 1 64.6437 1 42C1 19.3563 19.1325 1 41.5 1C63.8675 1 82 19.3563 82 42C82 64.6437 63.8675 83 41.5 83Z" stroke="#407CD4" stroke-width="2" stroke-dasharray="2 2"/>
</svg>
