<svg width="118" height="118" viewBox="0 0 118 118" fill="none" xmlns="http://www.w3.org/2000/svg">
<path d="M57.5792 18.926C62.6856 18.926 67.6899 19.9784 72.3878 21.978L73.2049 19.9784C68.2006 17.7683 62.992 16.7158 57.4771 16.7158L57.5792 18.926Z" fill="#407CD4"/>
<path d="M19.5256 57.5566C19.6166 52.2952 20.7269 47.157 22.7508 42.3507L20.8252 41.4747C18.5916 46.5931 17.4777 51.9417 17.3794 57.624L19.5256 57.5566Z" fill="#407CD4"/>
<path d="M93.5385 73.4231C95.4514 68.5441 96.3791 63.3684 96.3398 58.1306L98.4451 58.099C98.5589 63.7084 97.5547 69.0793 95.4888 74.3486L93.5385 73.4231Z" fill="#407CD4"/>
<path d="M92.8848 42.6231C90.8896 37.7792 87.9941 33.4434 84.3723 29.7684L85.8393 28.212C89.7688 32.0955 92.7441 36.625 94.8989 41.8564L92.8848 42.6231Z" fill="#407CD4"/>
<path d="M30.2788 30.5456C33.7939 26.7285 37.9794 23.7122 42.6208 21.577L41.7757 19.5898C36.7752 21.8092 32.4491 24.9781 28.6528 29.1006L30.2788 30.5456Z" fill="#407CD4"/>
<path d="M22.5185 73.7343C24.5137 78.5782 27.4092 82.914 31.031 86.5891L29.564 88.1454C25.6345 84.2619 22.6593 79.7324 20.5044 74.501L22.5185 73.7343Z" fill="#407CD4"/>
<path d="M84.2341 86.4344C80.5608 90.0899 76.2516 92.9152 71.5242 94.8397L72.2844 96.863C77.3741 94.8705 81.8302 91.8991 85.7974 87.9512L84.2341 86.4344Z" fill="#407CD4"/>
<path d="M84.5376 85.968C81.0652 89.5463 76.9801 92.3879 72.3843 94.3876C71.8736 94.598 71.5672 95.3348 71.7715 95.861C71.9758 96.282 72.3843 96.4924 72.7928 96.4924C72.8949 96.4924 73.0992 96.4924 73.2013 96.3872C78.0013 94.2823 82.2907 91.3355 85.9674 87.4414C86.3759 87.0204 86.3759 86.2837 85.9674 85.8628C85.661 85.547 84.9461 85.547 84.5376 85.968Z" fill="#407CD4"/>
<path d="M43.3941 92.7323C47.9012 94.7038 52.7008 95.7069 57.5743 95.7558L57.5684 97.8362C52.348 97.8548 47.3681 96.7728 42.5005 94.6436L43.3941 92.7323Z" fill="#407CD4"/>
<path d="M57.5 90C39.5507 90 25 75.4493 25 57.5C25 39.5507 39.5507 25 57.5 25C75.4493 25 90 39.5507 90 57.5C90 75.4493 75.4493 90 57.5 90Z" stroke="#407CD4" stroke-width="2" stroke-dasharray="2 2"/>
<path d="M41.85 46.85H75.15V69.15H41.85V46.85Z" fill="#06378B" stroke="#407CD5" stroke-width="1.7"/>
<path d="M42 47L56.7834 58.5528C57.871 59.4027 59.3981 59.4009 60.4836 58.5484L75 47.1477" stroke="#407CD5" stroke-width="1.7"/>
<path d="M53.4155 56L42 69M63.6475 56L75 68.8594" stroke="#407CD5" stroke-width="1.7"/>
</svg>
