<svg width="107" height="106" viewBox="0 0 107 106" fill="none" xmlns="http://www.w3.org/2000/svg">
<path d="M56.195 91.8885C56.1814 91.8885 56.1673 91.8879 56.1535 91.887C55.9843 91.8749 55.8286 91.7906 55.7265 91.6555C55.1459 90.8851 54.1751 90.7234 53.463 90.7234C52.7509 90.7234 51.7799 90.8851 51.1993 91.6555C51.0976 91.7906 50.9417 91.8751 50.7725 91.887C50.6018 91.8984 50.4369 91.8371 50.3171 91.7178L14.8006 56.3757C14.6805 56.2565 14.6185 56.091 14.6304 55.9225C14.6425 55.7541 14.7274 55.5992 14.8632 55.4976C15.6373 54.9199 15.7999 53.9538 15.7999 53.245C15.7999 52.5363 15.6373 51.5702 14.8632 50.9925C14.7274 50.8913 14.6425 50.7361 14.6304 50.5678C14.6183 50.3992 14.6804 50.234 14.8006 50.1145L50.3171 14.7725C50.4371 14.6528 50.6022 14.5907 50.7725 14.6031C50.9417 14.6152 51.0976 14.6996 51.1993 14.8348C51.7801 15.6051 52.7509 15.7669 53.463 15.7669C54.1751 15.7669 55.1461 15.6051 55.7265 14.8348C55.8284 14.6996 55.9841 14.6152 56.1535 14.6031C56.3238 14.5911 56.4891 14.6528 56.609 14.7725L92.1255 50.1145C92.2455 50.234 92.3075 50.3992 92.2954 50.5678C92.2833 50.7361 92.1986 50.8913 92.0628 50.9925C91.2887 51.5704 91.1261 52.5364 91.1261 53.245C91.1261 53.9536 91.2887 54.9199 92.0628 55.4976C92.1986 55.599 92.2835 55.7539 92.2954 55.9225C92.3075 56.091 92.2455 56.2565 92.1255 56.3757L56.609 91.7178C56.4987 91.8273 56.3498 91.8885 56.195 91.8885ZM16.0552 55.9765L50.7181 90.4694C51.4017 89.8777 52.3526 89.5583 53.4628 89.5583C54.573 89.5583 55.5239 89.8779 56.2075 90.4694L90.8707 55.9765C90.2761 55.2962 89.955 54.35 89.955 53.2452C89.955 52.1405 90.2763 51.194 90.8707 50.514L56.2077 16.0211C55.5241 16.6128 54.5732 16.9322 53.463 16.9322C52.3528 16.9322 51.4017 16.6128 50.7183 16.0211L16.0552 50.5138C16.6498 51.194 16.9708 52.1403 16.9708 53.245C16.9708 54.3498 16.6498 55.2962 16.0552 55.9765Z" fill="#9BA7BF" stroke="#9BA7BF" stroke-width="0.8"/>
<path d="M53.2305 12.5C53.1657 12.5 53.1078 12.478 53.0551 12.4254C53.0024 12.3727 52.9805 12.3147 52.9805 12.25C52.9805 12.1853 53.0024 12.1273 53.0551 12.0746C53.1078 12.022 53.1657 12 53.2305 12C53.2952 12 53.3531 12.022 53.4058 12.0746C53.4585 12.1273 53.4805 12.1853 53.4805 12.25C53.4805 12.3147 53.4585 12.3727 53.4058 12.4254C53.3531 12.478 53.2952 12.5 53.2305 12.5ZM44.9805 12.25C44.9805 16.8026 48.6779 20.5 53.2305 20.5C57.783 20.5 61.4805 16.8026 61.4805 12.25C61.4805 7.69745 57.783 4 53.2305 4C48.6779 4 44.9805 7.69745 44.9805 12.25Z" fill="#155FCD" stroke="#F4F9FF" stroke-width="8"/>
<path d="M53.2305 16.5C50.8871 16.5 48.9805 14.5934 48.9805 12.25C48.9805 9.90659 50.8871 8 53.2305 8C55.5739 8 57.4805 9.90659 57.4805 12.25C57.4805 14.5934 55.5739 16.5 53.2305 16.5ZM53.2305 9.1087C51.4983 9.1087 50.0892 10.5178 50.0892 12.25C50.0892 13.9822 51.4983 15.3913 53.2305 15.3913C54.9626 15.3913 56.3718 13.9822 56.3718 12.25C56.3718 10.5178 54.9626 9.1087 53.2305 9.1087Z" fill="#155FCD" stroke="#155FCD"/>
<path d="M12.25 53.9551C12.1853 53.9551 12.1273 53.9331 12.0746 53.8804C12.022 53.8278 12 53.7698 12 53.7051C12 53.6403 12.022 53.5824 12.0746 53.5297C12.1273 53.477 12.1853 53.4551 12.25 53.4551C12.3147 53.4551 12.3727 53.477 12.4254 53.5297C12.478 53.5824 12.5 53.6404 12.5 53.7051C12.5 53.7698 12.478 53.8278 12.4254 53.8804C12.3727 53.9331 12.3147 53.9551 12.25 53.9551ZM4 53.7051C4 58.2576 7.69744 61.9551 12.25 61.9551C16.8025 61.9551 20.5 58.2576 20.5 53.7051C20.5 49.1525 16.8026 45.4551 12.25 45.4551C7.69744 45.4551 4 49.1525 4 53.7051Z" fill="#155FCD" stroke="#F4F9FF" stroke-width="8"/>
<path d="M12.25 57.9551C9.90658 57.9551 8 56.0485 8 53.7051C8 51.3617 9.90658 49.4551 12.25 49.4551C14.5934 49.4551 16.5 51.3617 16.5 53.7051C16.5 56.0485 14.5934 57.9551 12.25 57.9551ZM12.25 50.5638C10.5178 50.5638 9.1087 51.9729 9.1087 53.7051C9.1087 55.4372 10.5178 56.8464 12.25 56.8464C13.9822 56.8464 15.3913 55.4372 15.3913 53.7051C15.3913 51.9729 13.9822 50.5638 12.25 50.5638Z" fill="#155FCD" stroke="#155FCD"/>
<path d="M52.7246 93.7744C52.6599 93.7744 52.6019 93.7524 52.5493 93.6998C52.4966 93.6471 52.4746 93.5891 52.4746 93.5244C52.4746 93.4597 52.4966 93.4017 52.5493 93.3491C52.6019 93.2964 52.6599 93.2744 52.7246 93.2744C52.7893 93.2744 52.8473 93.2964 52.9 93.3491C52.9526 93.4017 52.9746 93.4597 52.9746 93.5244C52.9746 93.5891 52.9526 93.6471 52.9 93.6998C52.8473 93.7524 52.7893 93.7744 52.7246 93.7744ZM44.4746 93.5244C44.4746 98.077 48.1721 101.774 52.7246 101.774C57.2772 101.774 60.9746 98.077 60.9746 93.5244C60.9746 88.9719 57.2772 85.2744 52.7246 85.2744C48.1721 85.2744 44.4746 88.9719 44.4746 93.5244Z" fill="#155FCD" stroke="#F4F9FF" stroke-width="8"/>
<path d="M52.7246 97.7744C50.3812 97.7744 48.4746 95.8678 48.4746 93.5244C48.4746 91.181 50.3812 89.2744 52.7246 89.2744C55.068 89.2744 56.9746 91.181 56.9746 93.5244C56.9746 95.8678 55.068 97.7744 52.7246 97.7744ZM52.7246 90.3831C50.9925 90.3831 49.5833 91.7923 49.5833 93.5244C49.5833 95.2566 50.9925 96.6657 52.7246 96.6657C54.4568 96.6657 55.8659 95.2566 55.8659 93.5244C55.8659 91.7923 54.4568 90.3831 52.7246 90.3831Z" fill="#155FCD" stroke="#155FCD"/>
<path d="M94.7305 53.9551C94.6657 53.9551 94.6078 53.9331 94.5551 53.8804C94.5024 53.8278 94.4805 53.7698 94.4805 53.7051C94.4805 53.6403 94.5024 53.5824 94.5551 53.5297C94.6078 53.477 94.6657 53.4551 94.7305 53.4551C94.7952 53.4551 94.8531 53.477 94.9058 53.5297C94.9585 53.5824 94.9805 53.6404 94.9805 53.7051C94.9805 53.7698 94.9585 53.8278 94.9058 53.8804C94.8531 53.9331 94.7952 53.9551 94.7305 53.9551ZM86.4805 53.7051C86.4805 58.2576 90.1779 61.9551 94.7305 61.9551C99.283 61.9551 102.98 58.2576 102.98 53.7051C102.98 49.1525 99.283 45.4551 94.7305 45.4551C90.1779 45.4551 86.4805 49.1525 86.4805 53.7051Z" fill="#155FCD" stroke="#F4F9FF" stroke-width="8"/>
<path d="M94.7305 57.9551C92.3871 57.9551 90.4805 56.0485 90.4805 53.7051C90.4805 51.3617 92.3871 49.4551 94.7305 49.4551C97.0739 49.4551 98.9805 51.3617 98.9805 53.7051C98.9805 56.0485 97.0739 57.9551 94.7305 57.9551ZM94.7305 50.5638C92.9983 50.5638 91.5892 51.9729 91.5892 53.7051C91.5892 55.4372 92.9983 56.8464 94.7305 56.8464C96.4626 56.8464 97.8718 55.4372 97.8718 53.7051C97.8718 51.9729 96.4626 50.5638 94.7305 50.5638Z" fill="#155FCD" stroke="#155FCD"/>
<path d="M71.1639 53.8745H35.7573C35.408 53.8745 35.125 53.5929 35.125 53.2454C35.125 52.8979 35.408 52.6162 35.7573 52.6162H71.1639C71.5131 52.6162 71.7962 52.8979 71.7962 53.2454C71.7962 53.5929 71.5131 53.8745 71.1639 53.8745Z" fill="#155FCD" stroke="#155FCD" stroke-width="0.4"/>
<path d="M53.4643 71.4911C53.1151 71.4911 52.832 71.2094 52.832 70.8619V35.6292C52.832 35.2817 53.1151 35 53.4643 35C53.8135 35 54.0966 35.2817 54.0966 35.6292V70.8619C54.0968 71.2094 53.8135 71.4911 53.4643 71.4911Z" fill="#155FCD" stroke="#155FCD" stroke-width="0.4"/>
<path d="M53.4642 71.4911C50.7784 71.4911 48.2953 69.5256 46.4727 65.9564C44.7295 62.5434 43.7695 58.029 43.7695 53.2455C43.7695 48.4619 44.7295 43.9479 46.4727 40.5347C48.2953 36.9657 50.7784 35 53.4642 35C56.15 35 58.6332 36.9657 60.4557 40.5347C62.1989 43.9479 63.1587 48.4621 63.1587 53.2455C63.1587 58.029 62.1987 62.5434 60.4557 65.9564C58.6332 69.5256 56.15 71.4911 53.4642 71.4911ZM53.4642 36.2583C51.2787 36.2583 49.196 37.9795 47.5998 41.1047C45.9451 44.3444 45.0341 48.6561 45.0341 53.2455C45.0341 57.8348 45.9454 62.1464 47.5998 65.3864C49.1958 68.5116 51.2787 70.2328 53.4642 70.2328C55.6499 70.2328 57.7322 68.5116 59.3284 65.3864C60.9833 62.1466 61.8944 57.8348 61.8944 53.2455C61.8944 48.6563 60.9833 44.3447 59.3284 41.1047C57.7324 37.9795 55.6499 36.2583 53.4642 36.2583Z" fill="#155FCD" stroke="#155FCD" stroke-width="0.4"/>
<path d="M53.4684 71.4911C48.6107 71.4911 44.0173 69.5822 40.5342 66.1162C37.0511 62.6504 35.1328 58.0794 35.1328 53.2455C35.1328 48.4117 37.0511 43.8409 40.5342 40.3749C44.0173 36.9089 48.6107 35 53.4684 35C58.3258 35 62.9194 36.9089 66.4026 40.3749C69.8857 43.8409 71.804 48.4117 71.804 53.2455C71.804 58.0794 69.8857 62.6504 66.4026 66.1162C62.9196 69.5822 58.3261 71.4911 53.4684 71.4911ZM53.4684 36.2583C44.0553 36.2583 36.3973 43.8787 36.3973 53.2455C36.3973 62.6122 44.0553 70.2328 53.4684 70.2328C62.8815 70.2328 70.5394 62.6122 70.5394 53.2455C70.5394 43.8787 62.8815 36.2583 53.4684 36.2583Z" fill="#155FCD" stroke="#155FCD" stroke-width="0.4"/>
</svg>
