<svg width="86" height="87" viewBox="0 0 86 87" fill="none" xmlns="http://www.w3.org/2000/svg">
<path d="M21.9336 23H25.9336V27H21.9336V23Z" fill="#155FCD"/>
<path d="M39.9336 41H43.9336V45H39.9336V41Z" fill="#155FCD"/>
<path d="M57.9336 59H61.9336V63H57.9336V59Z" fill="#155FCD"/>
<rect width="65" height="2" transform="matrix(-1 0 0 1 79.9336 16)" fill="#A6B1C7"/>
<rect width="65" height="2" transform="matrix(-1 0 0 1 65.9336 79)" fill="#A6B1C7"/>
<rect width="65" height="2" transform="matrix(4.37114e-08 1 1 -4.37114e-08 14.9336 16)" fill="#A6B1C7"/>
<rect width="65" height="2" transform="matrix(4.37114e-08 1 1 -4.37114e-08 77.9336 1)" fill="#A6B1C7"/>
<rect width="47" height="2" transform="matrix(-1 0 0 1 79.9336 34)" fill="#A6B1C7"/>
<rect width="47" height="2" transform="matrix(4.37114e-08 1 1 -4.37114e-08 32.9336 34)" fill="#A6B1C7"/>
<rect width="2" height="2" transform="matrix(-1 0 0 1 75.9336 52)" fill="#A6B1C7"/>
<rect width="2" height="2" transform="matrix(-1 0 0 1 67.9336 52)" fill="#A6B1C7"/>
<rect width="2" height="2" transform="matrix(-1 0 0 1 59.9336 52)" fill="#A6B1C7"/>
<rect width="2" height="2" transform="matrix(-1 0 0 1 71.9336 52)" fill="#A6B1C7"/>
<rect width="2" height="2" transform="matrix(-1 0 0 1 63.9336 52)" fill="#A6B1C7"/>
<rect width="2" height="2" transform="matrix(-1 0 0 1 55.9336 52)" fill="#A6B1C7"/>
<rect width="2" height="2" transform="matrix(-1 0 0 1 51.9336 52)" fill="#A6B1C7"/>
<rect width="2" height="2" transform="matrix(-1 0 0 1 51.9336 60)" fill="#A6B1C7"/>
<rect width="2" height="2" transform="matrix(-1 0 0 1 51.9336 68)" fill="#A6B1C7"/>
<rect width="2" height="2" transform="matrix(-1 0 0 1 51.9336 56)" fill="#A6B1C7"/>
<rect width="2" height="2" transform="matrix(-1 0 0 1 51.9336 64)" fill="#A6B1C7"/>
<rect width="2" height="2" transform="matrix(-1 0 0 1 51.9336 72)" fill="#A6B1C7"/>
<rect width="2" height="2" transform="matrix(-1 0 0 1 51.9336 76)" fill="#A6B1C7"/>
<path d="M77.9336 84C74.6199 84 71.9336 81.3137 71.9336 78C71.9336 74.6863 74.6199 72 77.9336 72C81.2473 72 83.9336 74.6863 83.9336 78C83.9336 81.3137 81.2473 84 77.9336 84Z" stroke="#155FCD" stroke-width="2"/>
<path d="M73.0818 5.93182C73.2756 5.93182 73.4654 5.87448 73.6276 5.76573L79.5593 1.81118C80.014 1.50866 80.1366 0.893727 79.8341 0.440932C79.6502 0.164114 79.3418 0 79.0116 0C78.8158 0 78.626 0.0573409 78.4639 0.166091L72.5322 4.12064C72.3127 4.26695 72.1624 4.49039 72.111 4.74941C72.0596 5.00843 72.111 5.27141 72.2573 5.49089C72.4412 5.76771 72.7497 5.93182 73.0818 5.93182Z" fill="#155FCD"/>
<path d="M79.0154 -0.000178337C79.2092 -0.000178337 79.399 0.0571618 79.5612 0.165912L85.4928 4.12046C85.9476 4.42298 86.0702 5.03791 85.7677 5.49071C85.5838 5.76753 85.2754 5.93164 84.9452 5.93164C84.7494 5.93164 84.5596 5.8743 84.3975 5.76555L78.4658 1.811C78.2463 1.66469 78.096 1.44125 78.0446 1.18223C77.9932 0.923208 78.0446 0.660231 78.1909 0.440753C78.3748 0.163935 78.6833 -0.000178337 79.0154 -0.000178337Z" fill="#155FCD"/>
<path d="M5.93182 85.8518C5.93182 85.658 5.87448 85.4682 5.76573 85.306L1.81118 79.3743C1.50866 78.9196 0.893727 78.797 0.440932 79.0995C0.164114 79.2834 2.87727e-08 79.5918 4.32061e-08 79.922C5.17624e-08 80.1178 0.057341 80.3076 0.166091 80.4697L4.12064 86.4014C4.26696 86.6209 4.49039 86.7712 4.74941 86.8226C5.00843 86.874 5.27141 86.8226 5.49089 86.6763C5.76771 86.4924 5.93182 86.1839 5.93182 85.8518Z" fill="#155FCD"/>
<path d="M0.00177509 79.9182C0.00177508 79.7244 0.0591152 79.5346 0.167866 79.3724L4.12241 73.4407C4.42493 72.986 5.03987 72.8634 5.49266 73.1659C5.76948 73.3498 5.93359 73.6582 5.93359 73.9884C5.93359 74.1842 5.87625 74.374 5.7675 74.5361L1.81296 80.4678C1.66664 80.6873 1.44321 80.8376 1.18418 80.889C0.925162 80.9404 0.662185 80.889 0.442707 80.7427C0.165889 80.5588 0.0017751 80.2503 0.00177509 79.9182Z" fill="#155FCD"/>
</svg>
