<svg width="87" height="87" viewBox="0 0 87 87" fill="none" xmlns="http://www.w3.org/2000/svg">
<path d="M43.5 85C20.5802 85 2 66.4198 2 43.5C2 20.5802 20.5802 2 43.5 2C66.4198 2 85 20.5802 85 43.5C85 66.4198 66.4198 85 43.5 85Z" stroke="#9BA7BF" stroke-width="3" stroke-dasharray="2 2"/>
<path d="M57.3514 32.4C53.9205 32.4 49.9331 29.5714 49.9331 25.925C49.9331 25.4144 49.5177 25 49.0058 25H37.8784C37.3665 25 36.9511 25.4144 36.9511 25.925C36.9511 29.5714 32.9637 32.4 29.5328 32.4C29.0209 32.4 28.6055 32.8144 28.6055 33.325V49.975C28.6055 56.5647 41.6432 61.4154 43.1305 61.9464C43.2307 61.9834 43.3364 62 43.4421 62C43.5478 62 43.6535 61.9815 43.7537 61.9464C45.241 61.4154 58.2787 56.5647 58.2787 49.975V33.325C58.2787 32.8144 57.8633 32.4 57.3514 32.4ZM38.7426 26.85H48.1398C48.6757 30.8201 52.6019 33.7764 56.4223 34.1982V37.95H30.4582V34.1982C34.2823 33.7764 38.2066 30.8201 38.7426 26.85ZM30.46 49.975V39.8H42.5148V59.7282C38.2715 58.0169 30.46 54.0265 30.46 49.975ZM44.3694 59.7282V39.8H56.4242V49.975C56.4242 54.0265 48.6127 58.0169 44.3694 59.7282Z" fill="#155FCD"/>
<path fill-rule="evenodd" clip-rule="evenodd" d="M20.4 32.9916L19 34.3863V26.6981C19 22.4466 22.442 19 26.7028 19H34.4448L33.0395 20.4H26.7028C23.2175 20.4 20.4 23.2175 20.4 26.6981V32.9916ZM54.1323 20.4L52.72 19H60.2952C64.5504 19 68 22.4475 68 26.6978V34.1471L66.6 32.7593V26.6978C66.6 23.2206 63.7771 20.4 60.2952 20.4H54.1323ZM66.6 54.0797L68 52.68V60.2988C68 64.5521 64.5456 68 60.2979 68H52.6772L54.0775 66.6H60.2979C63.7747 66.6 66.6 63.7766 66.6 60.2988V54.0797ZM33.0565 66.6L34.4858 68H26.6998C22.4473 68 19 64.5572 19 60.3032V52.8317L20.4 54.203V60.3032C20.4 63.7827 23.2192 66.6 26.6998 66.6H33.0565Z" fill="#9BA7BF" stroke="#9BA7BF" stroke-width="0.6" stroke-linejoin="round"/>
</svg>
