<svg width="160" height="48" viewBox="0 0 160 48" fill="none" xmlns="http://www.w3.org/2000/svg">
<path d="M76.1666 32.0207C75.5097 32.0207 74.9843 31.8519 74.5902 31.5144C74.1961 31.1769 73.999 30.7128 73.999 30.1221V14.2377C73.999 12.7611 74.4369 11.6114 75.3127 10.7887C76.2104 9.96605 77.4474 9.5547 79.0238 9.5547H89.2375C89.8943 9.5547 90.3979 9.70237 90.7482 9.99769C91.0985 10.2719 91.2737 10.6727 91.2737 11.2001C91.2737 11.7064 91.0876 12.1072 90.7154 12.4025C90.3651 12.6767 89.8724 12.8138 89.2375 12.8138H79.7791C79.3412 12.8138 78.9909 12.951 78.7282 13.2252C78.4874 13.4994 78.3669 13.8791 78.3669 14.3643V19.079H86.7415C87.3984 19.079 87.9019 19.2267 88.2522 19.522C88.6026 19.7962 88.7777 20.197 88.7777 20.7244C88.7777 21.2307 88.5916 21.6315 88.2194 21.9268C87.8691 22.201 87.3765 22.3381 86.7415 22.3381H78.3669V30.1221C78.3669 30.6917 78.159 31.1558 77.743 31.5144C77.3489 31.8519 76.8234 32.0207 76.1666 32.0207Z" fill="white" class="changing"/>
<path d="M98.2415 31.7042C96.5775 31.7042 95.2857 31.2823 94.3662 30.4385C93.4466 29.5948 92.9868 28.4134 92.9868 26.8946V14.2377C92.9868 12.7611 93.4247 11.6114 94.3005 10.7887C95.1981 9.96605 96.4352 9.5547 98.0116 9.5547H108.225C108.882 9.5547 109.386 9.70237 109.736 9.99769C110.086 10.2719 110.261 10.6727 110.261 11.2001C110.261 11.7064 110.075 12.1072 109.703 12.4025C109.353 12.6767 108.86 12.8138 108.225 12.8138H98.7669C98.329 12.8138 97.9787 12.951 97.716 13.2252C97.4752 13.4994 97.3547 13.8791 97.3547 14.3643V18.7626H105.729C106.386 18.7626 106.89 18.9102 107.24 19.2056C107.59 19.4798 107.765 19.8806 107.765 20.408C107.765 20.9142 107.579 21.315 107.207 21.6104C106.857 21.8846 106.364 22.0217 105.729 22.0217H97.3547V26.8946C97.3547 27.3798 97.4752 27.7595 97.716 28.0337C97.9787 28.308 98.329 28.4451 98.7669 28.4451H108.948C109.605 28.4451 110.108 28.5927 110.459 28.8881C110.809 29.1623 110.984 29.5631 110.984 30.0905C110.984 30.5968 110.798 30.9976 110.426 31.2929C110.075 31.5671 109.583 31.7042 108.948 31.7042H98.2415Z" fill="white" class="changing"/>
<path d="M118.288 31.7042C116.624 31.7042 115.332 31.2823 114.412 30.4385C113.493 29.5948 113.033 28.4134 113.033 26.8946V14.2377C113.033 12.7611 113.471 11.6114 114.347 10.7887C115.244 9.96605 116.481 9.5547 118.058 9.5547H125.644C128.184 9.5547 130.143 10.0715 131.523 11.1052C132.902 12.1388 133.592 13.6365 133.592 15.5984C133.592 16.5687 133.296 17.4758 132.705 18.3196C132.114 19.1423 131.348 19.7646 130.406 20.1865V20.2181C131.457 20.6189 132.311 21.2623 132.968 22.1483C133.647 23.0132 133.986 23.9519 133.986 24.9644C133.986 27.0739 133.274 28.7299 131.851 29.9323C130.45 31.1136 128.512 31.7042 126.038 31.7042H118.288ZM125.644 18.6993C126.761 18.6993 127.626 18.4356 128.239 17.9082C128.874 17.3809 129.191 16.6215 129.191 15.63C129.191 14.6596 128.895 13.9424 128.304 13.4783C127.713 13.0142 126.826 12.7822 125.644 12.7822H118.747C118.31 12.7822 117.959 12.9193 117.696 13.1936C117.456 13.4678 117.335 13.8475 117.335 14.3327V18.6993H125.644ZM125.644 28.4767C128.271 28.4767 129.585 27.3271 129.585 25.0277C129.585 24.0363 129.235 23.2663 128.534 22.7179C127.855 22.1694 126.892 21.8952 125.644 21.8952H117.335V26.9263C117.335 27.4114 117.456 27.7911 117.696 28.0654C117.959 28.3396 118.31 28.4767 118.747 28.4767H125.644Z" fill="white" class="changing"/>
<path d="M147.15 32.0207C144.589 32.0207 142.377 31.546 140.516 30.5968C138.677 29.6264 137.276 28.2869 136.312 26.5782C135.349 24.8484 134.867 22.8655 134.867 20.6295C134.867 18.3934 135.349 16.4211 136.312 14.7124C137.276 12.9826 138.677 11.6431 140.516 10.6938C142.377 9.72346 144.589 9.23828 147.15 9.23828C149.712 9.23828 151.912 9.72346 153.751 10.6938C155.612 11.6431 157.025 12.9826 157.988 14.7124C158.951 16.4211 159.433 18.3934 159.433 20.6295C159.433 22.8655 158.951 24.8484 157.988 26.5782C157.025 28.2869 155.612 29.6264 153.751 30.5968C151.912 31.546 149.712 32.0207 147.15 32.0207ZM147.15 28.6982C149.646 28.6982 151.584 27.981 152.963 26.5466C154.342 25.091 155.032 23.1187 155.032 20.6295C155.032 18.1192 154.31 16.1468 152.865 14.7124C151.441 13.2779 149.427 12.5607 146.822 12.5607C144.435 12.5607 142.574 13.299 141.239 14.7757C139.925 16.2312 139.268 18.1825 139.268 20.6295C139.268 23.1187 139.958 25.091 141.337 26.5466C142.717 27.981 144.654 28.6982 147.15 28.6982Z" fill="white" class="changing"/>
<path d="M76.645 43.24H75.8415V37.2975H73.999V36.465H78.4874V37.2975H76.645V43.24Z" fill="white" class="changing"/>
<path d="M87.5508 42.3979H90.5539V43.24H86.7473V36.465H90.4321V37.2975H87.5508V39.3262H90.2617V40.1395H87.5508V42.3979Z" fill="white" class="changing"/>
<path d="M99.9196 42.3979H102.484V43.24H99.116V36.465H99.9196V42.3979Z" fill="white" class="changing"/>
<path d="M111.559 42.3979H114.562V43.24H110.756V36.465H114.44V37.2975H111.559V39.3262H114.27V40.1395H111.559V42.3979Z" fill="white" class="changing"/>
<path d="M128.051 42.1874C127.824 42.551 127.529 42.8476 127.166 43.0773C126.804 43.3006 126.368 43.4122 125.86 43.4122C125.421 43.4122 125.016 43.3261 124.642 43.1538C124.274 42.9752 123.955 42.7296 123.684 42.417C123.419 42.098 123.211 41.7217 123.059 41.2879C122.908 40.8477 122.832 40.366 122.832 39.8429C122.832 39.3134 122.908 38.8318 123.059 38.398C123.216 37.9578 123.43 37.5846 123.701 37.2784C123.977 36.9658 124.301 36.7233 124.675 36.5511C125.048 36.3788 125.454 36.2927 125.892 36.2927C126.087 36.2927 126.284 36.3151 126.485 36.3597C126.685 36.4044 126.877 36.4714 127.061 36.5607C127.245 36.65 127.413 36.7616 127.564 36.8956C127.716 37.0232 127.845 37.1731 127.954 37.3453L127.321 37.9195C127.18 37.6898 126.98 37.5016 126.72 37.3549C126.466 37.2018 126.19 37.1252 125.892 37.1252C125.557 37.1252 125.254 37.1986 124.983 37.3453C124.718 37.4857 124.491 37.6803 124.301 37.9291C124.112 38.1779 123.966 38.4681 123.863 38.7999C123.76 39.1252 123.709 39.4729 123.709 39.8429C123.709 40.2257 123.757 40.5829 123.855 40.9147C123.958 41.2464 124.101 41.5367 124.285 41.7854C124.474 42.0279 124.702 42.2193 124.967 42.3596C125.237 42.5 125.538 42.5701 125.868 42.5701C126.192 42.5701 126.487 42.4936 126.752 42.3405C127.018 42.1874 127.237 41.9641 127.41 41.6706L128.051 42.1874Z" fill="white" class="changing"/>
<path d="M142.065 39.8429C142.065 40.366 141.987 40.8477 141.83 41.2879C141.678 41.7217 141.467 42.098 141.197 42.417C140.926 42.7296 140.604 42.9752 140.231 43.1538C139.857 43.3261 139.452 43.4122 139.013 43.4122C138.575 43.4122 138.169 43.3261 137.796 43.1538C137.428 42.9752 137.109 42.7296 136.838 42.417C136.568 42.098 136.357 41.7217 136.205 41.2879C136.054 40.8477 135.978 40.366 135.978 39.8429C135.978 39.3134 136.054 38.8318 136.205 38.398C136.357 37.9578 136.568 37.5846 136.838 37.2784C137.109 36.9658 137.428 36.7233 137.796 36.5511C138.169 36.3788 138.575 36.2927 139.013 36.2927C139.452 36.2927 139.857 36.3788 140.231 36.5511C140.604 36.7233 140.926 36.9658 141.197 37.2784C141.467 37.5846 141.678 37.9578 141.83 38.398C141.987 38.8318 142.065 39.3134 142.065 39.8429ZM141.197 39.8429C141.197 39.4729 141.145 39.1252 141.042 38.7999C140.94 38.4681 140.794 38.1779 140.604 37.9291C140.415 37.6803 140.185 37.4857 139.914 37.3453C139.649 37.1986 139.349 37.1252 139.013 37.1252C138.683 37.1252 138.383 37.1986 138.112 37.3453C137.847 37.4857 137.62 37.6803 137.431 37.9291C137.247 38.1779 137.103 38.4681 137 38.7999C136.898 39.1252 136.846 39.4729 136.846 39.8429C136.846 40.2193 136.898 40.5734 137 40.9051C137.103 41.2368 137.249 41.5271 137.439 41.7759C137.628 42.0183 137.855 42.2097 138.121 42.35C138.386 42.4904 138.683 42.5606 139.013 42.5606C139.343 42.5606 139.644 42.4904 139.914 42.35C140.185 42.2097 140.415 42.0183 140.604 41.7759C140.794 41.5271 140.94 41.2368 141.042 40.9051C141.145 40.5734 141.197 40.2193 141.197 39.8429Z" fill="white" class="changing"/>
<path d="M153.623 41.6706H153.639L155.335 36.465H156.585V43.24H155.782V37.575H155.765L153.858 43.24H153.347L151.447 37.575H151.431V43.24H150.652V36.465H151.902L153.623 41.6706Z" fill="white" class="changing"/>
<path fill-rule="evenodd" clip-rule="evenodd" d="M5.76941 5.73658L2.66016 3.26572C3.93696 1.61061 5.85217 0.712116 8.19297 0.582071C11.4205 0.36927 15.4282 1.48056 19.8024 3.86866C24.2358 6.19765 29.0002 9.7325 33.7645 14.3787C39.1318 19.6041 43.4233 25.4798 46.1543 30.6697C48.8734 35.8715 49.9847 40.4231 48.9561 42.9294L45.2558 41.3925C45.4686 40.8487 45.4686 38.035 42.6194 32.5495C39.9003 27.3595 35.7625 21.9094 30.9627 17.2633C26.6593 13.0546 22.1432 9.60246 17.9345 7.39169C14.2342 5.39373 10.8766 4.41248 8.48853 4.58982C6.78613 4.67257 6.14772 5.31098 5.76941 5.73658ZM45.7287 40.9669L46.8281 44.8446C46.6626 44.8919 46.4971 44.9274 46.3198 44.9274L45.6814 40.9669H45.7287ZM46.8281 44.8446L45.8942 41.6526L48.9561 42.9294C48.5778 43.8634 47.8567 44.5018 46.8281 44.8446ZM45.8942 41.6526L45.2558 41.3925C45.3385 41.227 45.5513 41.0142 45.7287 40.9669L45.8942 41.6526Z" fill="#5594F1"/>
<path fill-rule="evenodd" clip-rule="evenodd" d="M55.5522 6.6705L51.5917 7.22615C51.3789 5.77201 50.6223 4.83805 49.381 4.45974C47.1702 3.69129 43.5171 4.54249 39.2138 6.75326C34.9578 8.92855 30.1107 12.4161 25.5118 16.8849C20.8657 21.4365 17.0825 26.6265 14.659 31.2726C12.2709 35.8715 11.2069 39.8674 12.0226 42.1255C12.4009 43.2249 13.2521 43.8633 14.5762 43.9934L14.2688 47.9893C11.4197 47.741 9.20892 46.1214 8.27496 43.485C6.73807 39.2763 8.96065 33.4834 11.1241 29.3929C13.8905 24.0729 18.0165 18.6346 22.7454 14.0358C27.3443 9.4842 32.5697 5.65379 37.3814 3.18293C42.9142 0.369236 47.383 -0.481967 50.7051 0.676615C53.3887 1.56328 55.1739 3.77405 55.5522 6.6705Z" fill="#3478DD"/>
<path fill-rule="evenodd" clip-rule="evenodd" d="M7.34093 0.711914L7.93204 4.67237C6.48973 4.88517 5.59123 5.68909 5.21292 6.93042C4.49176 9.14119 5.42572 12.7943 7.68377 17.0503C9.93 21.2708 13.5121 26.0825 18.0637 30.5513C22.698 35.1383 27.9826 38.8505 32.6169 41.1795C37.2512 43.4849 41.2945 44.4661 43.517 43.6149C44.6165 43.1893 45.2549 42.3381 45.3377 41.014L49.3454 41.2741C49.1681 44.1233 47.5603 46.3813 44.9594 47.3507C40.7506 48.9704 34.9577 46.8069 30.8318 44.7617C25.4645 42.078 19.9316 38.0348 15.25 33.4005C10.663 28.8844 6.70253 23.7417 4.14892 18.93C1.25246 13.48 0.318505 9.01114 1.41798 5.68909C2.26918 2.96997 4.44447 1.1848 7.34093 0.711914Z" fill="#5594F1"/>
<path fill-rule="evenodd" clip-rule="evenodd" d="M50.5277 5.01534L52.9631 2.03613C54.571 3.39569 55.5522 5.18085 55.6823 7.56895C55.8478 10.761 54.6182 14.7569 52.1947 19.0957C49.7711 23.4817 46.1535 28.2106 41.4246 32.8922C36.1046 38.1177 30.1462 42.3382 24.9089 44.9746C19.6835 47.611 15.1201 48.675 12.6138 47.5637L14.2334 43.9106C14.7891 44.1234 17.5909 44.1588 23.1237 41.3924C28.361 38.7561 33.8465 34.7602 38.5754 30.0312C42.9142 25.7752 46.4018 21.3064 48.7071 17.1804C50.7405 13.4801 51.8046 10.158 51.6863 7.73446C51.5918 6.07935 51.0006 5.39365 50.5277 5.01534ZM14.6117 44.3362L10.7458 45.4002C10.6986 45.2701 10.6986 45.1046 10.6631 44.8918L14.6117 44.2889C14.6117 44.3362 14.6117 44.3362 14.6117 44.3362ZM12.6138 47.5637C11.6798 47.1853 11.0414 46.4642 10.7458 45.4002L13.9379 44.549L12.6138 47.5637ZM13.9379 44.549L14.2334 43.9106C14.3635 43.946 14.5763 44.2061 14.6117 44.3362L13.9379 44.549Z" fill="#3478DD"/>
<path fill-rule="evenodd" clip-rule="evenodd" d="M30.9619 17.2633L33.7638 14.3787C39.1311 19.6041 43.4226 25.4798 46.1535 30.6697C48.8726 35.8715 49.9839 40.4231 48.9554 42.9294L45.255 41.3925C45.4678 40.8487 45.4678 38.035 42.6187 32.5495C39.8995 27.3595 35.7618 21.9094 30.9619 17.2633ZM45.7279 40.9669L46.8274 44.8446C46.6619 44.8919 46.4964 44.9274 46.319 44.9274L45.6806 40.9669H45.7279ZM46.8274 44.8446L45.8934 41.6526L48.9554 42.9294C48.5771 43.8634 47.8559 44.5018 46.8274 44.8446ZM45.8934 41.6526L45.255 41.3925C45.3378 41.227 45.5506 41.0142 45.7279 40.9669L45.8934 41.6526Z" fill="#5594F1"/>
</svg>
