<svg width="103" height="103" viewBox="0 0 103 103" fill="none" xmlns="http://www.w3.org/2000/svg">
<path fill-rule="evenodd" clip-rule="evenodd" d="M92.2001 1.4L101.964 6.74026e-10C102 -4.83387e-05 102.2 2.6 102.2 2.6C102.608 10.4474 99.3411 20.2733 93.3675 30.9399C87.3939 41.7228 78.4771 53.3486 66.8213 64.8581C53.7085 77.7046 39.0221 88.0806 26.1133 94.562C15.7586 99.7727 6.45865 102.536 0.00012207 101.98L0.820922 92.1325C3.43886 92.335 10.1609 91.5167 21.7132 85.7554C34.6221 79.2741 48.1428 69.4503 59.7986 57.8245C70.4929 47.3613 79.0891 36.375 84.7713 26.2315C89.7833 17.1343 92.5915 8.96724 92.3001 3.00904L92.2001 1.4Z" fill="#3478DD"/>
</svg>
