<svg width="136" height="50" viewBox="0 0 136 50" fill="none" xmlns="http://www.w3.org/2000/svg">
<path fill-rule="evenodd" clip-rule="evenodd" d="M112.773 0.202554H125.494V13.9301H134.59V23.3244H125.494V30.3138C125.494 34.1188 128.254 38.2801 131.653 38.2801H136V48.8308H127.595C121.269 48.8308 112.773 44.3875 112.773 33.3368V0.202554ZM42.6854 30.0087C42.6854 24.7098 44.5167 20.1802 48.1794 16.4197C51.842 12.6592 56.3648 10.7789 61.7476 10.7789C67.4084 10.7789 72.2082 12.5122 76.1472 15.9787C80.0861 19.4452 82.0556 23.9355 82.0556 29.4498C82.0556 35.2358 80.1443 40.1073 76.3218 44.0644C72.4993 48.0215 67.6438 50 61.7554 50C57.2605 50 53.1261 48.3625 49.3522 45.0874C44.9198 41.2586 42.7001 36.2366 42.6932 30.0215L42.6854 30.0087ZM26.7403 13.9711L26.7559 0H38.9011V26.4935C38.9011 42.1594 32.779 49.9949 19.4062 49.9949C6.76064 49.9949 0.00521252 42.5594 0 30.6702C0 19.7477 7.73539 11.8584 18.408 11.8584C21.0951 11.8584 24.4963 12.5711 26.7481 13.9762L26.7403 13.9711ZM62.3939 21.6861C58.2995 21.6861 54.9791 25.6577 54.9791 30.5574C54.9791 35.4572 58.2995 39.4288 62.3939 39.4288C66.4884 39.4288 69.8087 35.4572 69.8087 30.5574C69.8087 25.6577 66.4884 21.6861 62.3939 21.6861V21.6861ZM18.6947 21.6861C14.6003 21.6861 11.2799 25.6577 11.2799 30.5574C11.2799 35.4572 14.6003 39.4288 18.6947 39.4288C22.7892 39.4288 26.1095 35.4572 26.1095 30.5574C26.1095 25.6577 22.7892 21.6861 18.6947 21.6861V21.6861ZM85.9832 0.202554H98.7044V13.9301H107.8V23.3244H98.7044V30.3138C98.7044 34.1188 101.464 38.2801 104.863 38.2801H109.218V48.8308H100.808C94.4822 48.8308 85.9858 44.3875 85.9858 33.3368L85.9832 0.202554Z" fill="white"/>
</svg>
