<svg width="118" height="118" viewBox="0 0 118 118" fill="none" xmlns="http://www.w3.org/2000/svg">
<path fill-rule="evenodd" clip-rule="evenodd" d="M118 16.0311L108.221 17.4023C107.695 13.8137 105.827 11.5088 102.762 10.5752C97.3027 8.67879 88.2823 10.7794 77.6563 16.2353C67.1471 21.6036 55.1782 30.2104 43.8224 41.2388C32.3499 52.4715 23.0083 65.2796 17.0239 76.7456C11.1271 88.0949 8.49978 97.9563 10.514 103.529C11.4482 106.242 13.55 107.818 16.8196 108.139L16.0606 118C9.02524 117.387 3.56628 113.39 1.26009 106.884C-2.5349 96.4975 2.95325 82.2015 8.29543 72.1067C15.1264 58.9776 25.3145 45.5568 36.9914 34.2075C48.3472 22.9749 61.2502 13.522 73.1315 7.42424C86.7935 0.480432 97.8281 -1.62022 106.031 1.239C112.658 3.42717 117.066 8.88302 118 16.0311Z" fill="#3478DD"/>
</svg>
