<svg width="198" height="114" viewBox="0 0 198 114" fill="none" xmlns="http://www.w3.org/2000/svg">
<rect x="42" y="58" width="142" height="54" rx="9" stroke="#9BA7BF" stroke-width="2.4" stroke-dasharray="2 2"/>
<rect x="123" y="96" width="23" height="2.4" fill="#1357BC"/>
<rect x="51.9883" y="72" width="77.2976" height="2.4" fill="#1357BC"/>
<rect x="133" y="72" width="11" height="2.4" fill="#1357BC"/>
<rect x="149" y="72" width="20" height="2.4" fill="#1357BC"/>
<rect x="51.9883" y="96" width="68" height="2.4" fill="#1357BC"/>
<rect x="51.9883" y="88" width="115.048" height="2.4" fill="#1357BC"/>
<rect x="51.9883" y="80" width="53.9286" height="2.4" fill="#1357BC"/>
<rect x="113.105" y="80" width="60.2202" height="2.4" fill="#1357BC"/>
<path d="M22.4257 88.8634C22.4257 86.733 20.6929 85 18.5626 85C16.4325 85 14.6992 86.733 14.6992 88.8634C14.6992 90.9934 16.4323 92.7265 18.5626 92.7265C20.6927 92.7265 22.4257 90.9934 22.4257 88.8634ZM18.5626 86.3392C19.9541 86.3392 21.0865 87.4716 21.0865 88.8634C21.0865 90.2549 19.9544 91.3873 18.5626 91.3873C17.1708 91.3873 16.0384 90.2551 16.0384 88.8634C16.0384 87.4716 17.1708 86.3392 18.5626 86.3392Z" fill="#1357BC" stroke="#1357BC" stroke-width="0.6"/>
<path d="M11 99.3329V101.133H26.1314V99.3329C26.1314 96.4284 23.7684 94.0654 20.8639 94.0654H16.2673C13.363 94.0654 11 96.4284 11 99.3329ZM16.2675 95.4046H20.8641C23.0301 95.4046 24.7924 97.167 24.7924 99.3329V99.7935H12.3392V99.3329C12.3392 97.167 14.1013 95.4046 16.2675 95.4046Z" fill="#1357BC" stroke="#1357BC" stroke-width="0.6"/>
<path d="M18 112.026C27.931 112.026 36 103.951 36 94.0132C36 84.0749 27.931 76 18 76V77.8157C26.9284 77.8157 34.1857 85.0783 34.1857 94.0132C34.1857 102.948 26.9284 110.211 18 110.211C9.07162 110.211 1.81432 102.948 1.81432 94.0132H0C0 103.951 8.06896 112.026 18 112.026Z" fill="#9BA7BF"/>
<ellipse cx="1.42393" cy="91.5792" rx="0.947368" ry="0.973684" fill="#9BA7BF"/>
<ellipse cx="2.03721" cy="88.9014" rx="0.947368" ry="0.973684" fill="#9BA7BF"/>
<ellipse cx="3.0294" cy="86.2237" rx="0.947368" ry="0.973684" fill="#9BA7BF"/>
<ellipse cx="4.45127" cy="83.9356" rx="0.947368" ry="0.973684" fill="#9BA7BF"/>
<ellipse cx="6.15831" cy="81.8419" rx="0.947368" ry="0.973684" fill="#9BA7BF"/>
<ellipse cx="8.24034" cy="79.8946" rx="0.947368" ry="0.973684" fill="#9BA7BF"/>
<ellipse cx="10.4239" cy="78.629" rx="0.947368" ry="0.973684" fill="#9BA7BF"/>
<ellipse cx="13.0255" cy="77.6553" rx="0.947368" ry="0.973684" fill="#9BA7BF"/>
<ellipse cx="15.6349" cy="76.9737" rx="0.947368" ry="0.973684" fill="#9BA7BF"/>
<path d="M184.426 15.8634C184.426 13.733 182.693 12 180.563 12C178.432 12 176.699 13.733 176.699 15.8634C176.699 17.9934 178.432 19.7265 180.563 19.7265C182.693 19.7265 184.426 17.9934 184.426 15.8634ZM180.563 13.3392C181.954 13.3392 183.086 14.4716 183.086 15.8634C183.086 17.2549 181.954 18.3873 180.563 18.3873C179.171 18.3873 178.038 17.2551 178.038 15.8634C178.038 14.4716 179.171 13.3392 180.563 13.3392Z" fill="#1357BC" stroke="#1357BC" stroke-width="0.6"/>
<path d="M173 26.3329V28.1327H188.131V26.3329C188.131 23.4284 185.768 21.0654 182.864 21.0654H178.267C175.363 21.0654 173 23.4284 173 26.3329ZM178.267 22.4046H182.864C185.03 22.4046 186.792 24.167 186.792 26.3329V26.7935H174.339V26.3329C174.339 24.167 176.101 22.4046 178.267 22.4046Z" fill="#1357BC" stroke="#1357BC" stroke-width="0.6"/>
<path d="M180 39.0263C189.931 39.0263 198 30.9515 198 21.0132C198 11.0749 189.931 3 180 3V4.81565C188.928 4.81565 196.186 12.0783 196.186 21.0132C196.186 29.9481 188.928 37.2107 180 37.2107C171.072 37.2107 163.814 29.9481 163.814 21.0132H162C162 30.9515 170.069 39.0263 180 39.0263Z" fill="#9BA7BF"/>
<ellipse cx="163.424" cy="18.5792" rx="0.947368" ry="0.973684" fill="#9BA7BF"/>
<ellipse cx="164.037" cy="15.9014" rx="0.947368" ry="0.973684" fill="#9BA7BF"/>
<ellipse cx="165.029" cy="13.2237" rx="0.947368" ry="0.973684" fill="#9BA7BF"/>
<ellipse cx="166.451" cy="10.9356" rx="0.947368" ry="0.973684" fill="#9BA7BF"/>
<ellipse cx="168.158" cy="8.84185" rx="0.947368" ry="0.973684" fill="#9BA7BF"/>
<ellipse cx="170.24" cy="6.89458" rx="0.947368" ry="0.973684" fill="#9BA7BF"/>
<ellipse cx="172.424" cy="5.62896" rx="0.947368" ry="0.973684" fill="#9BA7BF"/>
<ellipse cx="175.025" cy="4.65532" rx="0.947368" ry="0.973684" fill="#9BA7BF"/>
<ellipse cx="177.635" cy="3.97368" rx="0.947368" ry="0.973684" fill="#9BA7BF"/>
<rect x="90" y="2" width="66" height="37" rx="9" stroke="#9BA7BF" stroke-width="2.4" stroke-dasharray="2 2"/>
<path d="M108.584 11.88H104.552C101.024 11.88 99.26 13.644 99.26 17.172V21.708C99.26 25.236 101.024 27 104.552 27H108.584C112.112 27 113.876 25.236 113.876 21.708V17.172C113.876 13.644 112.112 11.88 108.584 11.88ZM111.356 21.708C111.356 23.892 110.264 24.984 108.08 24.984H105.056C102.872 24.984 101.78 23.892 101.78 21.708V17.172C101.78 14.988 102.872 13.896 105.056 13.896H108.08C110.264 13.896 111.356 14.988 111.356 17.172V21.708ZM127.514 19.398C128.69 18.852 129.299 17.718 129.299 15.975C129.299 13.245 127.934 11.88 125.204 11.88H116.447V12.888C116.447 13.56 116.783 13.896 117.455 13.896H124.511C126.023 13.896 126.779 14.652 126.779 16.164C126.779 17.676 126.023 18.432 124.511 18.432H117.203V20.448H124.763C126.275 20.448 127.031 21.204 127.031 22.716C127.031 24.228 126.275 24.984 124.763 24.984H117.203C116.531 24.984 116.195 25.32 116.195 25.992V27H125.456C128.186 27 129.551 25.635 129.551 22.905C129.551 21.057 128.858 19.881 127.514 19.398ZM140.225 11.88H135.941C133.085 11.88 131.657 13.308 131.657 16.164C131.657 19.02 133.085 20.448 135.941 20.448H142.997V21.708C142.997 23.892 141.905 24.984 139.721 24.984H133.421C132.749 24.984 132.413 25.32 132.413 25.992V27H140.225C143.753 27 145.517 25.236 145.517 21.708V17.172C145.517 13.644 143.753 11.88 140.225 11.88ZM142.997 18.432H136.445C134.933 18.432 134.177 17.676 134.177 16.164C134.177 14.652 134.933 13.896 136.445 13.896H139.721C141.905 13.896 142.997 14.988 142.997 17.172V18.432Z" fill="#155FCD"/>
</svg>
