<svg width="97" height="94" viewBox="0 0 97 94" fill="none" xmlns="http://www.w3.org/2000/svg">
<path d="M38.9893 10.6092C43.8889 9.61235 48.8899 9.61538 53.7764 10.5601L54.1815 8.53879C48.9612 7.45785 43.7643 7.4947 38.4727 8.57129L38.9893 10.6092Z" fill="#155FCD"/>
<path d="M9.79661 54.0063C8.88543 49.09 8.97573 44.0898 10.0056 39.2206L7.99166 38.7802C6.81978 43.9809 6.76593 49.1777 7.75 54.4873L9.79661 54.0063Z" fill="#155FCD"/>
<path d="M83.8167 54.3315C84.7278 49.4152 84.6375 44.415 83.6076 39.5458L85.6216 39.1054C86.7935 44.3061 86.8474 49.5029 85.8633 54.8125L83.8167 54.3315Z" fill="#155FCD"/>
<path d="M77.3533 25.7809C74.5213 21.6602 70.9218 18.1884 66.7505 15.4736L67.8632 13.7381C72.3692 16.5869 76.082 20.2235 79.1406 24.6738L77.3533 25.7809Z" fill="#9BA7BF"/>
<path d="M14.998 26.7565C17.6476 22.5163 21.0922 18.8908 25.1411 15.9966L23.9538 14.3113C19.5763 17.3539 16.0256 21.1491 13.1641 25.7285L14.998 26.7565Z" fill="#9BA7BF"/>
<path d="M15.7326 68.4848C18.5646 72.6054 22.1642 76.0772 26.3355 78.792L25.2228 80.5275C20.7167 77.6787 17.0039 74.0421 13.9453 69.5918L15.7326 68.4848Z" fill="#9BA7BF"/>
<path d="M77.3514 68.2621C74.5193 72.3827 70.9198 75.8545 66.7485 78.5694L67.8612 80.3048C72.3673 77.4561 76.0801 73.8194 79.1387 69.3691L77.3514 68.2621Z" fill="#9BA7BF"/>
<path d="M77.5605 67.7678C74.9066 71.7774 71.5252 75.2207 67.4944 77.9797C67.0443 78.2753 66.8898 79.0211 67.1855 79.4712C67.4613 79.8233 67.8931 79.9395 68.2851 79.8598C68.3831 79.8398 68.579 79.8 68.6571 79.682C72.864 76.7852 76.4215 73.204 79.2115 68.8606C79.5238 68.3889 79.3842 67.7029 78.9125 67.3907C78.5587 67.1565 77.8727 67.2961 77.5605 67.7678Z" fill="#9BA7BF"/>
<path d="M46.4453 77.7598C29.6006 77.7598 15.9453 64.1045 15.9453 47.2598C15.9453 30.4151 29.6006 16.7598 46.4453 16.7598C63.29 16.7598 76.9453 30.4151 76.9453 47.2598C76.9453 64.1045 63.29 77.7598 46.4453 77.7598Z" stroke="#9BA7BF" stroke-width="2" stroke-dasharray="2 2"/>
<path d="M33.4044 60.1604C33.4044 60.245 33.4044 60.245 33.4044 60.1604C36.8667 63.7996 41.7644 66 47.0844 66C52.32 66 57.1333 63.9688 60.7644 60.1604C64.1422 56.6058 66 51.951 66 47.0423C66 36.5479 57.4711 28 47 28C36.5289 28 28 36.5479 28 47.0423C28.0844 52.1203 30.1111 56.7751 33.4044 60.1604C33.32 60.1604 33.32 60.1604 33.4044 60.1604ZM34.1644 35.7016C35.5156 36.7171 36.9511 37.5635 38.3867 38.2405C37.4578 40.6949 36.8667 43.4031 36.7822 46.196H29.9422C30.1111 42.1336 31.7156 38.4944 34.1644 35.7016ZM64.2267 46.1114H57.3867C57.3022 43.3185 56.7111 40.6102 55.7822 38.1559C57.2178 37.4788 58.6533 36.6325 60.0044 35.6169C62.4533 38.4944 63.9733 42.1336 64.2267 46.1114ZM47.9289 63.461V55.8441C49.7867 55.9287 51.56 56.2673 53.3333 56.8597C52.0667 59.3987 50.2089 61.6837 47.9289 63.461ZM47.9289 53.9822V47.9733H55.5289C55.4444 50.5122 54.9378 52.9666 54.0089 55.167C52.0667 54.49 50.04 54.0668 47.9289 53.9822ZM47.9289 46.1114V40.1024C49.9556 40.0178 52.0667 39.5947 54.0089 38.9176C54.8533 41.118 55.36 43.5724 55.5289 46.196H47.9289V46.1114ZM47.9289 38.3252V30.7082C50.2089 32.4855 51.9822 34.686 53.3333 37.3096C51.56 37.902 49.7867 38.2405 47.9289 38.3252ZM46.1556 30.6236V38.2405C44.2978 38.1559 42.5244 37.8174 40.7511 37.2249C42.1022 34.6013 43.8756 32.4009 46.1556 30.6236ZM46.1556 40.1024V46.1114H38.5556C38.64 43.5724 39.1467 41.118 40.0756 38.833C42.0178 39.5947 44.1289 40.0178 46.1556 40.1024ZM46.1556 47.9733V53.9822C44.1289 54.0668 42.0178 54.49 40.0756 55.167C39.2311 52.9666 38.7244 50.5122 38.5556 47.9733H46.1556ZM46.1556 55.7595V63.3764C43.8756 61.5991 42.1022 59.3987 40.7511 56.7751C42.5244 56.1826 44.3822 55.8441 46.1556 55.7595ZM44.0444 63.9688C40.7511 63.3764 37.7956 61.853 35.5156 59.6526C36.6978 58.8062 37.88 58.0445 39.1467 57.4521C40.3289 59.9911 42.0178 62.1915 44.0444 63.9688ZM55.0222 57.5367C56.2889 58.1292 57.5556 58.8909 58.6533 59.7372C56.2044 61.9376 53.2489 63.461 50.04 64.0535C52.1511 62.1915 53.84 59.9911 55.0222 57.5367ZM60.0044 58.3831C58.6533 57.3675 57.2178 56.5212 55.7822 55.8441C56.7111 53.3898 57.3022 50.7661 57.3867 47.8886H64.2267C64.0578 51.8664 62.5378 55.5056 60.0044 58.3831ZM55.0222 36.5479C53.84 34.0935 52.1511 31.8931 50.1244 30.1158C53.4178 30.7082 56.3733 32.2316 58.6533 34.4321C57.5556 35.2784 56.2889 35.9555 55.0222 36.5479ZM39.1467 36.5479C37.88 35.9555 36.6133 35.1938 35.5156 34.3474C37.88 32.147 40.8356 30.6236 44.0444 30.0312C42.0178 31.8931 40.3289 34.0935 39.1467 36.5479ZM36.7822 47.9733C36.8667 50.7661 37.4578 53.4744 38.3867 55.8441C36.9511 56.5212 35.5156 57.3675 34.1644 58.3831C31.7156 55.5902 30.1111 51.951 29.9422 47.8886H36.7822V47.9733Z" fill="#155FCD"/>
<path d="M38.9893 83.6223C43.8889 84.6191 48.8899 84.6161 53.7764 83.6713L54.1815 85.6927C48.9612 86.7736 43.7643 86.7367 38.4727 85.6602L38.9893 83.6223Z" fill="#155FCD"/>
</svg>
