<svg width="703" height="240" viewBox="0 0 703 240" fill="none" xmlns="http://www.w3.org/2000/svg">
<path d="M26.9166 111.231C172.014 -80.6718 220.507 299.627 397.296 12.524M397.296 12.524C386.287 33.6981 386.287 56.9876 397.296 78.1618C416.83 115.731 470.608 12.524 470.608 12.524M397.296 12.524C374.631 28.6585 361.404 56.3879 329.712 55.1134M470.608 12.524C470.608 12.524 449.409 95.4587 470.608 133.779C494.936 177.752 561.867 202.423 574.468 161.838C587.068 121.252 622.147 133.779 622.147 133.779C622.147 133.779 695.127 112.735 702 1C654.271 56.6169 384.999 96.9768 329.712 55.1134M470.608 12.524C470.608 12.524 589.051 43.5949 620.287 128.267C663.338 244.967 383.55 78.1618 383.55 78.1618C383.55 78.1618 315.202 311.653 15.4615 111.231C-36.4684 192.402 68.1537 239 68.1537 239C68.1537 239 141.849 -42.5917 339.258 15.0292C336.237 30.9433 329.712 55.1134 329.712 55.1134" stroke="white" stroke-opacity="0.4" stroke-linecap="round" stroke-linejoin="round" stroke-dasharray="5 5"/>
</svg>
