<svg width="207" height="71" viewBox="0 0 207 71" fill="none" xmlns="http://www.w3.org/2000/svg">
<path d="M8.29212 32.7505C50.6926 -23.3276 64.8632 87.8038 116.525 3.90612M116.525 3.90612C113.308 10.0937 113.308 16.8993 116.525 23.0869C122.233 34.0654 137.948 3.90612 137.948 3.90612M116.525 3.90612C109.902 8.62097 106.036 16.7241 96.7752 16.3517M137.948 3.90612C137.948 3.90612 131.753 28.1414 137.948 39.3393C145.057 52.1894 164.616 59.3986 168.298 47.5387C171.98 35.6789 182.231 39.3393 182.231 39.3393C182.231 39.3393 203.557 33.1898 205.566 0.538574C191.618 16.791 112.931 28.585 96.7752 16.3517M137.948 3.90612C137.948 3.90612 172.56 12.9857 181.688 37.7288C194.268 71.8308 112.508 23.0869 112.508 23.0869C112.508 23.0869 92.5352 91.3178 4.94472 32.7505C-10.2303 56.4703 20.3425 70.0872 20.3425 70.0872C20.3425 70.0872 41.8778 -12.1998 99.5648 4.63821C98.682 9.28865 96.7752 16.3517 96.7752 16.3517" stroke="white" stroke-opacity="0.4" stroke-linecap="round" stroke-linejoin="round" stroke-dasharray="5 5"/>
</svg>
