<svg width="1030" height="615" viewBox="0 0 1030 615" fill="none" xmlns="http://www.w3.org/2000/svg">
<path d="M288.4 605.847L287.37 602.071L286.34 600.183H284.28L281.19 602.071L280.16 604.903L279.13 606.791L275.01 604.903L270.89 602.071L268.83 601.127L272.95 605.847L276.04 608.679L280.16 611.511L283.25 612.455L285.31 613.399L288.4 614.343L290.46 612.455L291.49 610.567L292.52 612.455H295.61L296.64 610.567L292.52 609.623L288.4 605.847ZM908.46 554.869C907.43 554.869 906.4 555.813 904.34 555.813L901.25 554.869H899.19V556.757L901.25 559.589V561.477L903.31 564.31H905.37H906.4L908.46 561.477L909.49 562.421V559.589L910.52 558.645V554.869H908.46ZM983.65 555.813L981.59 557.701C981.59 556.757 980.56 555.813 980.56 554.869L978.5 555.813V557.701L977.47 558.645L976.44 561.477L974.38 563.365C973.35 564.31 971.29 565.254 970.26 566.198L968.2 567.142L964.08 570.918L963.05 573.75V574.694H966.14L968.2 575.638H971.29C972.32 574.694 973.35 573.75 975.41 572.806L977.47 569.03L978.5 566.198L980.56 565.254H982.62L981.59 563.365L982.62 561.477C983.65 560.533 984.68 558.645 985.71 556.757V554.869L983.65 555.813ZM993.95 545.429H991.89L988.8 544.485V541.653L987.77 540.709V542.597L985.71 538.821L984.68 535.989L982.62 535.045L980.56 534.101H979.53L980.56 535.989L982.62 538.821L983.65 539.765V540.709L984.68 542.597V544.485V547.317L982.62 548.261V549.205L985.71 550.149L986.74 552.037L984.68 554.869L985.71 555.813V556.757L987.77 555.813C988.8 553.925 989.83 552.037 990.86 551.093V549.205L991.89 548.261H993.95L994.98 546.373L996.01 543.541H994.98L993.95 545.429ZM627.27 473.682L626.24 471.794L625.21 470.85L624.18 469.906L623.15 470.85V472.738L621.09 474.626H620.06V475.571L619.03 476.515L618 477.459L615.94 479.347H614.91L613.88 480.291L611.82 481.235H610.79V483.123L609.76 485.011V487.843L610.79 489.731L611.82 490.675V492.563L610.79 494.451V495.395L609.76 496.339V498.227V500.115L610.79 502.003V504.836L611.82 506.724C612.85 507.668 614.91 507.668 615.94 508.612L618 507.668L620.06 506.724L621.09 502.947C622.12 497.283 624.18 491.619 626.24 486.899V485.011L627.27 484.067V483.123L626.24 481.235L627.27 480.291L628.3 482.179V481.235V480.291L627.27 479.347V473.682ZM923.91 510.5V508.612L922.88 505.78L920.82 503.892C919.79 502.948 918.76 502.003 917.73 501.059V498.227H916.7L915.67 497.283L914.64 498.227L913.61 495.395L911.55 493.507V492.563C910.52 491.619 908.46 490.675 907.43 489.731L904.34 487.843L903.31 485.955V484.067L902.28 482.179H901.25C901.25 481.235 900.22 479.347 900.22 478.403V477.459L899.19 476.515L898.16 475.571L896.1 476.515V473.682V472.738V470.85L895.07 469.906V468.962H894.04V467.074L893.01 466.13L891.98 467.074V468.018L890.95 469.906L889.92 471.794V472.738L888.89 473.682V475.571V477.459V478.403V479.347L887.86 481.235V483.123L886.83 484.067L885.8 485.955L883.74 486.899L880.65 485.955V485.011L879.62 484.067H878.59L876.53 482.179L875.5 481.235V478.403L873.44 477.459V476.515L874.47 475.571L875.5 474.626V473.682H876.53L877.56 472.738L878.59 470.85L875.5 468.962H874.47L872.41 469.906L870.35 468.962H869.32L867.26 468.018L866.23 467.074L864.17 466.13H863.14L865.2 467.074V468.018L863.14 468.962H862.11L860.05 469.906L859.02 471.794V472.738L857.99 473.682L856.96 475.571L857.99 477.459H855.93H853.87L851.81 475.571L849.75 474.626C848.72 474.626 847.69 475.571 846.66 475.571V476.515H845.63V477.459H844.6H842.54L840.48 478.403V480.291L839.45 479.347L838.42 480.291L839.45 481.235L838.42 482.179L837.39 479.347L835.33 481.235C835.33 482.179 835.33 483.123 835.33 484.067L833.27 485.011L832.24 486.899L830.18 487.843L827.09 488.787H825.03H824V489.731H821.94L819.88 490.675H818.85H817.82L815.76 491.619L814.73 492.563L812.67 496.339L811.64 498.227V496.339L810.61 498.227V500.115V502.003L809.58 502.947V504.836L810.61 505.78V506.724L811.64 508.612V510.5L810.61 509.556L809.58 508.612L810.61 511.444L809.58 510.5V511.444L811.64 513.332V515.22L812.67 516.164V517.108L813.7 518.996V520.884V522.772L814.73 525.604V527.492V529.38V530.324V531.268H813.7V533.156L815.76 534.101L818.85 535.989C819.88 535.989 821.94 535.989 822.97 535.989L824 535.045L825.03 534.101H826.06L828.12 532.212H830.18H832.24L834.3 533.156H836.36H838.42L839.45 532.212L840.48 530.324L842.54 529.38L845.63 527.492H848.72C850.78 526.548 853.87 525.604 855.93 525.604H861.08L864.17 527.492H866.23L870.35 529.38L869.32 530.324L870.35 531.268L872.41 533.156V535.045L874.47 535.989L875.5 533.156L877.56 532.212L879.62 529.38V531.268L878.59 533.156V535.045L877.56 536.933L879.62 535.989L880.65 534.101L881.68 536.933L880.65 538.821H883.74L884.77 539.765L885.8 541.653V543.541L887.86 545.429L890.95 546.373H893.01C894.04 546.373 896.1 547.317 897.13 548.261L899.19 545.429L901.25 544.485V546.373L903.31 547.317L905.37 549.205L907.43 547.317L908.46 546.373L911.55 545.429H914.64L916.7 544.485V543.541V541.653L917.73 538.821L918.76 536.933L919.79 534.101L920.82 532.212L921.85 529.38L923.91 527.492L924.94 524.66L925.97 522.772V520.884C925.97 519.94 927 518.052 927 517.108V514.276L925.97 511.444L923.91 510.5ZM842.54 460.466L839.45 462.354L838.42 464.242V465.186L840.48 464.242L842.54 462.354C844.6 461.41 846.66 461.41 847.69 460.466L848.72 459.522H847.69H846.66H844.6L842.54 460.466ZM822.97 459.522L821.94 458.578L820.91 459.522H818.85L817.82 461.41H819.88C821.94 461.41 822.97 460.466 825.03 460.466L824 459.522H822.97ZM832.24 459.522L830.18 458.578L828.12 459.522V460.466H832.24L836.36 459.522V457.634L834.3 459.522H832.24ZM812.67 460.466L815.76 459.522L812.67 457.634L808.55 456.69L807.52 454.802L802.37 453.858L801.34 454.802H796.19V453.858H795.16L793.1 452.914H790.01L787.95 455.746H791.04V456.69L796.19 457.634H797.22H799.28L802.37 458.578L805.46 459.522H808.55H811.64L812.67 460.466ZM907.43 452.914L902.28 451.026V449.138H901.25L899.19 448.194L894.04 446.306L888.89 444.418L885.8 443.474C884.77 442.529 882.71 442.529 881.68 441.585H879.62L875.5 443.474L873.44 446.306L870.35 444.418L869.32 439.697V438.753L865.2 437.809L864.17 438.753L859.02 439.697L860.05 440.641L862.11 441.585L863.14 443.474H867.26V444.418H865.2L862.11 445.362L864.17 446.306V447.25L865.2 448.194H866.23L867.26 447.25L871.38 450.082H873.44L878.59 451.97L879.62 453.858L880.65 456.69L878.59 457.634L877.56 459.522H881.68L882.71 458.578L885.8 459.522L887.86 461.41H890.95H893.01L895.07 460.466V458.578L897.13 457.634L899.19 456.69L903.31 457.634L904.34 459.522L906.4 461.41L908.46 463.298C910.52 463.298 911.55 464.242 913.61 464.242L914.64 465.186H916.7V464.242L913.61 463.298L914.64 462.354H912.58V461.41H910.52L909.49 458.578L906.4 456.69V454.802H909.49L907.43 452.914ZM826.06 440.641V442.529L825.03 444.418L826.06 446.306H827.09V449.138L826.06 451.97L827.09 452.914H829.15C829.15 451.026 829.15 448.194 829.15 446.306L831.21 445.362V448.194L833.27 450.082V451.026L834.3 451.97L837.39 451.026H834.3L835.33 451.97L836.36 451.026V449.138L833.27 446.306L834.3 445.362L831.21 441.585L833.27 440.641L834.3 438.753H835.33V437.809L832.24 439.697L830.18 440.641L828.12 438.753V436.865H830.18H835.33L838.42 437.809L840.48 436.865L842.54 434.033V433.089L839.45 434.977H836.36H832.24L830.18 434.033L828.12 435.921L827.09 436.865L826.06 440.641ZM787.95 448.194L788.98 445.362L787.95 443.474H785.89L784.86 441.585V439.697H782.8L780.74 438.753L781.77 436.865L779.71 435.921L777.65 434.033L775.59 432.145H772.5L769.41 429.313L767.35 428.369L765.29 426.481L763.23 423.649C761.17 423.649 759.11 422.705 757.05 422.705V423.649L760.14 426.481L762.2 428.369L763.23 430.257L766.32 432.145L767.35 434.033L768.38 435.921L770.44 437.809L772.5 441.585L773.53 443.474L775.59 445.362L776.62 447.25L780.74 449.138L782.8 451.026H785.89L787.95 448.194ZM818.85 418.929L817.82 420.817L815.76 422.705L813.7 424.593L812.67 425.537L811.64 427.425L809.58 429.313L806.49 430.257H803.4V432.145L801.34 433.089L799.28 432.145L797.22 434.033V436.865V438.753L798.25 440.641L799.28 441.585V445.362H801.34H803.4L804.43 446.306L807.52 445.362L808.55 446.306H810.61L811.64 448.194L814.73 447.25V448.194L815.76 444.418V441.585L818.85 439.697V436.865L819.88 434.977H822.97L819.88 432.145V431.201L817.82 428.369L819.88 425.537L821.94 424.593V423.649H824V422.705C822.97 422.705 820.91 421.761 819.88 420.817V419.873L818.85 418.929ZM838.42 414.208L836.36 415.153L834.3 416.097V417.985V418.929L836.36 417.041H837.39L838.42 416.097L840.48 417.041L839.45 417.985L840.48 419.873L843.57 421.761L844.6 420.817L843.57 418.929L844.6 417.985L845.63 420.817L846.66 417.985C846.66 416.097 845.63 414.208 845.63 412.32L843.57 411.376V413.264H841.51V414.208L839.45 415.153L838.42 414.208ZM836.36 408.544V410.432L835.33 411.376L837.39 413.264L838.42 412.32L839.45 410.432L840.48 409.488V406.656L838.42 409.488V407.6L836.36 408.544ZM825.03 409.488L824 411.376L821.94 413.264L820.91 415.153L825.03 412.32L826.06 410.432L828.12 408.544V406.656L825.03 409.488ZM844.6 404.768L843.57 403.824H840.48L842.54 405.712V406.656H840.48V408.544H841.51V410.432L842.54 409.488L841.51 407.6V406.656L843.57 407.6L844.6 404.768ZM835.33 387.776H832.24H830.18L829.15 390.608V395.328L828.12 394.384V397.216V398.16L829.15 400.048V399.104L830.18 400.048L829.15 400.992V401.936L830.18 402.88H833.27L835.33 404.768L836.36 403.824L837.39 405.712L839.45 406.656V405.712V401.936V400.048L836.36 398.16H835.33H834.3L833.27 396.272V394.384L835.33 393.44L836.36 391.552L834.3 389.664L835.33 387.776ZM263.68 383.999H265.74H267.8H269.86V383.055L267.8 381.167H265.74V380.223L263.68 379.279H262.65C260.59 378.335 259.56 376.447 257.5 375.503H254.41L253.38 374.559L250.29 373.615H248.23H246.17H245.14H243.08L242.05 374.559L241.02 375.503L239.99 376.447L238.96 377.391H239.99H241.02V376.447H242.05L244.11 374.559H247.2V376.447L248.23 377.391H252.35L253.38 378.335L256.47 379.279H258.53L259.56 381.167L260.59 382.111H262.65L263.68 383.055L261.62 384.944L263.68 383.999ZM866.23 344.35L867.26 343.406L868.29 344.35L870.35 342.462V341.518L868.29 340.574L867.26 341.518H865.2L863.14 343.406V345.294L865.2 346.238L866.23 344.35ZM882.71 329.246L878.59 333.022L876.53 331.134L873.44 336.798L870.35 335.854L864.17 336.798L862.11 338.686L859.02 340.574L857.99 342.462L854.9 343.406L855.93 345.294L857.99 346.238L856.96 349.07L857.99 350.014L860.05 349.07L862.11 343.406L859.02 341.518H862.11L865.2 339.63L870.35 338.686V341.518L872.41 342.462L876.53 338.686H881.68L885.8 336.798L886.83 334.91V333.022L887.86 330.19V326.414L890.95 322.637V319.805L889.92 316.973L886.83 317.917L885.8 319.805V323.581L883.74 327.358L882.71 329.246ZM886.83 310.365L885.8 313.197V316.973H888.89L890.95 313.197L895.07 316.029L897.13 312.253L901.25 311.309L900.22 307.533H899.19H897.13L895.07 306.589L891.98 302.813L890.95 305.645L889.92 310.365H886.83ZM323.42 279.212L324.45 278.268H323.42L320.33 279.212L318.27 282.044L315.18 288.652L313.12 291.484L314.15 292.428L312.09 293.372V294.316H317.24H320.33L323.42 295.261L321.36 297.149H323.42L326.51 293.372L327.54 294.316L326.51 297.149L329.6 298.093H330.63L331.66 294.316L330.63 291.484V289.596L328.57 290.54L329.6 287.708L326.51 286.764L325.48 287.708L323.42 286.764L324.45 284.876L322.39 283.932L320.33 284.876C321.36 282.988 322.39 281.1 323.42 279.212ZM890.95 276.38L893.01 280.156V285.82L891.98 288.652V293.372V297.149L893.01 299.981L895.07 297.149L897.13 299.037V296.205L894.04 292.428L896.1 286.764L900.22 287.708L896.1 281.1L895.07 276.38V272.604C894.04 269.772 894.04 267.884 893.01 265.052L891.98 265.996L893.01 267.884L889.92 269.772L890.95 276.38ZM458.35 277.324L463.5 274.492L465.56 270.716V267.884L466.59 265.052L463.5 262.219H461.44C459.38 264.107 457.32 265.996 455.26 267.884L456.29 272.604L454.23 277.324H458.35ZM467.62 261.275L469.68 259.387L470.71 260.331L469.68 262.219L470.71 263.163L473.8 264.107L475.86 266.94V269.772H471.74L470.71 272.604L472.77 274.492L469.68 275.436L470.71 277.324L474.83 278.268L470.71 279.212L466.59 283.932L467.62 284.876L469.68 282.988H472.77L474.83 281.1L475.86 282.044L481.01 281.1H485.13L488.22 279.212L487.19 277.324L488.22 276.38V273.548L485.13 272.604L484.1 270.716L482.04 265.996L479.98 265.052L476.89 259.387H473.8L476.89 254.667L477.92 250.891H474.83H471.74L474.83 245.227H471.74H469.68L467.62 249.003L466.59 253.723L467.62 256.555V261.275ZM443.93 209.354L440.84 204.633L441.87 200.857H436.72L432.6 203.689L428.48 201.801L424.36 205.578L420.24 200.857L416.12 201.801L414.06 205.578L420.24 207.466V209.354L415.09 210.298L421.27 213.13L418.18 215.962C422.3 216.906 426.42 217.85 429.51 218.794C433.63 216.906 436.72 215.018 439.81 213.13L443.93 209.354ZM382.13 451.97L381.1 451.026H379.04L376.98 450.082L372.86 447.25L368.74 445.362H364.62L359.47 444.418L356.38 445.362V443.474L355.35 441.585L349.17 439.697L345.05 438.753L342.99 440.641V437.809H337.84L336.81 436.865L338.87 434.977V433.089H337.84L335.78 428.369L334.75 426.481H333.72V425.537L330.63 423.649C328.57 422.705 326.51 422.705 324.45 421.761H322.39V422.705L319.3 421.761C318.27 420.817 317.24 419.873 316.21 419.873H315.18V418.929L313.12 417.041C312.09 416.097 311.06 416.097 310.03 415.153H309V413.264L305.91 411.376H303.85L302.82 410.432L304.88 409.488C302.82 409.488 299.73 409.488 297.67 409.488V410.432L295.61 411.376H293.55L291.49 410.432H288.4H285.31V409.488L283.25 407.6H281.19L280.16 405.712L279.13 406.656V407.6L278.1 408.544V410.432L279.13 411.376L278.1 413.264H277.07L276.04 411.376L277.07 409.488V408.544L276.04 407.6H278.1V406.656L279.13 405.712L278.1 404.768H277.07L276.04 405.712C275.01 406.656 273.98 406.656 272.95 407.6H270.89V408.544H268.83L266.77 409.488L265.74 411.376V412.32H264.71L262.65 414.208H261.62L260.59 413.264L259.56 412.32H258.53H256.47H254.41L253.38 413.264L251.32 414.208L250.29 415.153H249.26L248.23 414.208H247.2V413.264C246.17 412.32 245.14 411.376 244.11 410.432L243.08 408.544V407.6L244.11 406.656V405.712V404.768V403.824V402.88V401.936V400.992L245.14 400.048V399.104V398.16L244.11 397.216H243.08L242.05 396.272L241.02 395.328H239.99H238.96H237.93H236.9H235.87H234.84H233.81H232.78H231.75L230.72 396.272H229.69L228.66 395.328L229.69 394.384H230.72L231.75 393.44V392.496V391.552V390.608V389.664H230.72H231.75L232.78 390.608C232.78 389.664 233.81 388.72 233.81 386.832L232.78 385.888L233.81 383.999L235.87 382.111V381.167L234.84 380.223H232.78H230.72L227.63 381.167L225.57 382.111V383.055V384.944L224.54 386.832L222.48 387.776C221.45 387.776 219.39 388.72 218.36 388.72H216.3L214.24 389.664L213.21 388.72L210.12 387.776L206 384.944V383.999L203.94 382.111L202.91 380.223L201.88 379.279V377.391V376.447V372.671V370.783L202.91 367.951L201.88 367.007V366.063V364.175L202.91 363.231L204.97 361.343L208.06 360.399L211.15 358.511L213.21 357.567H215.27L217.33 358.511H219.39L221.45 360.399H223.51L224.54 359.455H225.57H226.6V355.679V354.735L225.57 353.79H226.6H228.66H230.72H233.81L235.87 354.735L236.9 356.623L239.99 355.679H241.02L243.08 358.511L244.11 360.399L243.08 362.287V363.231C244.11 365.119 245.14 366.063 246.17 367.951L247.2 368.895V369.839H248.23H249.26L250.29 367.951C250.29 367.007 250.29 366.063 250.29 365.119L249.26 361.343V360.399L248.23 358.511L247.2 355.679V353.79V351.902L248.23 350.014L250.29 348.126L253.38 346.238V345.294L254.41 344.35H255.44L257.5 342.462L260.59 341.518L262.65 338.686V335.854V334.91H261.62V332.078L259.56 331.134L261.62 332.078L263.68 326.414L264.71 324.525V327.358L265.74 328.302L264.71 330.19C265.74 329.246 266.77 327.358 266.77 326.414V325.47L265.74 324.525L264.71 322.637L265.74 323.581H266.77V324.525L268.83 321.693L269.86 318.861H268.83L269.86 317.917H271.92L276.04 316.973L275.01 316.029L270.89 316.973L272.95 316.029C273.98 316.029 275.01 316.029 276.04 316.029L278.1 315.085H279.13L281.19 314.141V313.197L280.16 312.253V313.197H279.13L278.1 311.309V309.421C279.13 308.477 279.13 307.533 280.16 306.589C282.22 305.645 284.28 304.701 286.34 304.701L289.43 302.813V301.869H292.52H296.64L291.49 304.701V307.533H293.55L296.64 304.701L299.73 302.813L305.91 300.925L309 298.093L306.94 297.149V294.316L303.85 299.037L298.7 299.981L294.58 298.093L293.55 295.261L292.52 291.484L295.61 288.652L293.55 286.764H289.43L283.25 290.54L279.13 295.261L277.07 296.205L280.16 292.428L284.28 286.764L288.4 284.876L290.46 282.044H293.55H297.67L303.85 282.988L309 282.044L313.12 278.268L318.27 276.38C319.3 275.436 321.36 274.492 322.39 273.548V268.828L321.36 266.94L319.3 268.828L318.27 265.052L316.21 263.163L312.09 262.219L309 259.387L304.88 256.555L305.91 253.723C303.85 249.947 301.79 245.227 298.7 241.451L296.64 236.731L294.58 239.563L291.49 245.227L288.4 247.115L286.34 244.283L283.25 243.339L282.22 236.731V232.01H278.1L277.07 230.122L273.98 227.29L270.89 225.402L268.83 227.29L265.74 226.346L260.59 224.458L258.53 225.402L259.56 233.898L260.59 238.619L257.5 244.283L260.59 248.059L262.65 251.835V254.667L260.59 257.499L257.5 260.331L253.38 262.219L255.44 265.052L256.47 271.66L254.41 276.38L253.38 279.212L249.26 275.436L247.2 270.716L246.17 265.996V262.219H243.08H237.93L234.84 260.331L231.75 259.387L229.69 257.499L226.6 255.611L221.45 253.723L217.33 254.667L216.3 249.003L215.27 244.283L211.15 243.339V237.675L212.18 233.898L215.27 227.29L218.36 222.57L221.45 221.626V217.85L223.51 215.018H227.63L230.72 211.242L231.75 208.41L234.84 202.745L235.87 199.913L238.96 201.801L243.08 200.857L248.23 196.137V192.361L247.2 188.585L249.26 184.809V181.033L245.14 177.257L241.02 176.313L236.9 175.368V183.865L234.84 190.473L231.75 195.193L228.66 190.473L229.69 184.809L226.6 181.033L222.48 186.697V179.145L217.33 177.257L219.39 173.48L215.27 164.04L212.18 160.264L208.06 159.32L206 165.928V174.424L209.09 177.257L212.18 181.977L211.15 189.529H209.09L207.03 195.193V188.585L202.91 185.753L200.85 186.697V191.417H196.73L192.61 192.361L187.46 189.529L184.37 190.473L181.28 186.697L179.22 184.809H176.13H173.04L170.98 187.641L174.07 190.473L169.95 194.249L166.86 190.473L164.8 191.417L156.56 192.361L151.41 190.473L155.53 186.697L151.41 182.921H148.32L144.2 181.977L136.99 179.145L133.9 176.313H130.81L129.78 178.201L126.69 179.145V173.48L122.57 178.201L117.42 171.592L115.36 170.648L114.33 175.368L112.27 177.257L110.21 174.424L105.06 175.368L100.94 179.145L96.82 178.201L93.73 180.089L91.67 182.921L88.58 181.977L84.46 178.201C81.37 177.257 79.31 176.313 76.22 175.368L72.1 173.48L66.95 175.368L64.89 174.424L59.74 173.48L53.56 170.648L50.47 171.592L46.35 170.648V168.76L41.2 167.816L40.17 169.704L37.08 165.928L32.96 164.04L28.84 168.76L25.75 167.816L20.6 171.592L17.51 172.536L14.42 176.313L13.39 180.089L10.3 182.921H5.15L3.09 186.697L7.21 188.585L10.3 192.361L12.36 196.137L15.45 198.969L17.51 202.745H11.33V199.913H10.3L4.12 202.745L0 205.578L4.12 209.354L5.15 212.186L9.27 213.13L13.39 212.186L15.45 213.13L16.48 212.186L19.57 211.242H21.63L18.54 213.13L20.6 215.018V216.906L18.54 218.794L16.48 217.85L14.42 220.682L12.36 219.738H10.3L9.27 222.57L7.21 225.402L6.18 228.234L8.24 230.122V232.954L10.3 236.731L12.36 239.563L16.48 238.619L18.54 240.507L17.51 242.395V245.227H19.57L22.66 243.339L23.69 246.171L24.72 244.283L26.78 247.115L28.84 245.227L29.87 246.171L32.96 244.283L31.93 247.115V250.891L29.87 252.779L28.84 253.723L24.72 256.555L23.69 258.443L20.6 259.387L17.51 262.219L14.42 264.107L11.33 265.996V266.94L16.48 265.996L18.54 264.107C18.54 262.219 20.6 261.275 22.66 260.331H24.72L27.81 258.443L28.84 256.555L32.96 253.723L33.99 251.835L37.08 249.947L40.17 248.059L43.26 244.283L40.17 241.451L44.29 237.675L46.35 233.898L50.47 231.066L51.5 232.954L48.41 234.842L47.38 240.507V243.339L50.47 241.451L52.53 239.563L55.62 238.619H57.68L56.65 234.842L59.74 233.898L62.83 235.787L67.98 238.619H72.1C75.19 239.563 77.25 240.507 80.34 241.451L86.52 247.115L89.61 249.003H93.73H96.82L98.88 253.723L103 257.499L104.03 261.275L106.09 263.163L108.15 265.052V266.94L111.24 269.772V273.548L115.36 275.436V278.268L117.42 282.044L122.57 283.932L124.63 285.82L129.78 289.596L130.81 292.428V295.261L129.78 296.205L128.75 292.428L124.63 291.484V292.428L125.66 294.316L126.69 298.093L127.72 302.813L126.69 309.421L125.66 313.197L126.69 316.029V318.861L125.66 321.693L126.69 323.581V326.414L128.75 329.246L129.78 330.19V331.134L131.84 335.854L134.93 338.686V340.574L135.96 341.518H139.05L140.08 342.462H142.14V343.406H143.17L145.23 345.294V347.182L146.26 350.014C147.29 351.902 148.32 354.735 149.35 356.623L151.41 357.567L153.47 359.455V360.399L152.44 361.343H151.41L153.47 363.231L155.53 364.175L156.56 365.119C157.59 366.063 158.62 367.007 159.65 367.007V368.895V370.783L160.68 371.727L162.74 372.671L164.8 374.559L165.83 376.447L166.86 375.503V374.559C165.83 373.615 165.83 372.671 164.8 371.727H163.77V369.839C163.77 368.895 162.74 367.951 161.71 367.007L162.74 364.175L160.68 362.287L159.65 361.343L158.62 360.399L157.59 358.511V357.567V356.623L154.5 354.735L153.47 353.79V351.902V350.014V349.07L155.53 350.014H156.56L158.62 350.958V351.902L159.65 353.79L161.71 355.679V356.623C162.74 357.567 163.77 358.511 164.8 359.455H166.86L167.89 361.343L169.95 363.231L170.98 364.175V366.063L172.01 367.007L174.07 367.951L175.1 369.839L178.19 371.727L180.25 374.559L181.28 376.447V377.391L182.31 378.335V379.279L181.28 380.223V381.167H180.25L181.28 382.111L182.31 383.999L185.4 385.888L186.43 386.832L189.52 387.776H191.58L192.61 388.72L194.67 389.664L197.76 390.608H199.82L202.91 391.552L204.97 392.496L207.03 393.44H208.06L210.12 392.496H212.18L214.24 393.44L215.27 394.384L218.36 397.216L220.42 398.16L221.45 399.104H223.51L224.54 400.048L225.57 400.992H227.63L228.66 401.936H229.69H231.75V400.992H232.78V401.936L233.81 402.88L234.84 403.824L235.87 404.768C236.9 405.712 237.93 405.712 237.93 406.656L236.9 407.6H237.93V408.544V409.488V410.432H238.96L239.99 411.376L241.02 410.432V409.488L242.05 410.432V411.376H243.08L244.11 412.32L245.14 413.264V414.208L246.17 415.153L248.23 416.097V415.153H249.26H250.29H251.32L252.35 416.097H253.38V417.985H254.41H255.44L254.41 416.097V415.153H255.44L256.47 414.208L257.5 413.264H258.53L259.56 414.208L260.59 415.153H261.62L257.5 416.097L258.53 417.985L259.56 418.929L260.59 419.873V421.761L259.56 422.705L260.59 425.537L259.56 427.425L260.59 428.369C259.56 429.313 258.53 430.257 258.53 431.201L257.5 430.257V431.201V432.145H256.47V433.089L254.41 434.033L252.35 434.977V435.921L251.32 437.809V439.697H250.29V442.529L249.26 443.474L251.32 444.418L252.35 443.474L253.38 444.418L252.35 446.306L250.29 448.194L249.26 450.082L250.29 452.914L249.26 453.858L251.32 454.802L253.38 456.69L254.41 458.578L255.44 459.522C257.5 463.298 259.56 466.13 260.59 469.906L262.65 473.682V474.626L263.68 476.515L265.74 478.403L270.89 481.235L277.07 484.067V485.011L280.16 486.899L281.19 490.675V495.395C280.16 501.059 279.13 507.668 279.13 513.332L278.1 517.108V520.884L277.07 523.716L278.1 528.436L277.07 533.156C276.04 536.933 273.98 539.765 272.95 543.541H271.92V547.317L272.95 550.149L271.92 552.037C270.89 555.813 270.89 559.589 269.86 563.365L271.92 564.31L272.95 559.589L275.01 560.533L273.98 568.086L270.89 567.142L269.86 573.75L266.77 577.526L270.89 578.47L267.8 581.302L266.77 585.078V591.686L267.8 594.519L266.77 597.351L267.8 600.183L270.89 603.015L273.98 605.847L277.07 607.735H278.1V603.959L281.19 602.071L282.22 601.127H284.28H285.31L283.25 598.295L282.22 593.575L283.25 591.686L286.34 589.798L288.4 585.078L291.49 583.19L292.52 579.414L289.43 578.47L286.34 575.638L287.37 572.806L289.43 570.918H292.52L293.55 569.03V565.254L298.7 562.421L301.79 561.477L300.76 559.589L298.7 560.533L296.64 559.589V555.813L297.67 554.869L300.76 555.813L303.85 554.869L305.91 553.925L303.85 552.981L304.88 550.149L303.85 548.261H306.94L313.12 547.317L317.24 545.429L320.33 540.709V538.821L318.27 536.933V535.045L315.18 534.101V532.212L317.24 534.101H319.3L322.39 535.045H324.45L326.51 535.989L329.6 534.101L330.63 532.212L332.69 530.324L333.72 527.492L335.78 525.604L337.84 522.772L340.93 517.108L342.99 515.22L344.02 513.332L345.05 510.5V508.612V506.724L347.11 503.892L350.2 502.003L353.29 501.059L355.35 500.115L359.47 499.171H362.56L363.59 497.283L365.65 496.339V493.507L368.74 489.731V485.955L369.77 485.011C369.77 483.123 370.8 481.235 370.8 479.347V474.626L371.83 472.738H372.86L374.92 470.85L376.98 468.018L381.1 464.242L382.13 462.354L383.16 457.634C383.16 454.802 382.13 452.914 382.13 451.97ZM149.35 164.984L143.17 167.816L144.2 170.648H148.32L154.5 169.704L159.65 171.592L155.53 172.536H151.41L147.29 173.48L146.26 175.368L149.35 181.033L151.41 180.089L155.53 181.977L157.59 185.753C161.71 184.809 165.83 184.809 169.95 183.865L175.1 181.033H178.19L183.34 182.921L188.49 183.865L189.52 181.033L187.46 178.201L192.61 177.257V173.48C189.52 170.648 185.4 168.76 182.31 165.928C181.28 161.208 180.25 156.488 179.22 151.768L176.13 147.992L173.04 146.104L170.98 147.048L173.04 156.488L172.01 160.264L169.95 151.768L166.86 148.936L163.77 153.656L159.65 148.936L153.47 151.768L154.5 147.992L152.44 147.048L144.2 152.712L142.14 156.488L140.08 163.096L145.23 164.984H149.35ZM288.4 174.424L286.34 171.592L279.13 168.76L276.04 163.096L270.89 164.984V161.208L265.74 156.488L259.56 151.768L256.47 155.544L250.29 158.376V152.712L245.14 143.271L238.96 147.048L236.9 154.6L234.84 148.936L236.9 143.271L229.69 146.104L226.6 148.936L224.54 156.488L225.57 164.984H229.69L226.6 168.76L228.66 171.592L233.81 172.536L239.99 174.424L250.29 176.313L255.44 175.368L256.47 173.48L258.53 176.313H260.59L263.68 181.033L261.62 182.921L267.8 185.753L271.92 189.529L272.95 192.361L273.98 195.193L269.86 201.801L268.83 204.633L269.86 206.522L263.68 207.466H258.53L257.5 212.186L259.56 214.074L267.8 213.13V211.242C270.89 213.13 272.95 215.018 276.04 216.906L275.01 218.794L278.1 221.626L284.28 225.402L292.52 227.29V225.402C290.46 222.57 287.37 219.738 285.31 216.906L292.52 221.626L296.64 223.514L297.67 219.738L295.61 213.13L294.58 211.242L290.46 208.41L287.37 204.633V200.857L291.49 199.913L295.61 206.522L298.7 209.354L303.85 201.801L304.88 197.081H300.76L296.64 190.473L292.52 188.585L285.31 184.809L290.46 181.033L288.4 174.424ZM194.67 142.327L191.58 147.048L194.67 152.712L188.49 151.768V154.6L195.7 161.208L197.76 164.04L200.85 164.984L206 162.152L207.03 154.6L202.91 150.824L206 146.104L204.97 143.271L199.82 144.215L194.67 142.327ZM209.09 142.327L208.06 146.104V150.824L210.12 158.376H213.21L216.3 151.768L219.39 149.88L223.51 141.383L218.36 139.495H212.18L209.09 142.327ZM887.86 132.887H898.16L900.22 125.335L889.92 119.671L882.71 118.727L878.59 120.615L877.56 128.167L883.74 134.775L887.86 132.887ZM191.58 116.839H188.49V125.335L193.64 124.391V130.055L196.73 131.943L201.88 130.999L202.91 123.447V117.783L200.85 112.118V114.006L195.7 113.062L191.58 116.839ZM161.71 129.111L155.53 133.831V136.663H159.65L166.86 131.943L176.13 130.055L178.19 125.335V119.671L175.1 118.727L173.04 120.615L172.01 118.727L170.98 113.062L167.89 112.118L164.8 115.895L168.92 126.279L164.8 125.335L159.65 118.727L151.41 114.95L148.32 118.727L144.2 129.111L148.32 130.999L161.71 129.111ZM631.39 163.096L636.54 164.984L637.57 168.76L646.84 169.704L648.9 168.76L643.75 162.152L642.72 155.544C645.81 149.88 648.9 143.271 651.99 137.607L661.26 128.167C667.44 124.391 673.62 121.559 679.8 117.783L681.86 114.006L679.8 110.23L674.65 112.118L669.5 115.895L659.2 117.783L649.93 124.391L643.75 130.055L644.78 134.775L637.57 143.271L640.66 144.215L634.48 151.768V156.488L631.39 158.376V163.096ZM213.21 116.839L216.3 121.559V127.223L217.33 132.887L224.54 135.719L229.69 136.663H235.87L244.11 134.775L248.23 135.719L252.35 133.831L254.41 130.999L253.38 126.279L250.29 122.503L245.14 121.559L238.96 122.503L234.84 124.391L230.72 123.447H226.6L224.54 120.615L221.45 117.783L222.48 114.006L220.42 110.23H215.27L212.18 106.454L206 105.51L204.97 110.23L208.06 114.006L213.21 116.839ZM183.34 88.5176L180.25 92.2937L186.43 93.2377L191.58 97.0139L196.73 97.9579L195.7 93.2377L193.64 86.6295L185.4 81.9094L180.25 80.0213V85.6855L183.34 88.5176ZM210.12 79.0773H215.27L213.21 82.8534V87.5736L216.3 93.2377L222.48 95.1258L227.63 94.1818L232.78 83.7974L236.9 80.0213L233.81 75.3011L231.75 64.9168C228.66 63.0287 225.57 61.1407 222.48 58.3086L218.36 48.8683L212.18 49.8123L213.21 53.5884L210.12 54.5325L208.06 59.2526L206 65.8608L208.06 72.4691L210.12 79.0773ZM223.51 48.8683L225.57 55.4765L230.72 61.1407L241.02 60.1966L247.2 62.0847L243.08 67.7489L241.02 65.8608L232.78 64.9168L233.81 72.4691L237.93 78.1333L236.9 82.8534L231.75 85.6855L229.69 90.4057L234.84 93.2377L238.96 101.734L231.75 96.0699L229.69 97.0139L230.72 105.51L225.57 108.342V114.006L230.72 114.95L234.84 115.895L243.08 114.006L250.29 116.839L257.5 110.23V107.398H252.35V104.566L256.47 100.79L257.5 96.0699L261.62 92.2937L264.71 87.5736L262.65 80.9653L264.71 78.1333L260.59 76.2452L268.83 74.3571L270.89 71.525L277.07 68.6929L282.22 56.4205L287.37 51.7004L294.58 41.316H288.4L291.49 37.5399L298.7 33.7638L305.91 25.2675V19.6033L300.76 13.9391L294.58 14.8831C287.37 12.9951 281.19 12.051 273.98 10.163L265.74 13.9391L264.71 11.107L255.44 12.051L250.29 14.8831L246.17 18.6593L244.11 29.9876L241.02 24.3234L237.93 23.3794L233.81 30.9317L227.63 33.7638H224.54L220.42 37.5399L221.45 44.1481L223.51 48.8683ZM415.09 173.48H407.88L410.97 169.704L409.94 164.04C412 166.872 414.06 168.76 416.12 171.592L421.27 169.704L420.24 163.096L416.12 158.376L412 156.488L413.03 154.6L419.21 158.376V154.6L415.09 147.048H419.21L423.33 145.159L424.36 142.327L421.27 138.551L427.45 137.607L423.33 129.111L426.42 128.167L425.39 118.727L420.24 113.062L425.39 109.286L429.51 108.342L426.42 100.79V86.6295C428.48 80.0213 430.54 73.4131 432.6 66.8049L426.42 65.8608L435.69 63.0287L437.75 59.2526L449.08 46.9802L447.02 39.428L438.78 35.6518L424.36 43.2041L417.15 49.8123L420.24 39.428L417.15 33.7638L412 39.428L403.76 32.8197L393.46 34.7078L391.4 31.8757C400.67 30.9317 408.91 29.9876 418.18 29.0436L423.33 21.4914L405.82 3.55474L383.16 0.722656L372.86 2.61073L368.74 11.107L358.44 10.163L349.17 23.3794V31.8757L356.38 42.26L350.2 36.5959L346.08 34.7078L338.87 27.1555L331.66 37.5399L328.57 31.8757H319.3L310.03 34.7078L302.82 39.428L303.85 47.9242L299.73 49.8123L289.43 61.1407L287.37 67.7489L295.61 73.4131L294.58 79.0773C287.37 83.7974 280.16 87.5736 272.95 92.2937V97.0139L279.13 101.734L291.49 104.566L285.31 105.51L278.1 109.286L283.25 116.839L286.34 120.615C291.49 119.671 295.61 119.671 300.76 119.671L306.94 120.615L314.15 127.223V131.943L318.27 135.719C320.33 141.383 322.39 147.048 324.45 152.712L326.51 156.488L323.42 164.04L325.48 165.928L328.57 164.984C330.63 167.816 333.72 170.648 335.78 172.536L329.6 168.76H326.51L325.48 172.536V178.201L328.57 181.033L331.66 180.089C333.72 179.145 334.75 177.257 336.81 176.313L335.78 181.977V184.809L331.66 187.641L328.57 196.137L330.63 198.969L329.6 203.689L333.72 209.354V215.018L334.75 218.794L339.9 226.346L341.96 232.01L345.05 234.842H351.23L355.35 239.563H359.47C360.5 236.731 361.53 232.954 362.56 230.122L360.5 223.514L365.65 218.794L366.68 215.018V210.298L368.74 206.522C371.83 205.578 373.89 204.633 376.98 203.689H379.04L385.22 198.969L389.34 191.417L392.43 188.585H395.52L403.76 185.753L412 180.089L419.21 173.48H415.09ZM1024.85 197.081L1016.61 196.137L1017.64 200.857L1015.58 198.969V195.193L1008.37 188.585L1003.22 184.809L1000.13 181.977L997.04 180.089L988.8 176.313H982.62L973.35 174.424L972.32 178.201L974.38 182.921L971.29 184.809L966.14 178.201L960.99 179.145L955.84 177.257H950.69L946.57 179.145L943.48 177.257V171.592L941.42 168.76L935.24 167.816L923.91 169.704L916.7 163.096L914.64 158.376L888.89 152.712L884.77 156.488L886.83 164.04L881.68 163.096L879.62 164.984L874.47 162.152L869.32 164.04L865.2 160.264L862.11 168.76L855.93 165.928L851.81 159.32L853.87 155.544L852.84 149.88L847.69 145.159H843.57L837.39 143.271V149.88L825.03 148.936L824 144.215L814.73 142.327L810.61 144.215L809.58 147.048L808.55 141.383L805.46 143.271L801.34 140.439L798.25 139.495L800.31 136.663L807.52 130.999L810.61 128.167L811.64 122.503L809.58 118.727L803.4 113.062H795.16L792.07 115.895L791.04 109.286L784.86 107.398L788.98 104.566L783.83 100.79L776.62 105.51L773.53 110.23L772.5 114.95H767.35L761.17 120.615L759.11 118.727L751.9 119.671L750.87 122.503L743.66 124.391L738.51 129.111H735.42L732.33 135.719L734.39 140.439L728.21 141.383H721L715.85 143.271V152.712L717.91 160.264L712.76 156.488H706.58L701.43 160.264L702.46 165.928L699.37 164.04L700.4 155.544L699.37 150.824H698.34L699.37 157.432L694.22 163.096L698.34 169.704L696.28 177.257L697.31 181.033L700.4 181.977L699.37 186.697L701.43 190.473L699.37 193.305L698.34 197.081L695.25 198.969L694.22 201.801L691.13 200.857L696.28 191.417L697.31 186.697L694.22 181.977L695.25 171.592L694.22 165.928L690.1 164.04L693.19 157.432L692.16 152.712L684.95 149.88L682.89 151.768L680.83 159.32L675.68 166.872V169.704L676.71 175.368L675.68 179.145L678.77 180.089V181.977L681.86 185.753L679.8 189.529L669.5 181.033L665.38 179.145L657.14 177.257L656.11 180.089L659.2 184.809L656.11 189.529L653.02 184.809L648.9 187.641H643.75L641.69 190.473L638.6 189.529L641.69 184.809H639.63C634.48 187.641 629.33 191.417 623.15 194.249L622.12 198.969L618 200.857L615.94 198.969V195.193L620.06 194.249L618 190.473L609.76 188.585L611.82 193.305L608.73 194.249L610.79 198.025L608.73 202.745L605.64 200.857H602.55L597.4 206.522L599.46 211.242L597.4 213.13L590.19 209.354L588.13 211.242L590.19 214.074V216.906L587.1 215.018L584.01 213.13V203.689L578.86 198.969L580.92 198.025L593.28 202.745L598.43 200.857L601.52 197.081V192.361L599.46 189.529L588.13 181.033L579.89 179.145L574.74 174.424L571.65 177.257L568.56 172.536L572.68 170.648L564.44 165.928L559.29 167.816H554.14L550.02 174.424H544.87L538.69 178.201C534.57 182.921 530.45 187.641 526.33 193.305C522.21 200.857 518.09 207.466 513.97 215.018L507.79 221.626L500.58 226.346L497.49 230.122L498.52 242.395L499.55 248.059L503.67 250.891L507.79 249.947L513.97 244.283L516.03 247.115L518.09 253.723L520.15 259.387L521.18 264.107H524.27L526.33 260.331H529.42L531.48 255.611L532.51 247.115L535.6 246.171L538.69 240.507L535.6 237.675L533.54 233.898L535.6 226.346L540.75 221.626L544.87 216.906V213.13L547.96 208.41L553.11 206.522L557.23 209.354V212.186L555.17 213.13L548.99 219.738L545.9 223.514L544.87 227.29L545.9 232.01L544.87 237.675L547.96 239.563L550.02 242.395L555.17 241.451L560.32 239.563H565.47L568.56 242.395L563.41 241.451H560.32L557.23 240.507L554.14 241.451L550.02 243.339V246.171L552.08 248.059L553.11 247.115C553.11 249.003 552.08 251.835 552.08 253.723H550.02L547.96 249.947L545.9 251.835L544.87 254.667V258.443L545.9 262.219L541.78 264.107L540.75 265.996H537.66V265.052L534.57 264.107C531.48 265.052 529.42 266.94 526.33 267.884L524.27 268.828L523.24 266.94L520.15 265.052L518.09 265.996L515 267.884V265.996L511.91 265.052V263.163L510.88 260.331L512.94 256.555L513.97 257.499L515 255.611L512.94 254.667V253.723L513.97 251.835V249.003L511.91 250.891L510.88 251.835H508.82L507.79 253.723V254.667V259.387L508.82 262.219V265.052L509.85 266.94L506.76 269.772L505.73 268.828H503.67V269.772H501.61L497.49 271.66L494.4 278.268L493.37 279.212C491.31 280.156 490.28 280.156 488.22 281.1L487.19 284.876L481.01 287.708L477.92 285.82L478.95 290.54L473.8 288.652L469.68 289.596V292.428L473.8 294.316L475.86 296.205L478.95 299.981V307.533L477.92 309.421H472.77H470.71L467.62 308.477H463.5L460.41 307.533L456.29 310.365L457.32 312.253V315.085V316.029L458.35 316.973V318.861L457.32 320.749V321.693L456.29 322.637V324.525L457.32 325.47H458.35V327.358V330.19H459.38H460.41L461.44 329.246L464.53 330.19L465.56 332.078L466.59 333.022H467.62L468.65 332.078L470.71 331.134C472.77 331.134 474.83 331.134 476.89 331.134L478.95 328.302L481.01 327.358L482.04 325.47L484.1 326.414L483.07 324.525L484.1 321.693L486.16 319.805V318.861L490.28 317.917L493.37 316.029V314.141V312.253L497.49 311.309L503.67 312.253L506.76 310.365H507.79L509.85 308.477L510.88 307.533L512.94 308.477H513.97L515 312.253L517.06 314.141L520.15 316.029L522.21 317.917H524.27L525.3 318.861L527.36 319.805L528.39 321.693H529.42C530.45 322.637 530.45 324.526 531.48 325.47L529.42 326.414L528.39 328.302V329.246H529.42L530.45 326.414H531.48V324.525L529.42 323.581L530.45 321.693L532.51 322.637L534.57 324.525L535.6 323.581V322.637L533.54 320.749C531.48 319.805 530.45 318.861 528.39 318.861L529.42 317.917L528.39 316.973H526.33L523.24 314.141L522.21 311.309L519.12 307.533L518.09 305.645V304.701V302.813L520.15 301.869L522.21 302.813C522.21 302.813 522.21 302.813 521.18 302.813V303.757L522.21 304.701L523.24 302.813L525.3 303.757V304.701L526.33 306.589H525.3L527.36 309.421L530.45 310.365L532.51 311.309C533.54 312.253 535.6 312.253 536.63 313.197L537.66 314.141H538.69V315.085V316.029V318.861V320.749L540.75 321.693V322.637V323.581C541.78 324.526 542.81 325.47 543.84 327.358V329.246L544.87 332.078L546.93 333.966H548.99L547.96 331.134H550.02L548.99 329.246L552.08 330.19V328.302L551.05 327.358L548.99 325.47L550.02 324.525L548.99 322.637L547.96 320.749L548.99 319.805L550.02 321.693H552.08L553.11 320.749L551.05 318.861L554.14 317.917H555.17H557.23V318.861L558.26 320.749C559.29 319.805 560.32 318.861 562.38 317.917H565.47L566.5 316.973L564.44 316.029V315.085L563.41 313.197L564.44 310.365L565.47 308.477L566.5 303.757H567.53L568.56 302.813V301.869L570.62 299.037L571.65 297.149L574.74 296.205V298.093L578.86 299.037L579.89 299.981L576.8 301.869V302.813L579.89 303.757L578.86 305.645L580.92 306.589L585.04 304.701L588.13 303.757L589.16 302.813H586.07L585.04 301.869V299.981L587.1 298.093H590.19L592.25 297.149H594.31L597.4 296.205V297.149L591.22 298.093L593.28 299.981L591.22 302.813L589.16 303.757L591.22 305.645L594.31 306.589L598.43 309.421L599.46 310.365H601.52L603.58 311.309L604.61 314.141V316.029L601.52 317.917H599.46L596.37 318.861L589.16 316.973L584.01 314.141H578.86L576.8 316.029L573.71 317.917H568.56L566.5 320.749H562.38L559.29 323.581L561.35 325.47L560.32 328.302L562.38 330.19L564.44 333.022H567.53L570.62 334.91H572.68L573.71 333.966H576.8L578.86 335.854H582.98L585.04 333.966L587.1 334.91H589.16L588.13 335.854H587.1L586.07 336.798V339.63L585.04 341.518L584.01 344.35V345.294L582.98 347.182L581.95 349.07L580.92 350.014L579.89 350.958H577.83L575.77 350.014L574.74 350.958L573.71 349.07H571.65H569.59L568.56 350.014L566.5 351.902C564.44 350.958 562.38 350.014 559.29 350.014H555.17L554.14 349.07H551.05L550.02 348.126H548.99L547.96 347.182L544.87 345.294H542.81L540.75 347.182L539.72 349.07L540.75 351.902L539.72 352.846L538.69 353.79L535.6 351.902L531.48 350.958L528.39 350.014L527.36 347.182L523.24 346.238L521.18 345.294H520.15L517.06 344.35H515V342.462H513.97L512.94 340.574L515 338.686V335.854H513.97V333.966L515 332.078V331.134L512.94 332.078V330.19H510.88L507.79 331.134H505.73L504.7 332.078H501.61L498.52 333.022L497.49 332.078C494.4 332.078 491.31 332.078 488.22 333.022L485.13 333.966L483.07 335.854L479.98 336.798L476.89 338.686H475.86L472.77 337.742H469.68L468.65 335.854H466.59L465.56 337.742L463.5 341.518L461.44 342.462L458.35 344.35L456.29 346.238V348.126L455.26 350.958L456.29 354.735L453.2 356.623L452.17 357.567L450.11 359.455H447.02L445.99 360.399L443.93 364.175L441.87 365.119L440.84 367.007V368.895L439.81 370.783H438.78L436.72 372.671L435.69 374.559V375.503L434.66 377.391L433.63 378.335C433.63 379.279 433.63 380.223 433.63 381.167L434.66 382.111L435.69 383.055V383.999V384.944V387.776V390.608V392.496V394.384L434.66 395.328L433.63 397.216L432.6 398.16L433.63 399.104L434.66 400.992V401.936V403.824V404.768L435.69 405.712L436.72 406.656H437.75L438.78 407.6H439.81V408.544V409.488L440.84 410.432H441.87L442.9 411.376L443.93 413.264V415.153V416.097L444.96 417.985L447.02 418.929H448.05L450.11 420.817L452.17 422.705L455.26 424.593L458.35 425.537H459.38H460.41C462.47 424.593 463.5 424.593 465.56 423.649H468.65H470.71L472.77 424.593H473.8L475.86 425.537L478.95 424.593L481.01 423.649L485.13 421.761L487.19 420.817H489.25C491.31 420.817 492.34 420.817 494.4 420.817L496.46 422.705L497.49 424.593L498.52 426.481H500.58L501.61 425.537H502.64L505.73 424.593V425.537H506.76L507.79 426.481H508.82L509.85 428.369V430.257L508.82 433.089H509.85C509.85 434.033 508.82 435.921 508.82 436.865V439.697V440.641L510.88 443.474L512.94 445.362L516.03 448.194L518.09 451.026L519.12 452.914V453.858V454.802L520.15 456.69C520.15 458.578 521.18 459.522 521.18 461.41L520.15 462.354V463.298C520.15 464.242 521.18 465.186 521.18 466.13L522.21 467.074V468.962V470.85L521.18 471.794L519.12 473.682L518.09 474.626L517.06 477.459V478.403L516.03 481.235V484.067C516.03 485.011 516.03 486.899 516.03 487.843L518.09 490.675L519.12 492.563L520.15 496.339L521.18 498.227L522.21 499.171V501.059V504.836L523.24 509.556L524.27 511.444L525.3 514.276L526.33 516.164L528.39 518.052C530.45 520.884 531.48 524.66 533.54 527.492V530.324L532.51 531.268L533.54 533.156V535.045V535.989L534.57 537.877H535.6L536.63 538.821H537.66L539.72 537.877L541.78 536.933L544.87 535.989H545.9H547.96L551.05 536.933L552.08 535.989H554.14V535.045H555.17L558.26 534.101L560.32 532.212C562.38 530.324 563.41 528.436 565.47 527.492L567.53 525.604L568.56 523.716L569.59 521.828C570.62 520.884 571.65 520.884 571.65 519.94L576.8 515.22V512.388L577.83 510.5V508.612H576.8V507.668L577.83 506.724C579.89 505.78 581.95 504.836 584.01 503.892L585.04 502.947V502.003L584.01 501.059V500.115V497.283V496.339L582.98 494.451L581.95 492.563V490.675L582.98 489.731L585.04 487.843L586.07 486.899L589.16 484.067C591.22 483.123 593.28 482.179 595.34 481.235L597.4 479.347L598.43 477.459L599.46 475.571V474.626V470.85V468.018V465.186V464.242L598.43 463.298L597.4 461.41L596.37 459.522V458.578V457.634L597.4 455.746V454.802L595.34 453.858V451.97L596.37 449.138H597.4L598.43 447.25L599.46 446.306V444.418H600.49L601.52 443.474L603.58 442.529L604.61 441.585L605.64 440.641L608.73 437.809L611.82 435.921L615.94 433.089L619.03 431.201C621.09 429.313 623.15 426.481 625.21 424.593L627.27 420.817C628.3 418.929 629.33 417.041 630.36 414.208L631.39 411.376L632.42 410.432V409.488V407.6V406.656H631.39H628.3H627.27H626.24C625.21 406.656 624.18 406.656 624.18 406.656L623.15 407.6H622.12L620.06 408.544H616.97L613.88 409.488H612.85L611.82 408.544L610.79 407.6C609.76 407.6 609.76 406.656 608.73 406.656L610.79 405.712V404.768L607.7 403.824L606.67 402.88C605.64 401.936 603.58 400.048 602.55 399.104L597.4 396.272L595.34 395.328V392.496L593.28 389.664C592.25 388.72 591.22 388.72 590.19 387.776L589.16 383.999V381.167L590.19 380.223L589.16 377.391V376.447L586.07 373.615V371.727L587.1 370.783L584.01 367.951L582.98 366.063L581.95 364.175L579.89 359.455L577.83 356.623L575.77 354.735L577.83 359.455C578.86 360.399 578.86 361.343 579.89 361.343L580.92 360.399L581.95 358.511L582.98 356.623L584.01 355.679V356.623V357.567V359.455H585.04C586.07 361.343 587.1 362.287 588.13 364.175L589.16 366.063L590.19 367.007L591.22 368.895V369.839L592.25 371.727L594.31 372.671L595.34 373.615L597.4 376.447V378.335V380.223L599.46 383.055H600.49L602.55 384.944L603.58 386.832L604.61 388.72L605.64 389.664V390.608L606.67 391.552V392.496V393.44V394.384V395.328H605.64L606.67 396.272L607.7 398.16V399.104V400.992L608.73 402.88H610.79H611.82H612.85V401.936H613.88L614.91 400.992H615.94H618L620.06 400.048L622.12 399.104H623.15H624.18L626.24 397.216L630.36 396.272L633.45 395.328V394.384L634.48 393.44L636.54 392.496H637.57L639.63 391.552H641.69L642.72 390.608V389.664L643.75 388.72H645.81L646.84 387.776V386.832L648.9 385.888H649.93V383.999V382.111L650.96 381.167H651.99L653.02 379.279L654.05 378.335C654.05 377.391 655.08 376.447 655.08 375.503V374.559H654.05C653.02 373.615 653.02 372.671 651.99 371.727L649.93 370.783H647.87L645.81 369.839L644.78 367.951V366.063V365.119V364.175L643.75 365.119C641.69 367.007 639.63 368.895 637.57 370.783C636.54 370.783 634.48 370.783 633.45 370.783H631.39V369.839L630.36 368.895L631.39 367.007V365.119L630.36 364.175H629.33L628.3 366.063V367.951V367.007V366.063V367.007V366.063V365.119V364.175L626.24 363.231V362.287L625.21 361.343C624.18 359.455 624.18 358.511 623.15 356.623V355.679L621.09 354.735H623.15L624.18 353.79L626.24 354.735L628.3 353.79L630.36 357.567L632.42 360.399L635.51 361.343L638.6 363.231L641.69 364.175L644.78 362.287L646.84 361.343L647.87 362.287L648.9 366.063H651.99C655.08 367.007 658.17 367.007 660.23 367.951H664.35H669.5L674.65 367.007L676.71 368.895L677.74 370.783L679.8 371.727L682.89 374.559L683.92 375.503L682.89 376.447L687.01 380.223H689.07L693.19 378.335L694.22 381.167V384.944C695.25 387.776 695.25 390.608 696.28 393.44L699.37 397.216V399.104L700.4 402.88L701.43 405.712L702.46 406.656C703.49 408.544 704.52 411.376 704.52 413.264L707.61 416.097L708.64 415.153L709.67 413.264L712.76 412.32L711.73 411.376L712.76 409.488H713.79V404.768L714.82 401.936V400.048L713.79 396.272L714.82 394.384H715.85L718.94 393.44L719.97 392.496V391.552L723.06 389.664L725.12 387.776L728.21 384.944L732.33 383.055L733.36 381.167V379.279L736.45 378.335H738.51V377.391H739.54H740.57V376.447L741.6 377.391L742.63 375.503V374.559H745.72L746.75 376.447L747.78 377.391V379.279L748.81 381.167L750.87 383.055H752.93V383.999L754.99 386.832L756.02 389.664L754.99 393.44L757.05 394.384H759.11L762.2 392.496L764.26 391.552L765.29 393.44L766.32 397.216L767.35 400.048L768.38 400.992V403.824L769.41 405.712L768.38 407.6V409.488L767.35 412.32V414.208L768.38 416.097V414.208C769.41 415.153 770.44 416.097 771.47 417.041V417.985L772.5 418.929L773.53 419.873V421.761L774.56 423.649V425.537L776.62 427.425V428.369L779.71 430.257L782.8 432.145H784.86V431.201L781.77 430.257H780.74V428.369V427.425V426.481V424.593L779.71 422.705L777.65 420.817H776.62L775.59 419.873H773.53L772.5 417.985L771.47 416.097L770.44 413.264H768.38V411.376C769.41 409.488 770.44 407.6 770.44 404.768V401.936H772.5V403.824H774.56L777.65 404.768L778.68 407.6L779.71 408.544H781.77L783.83 410.432L782.8 412.32L783.83 414.208L786.92 411.376L788.98 409.488L792.07 407.6L794.13 405.712V400.992L793.1 396.272L791.04 394.384L792.07 392.496C790.01 390.608 788.98 387.776 786.92 385.888L787.95 383.999L790.01 381.167L794.13 378.335H795.16L799.28 379.279L798.25 380.223L799.28 382.111H801.34L802.37 379.279H805.46L809.58 377.391L811.64 376.447L812.67 377.391L814.73 376.447H817.82C820.91 374.559 822.97 372.671 826.06 371.727L829.15 367.951C830.18 365.119 832.24 363.231 833.27 361.343H835.33L836.36 358.511V355.679L834.3 354.735L833.27 352.846L835.33 351.902V350.014L833.27 347.182L831.21 344.35L830.18 341.518L827.09 339.63L828.12 337.742L831.21 335.854L832.24 333.966L836.36 333.022V331.134H834.3L832.24 330.19L829.15 333.022L827.09 332.078V330.19L825.03 329.246L820.91 326.414L821.94 324.525H825.03L827.09 322.637L830.18 319.805L832.24 318.861L833.27 320.749L831.21 322.637L832.24 323.581L831.21 325.47L834.3 324.525L836.36 322.637L840.48 321.693L841.51 322.637H843.57V323.581V326.414V327.358H842.54L841.51 329.246L842.54 330.19H843.57V331.134H844.6V330.19L845.63 331.134L847.69 333.966L845.63 334.91L846.66 338.686L845.63 341.518V343.406H848.72L850.78 342.462L853.87 341.518L854.9 339.63V335.854V331.134L852.84 326.414L850.78 324.525L849.75 323.581V321.693L850.78 320.749L852.84 319.805L853.87 318.861V317.917L854.9 316.973V314.141L855.93 313.197L856.96 312.253H857.99V311.309L862.11 308.477L864.17 310.365H866.23L870.35 308.477C873.44 304.701 876.53 300.925 879.62 298.093L880.65 295.261L884.77 289.596L885.8 282.988V278.268L887.86 273.548V269.772L885.8 266.94H882.71L880.65 268.828L877.56 267.884L876.53 265.052L872.41 264.107C879.62 257.499 885.8 249.947 893.01 243.339L902.28 241.451L911.55 242.395L914.64 239.563L918.76 240.507V244.283L922.88 243.339L929.06 242.395L927 239.563L934.21 230.122L941.42 228.234L943.48 234.842L946.57 232.01L950.69 228.234L952.75 223.514L955.84 222.57L953.78 232.01L948.63 236.731C945.54 240.507 941.42 244.283 938.33 248.059L934.21 249.003V250.891L932.15 253.723L931.12 260.331C932.15 265.996 933.18 271.66 934.21 276.38L935.24 279.212L939.36 275.436L940.39 270.716L944.51 269.772L945.54 265.052L947.6 264.107L950.69 263.163L949.66 261.275L950.69 257.499H953.78V250.891L950.69 249.947V248.059L953.78 243.339L954.81 239.563L958.93 240.507L962.02 238.619L963.05 240.507L970.26 236.731L974.38 240.507L975.41 237.675C978.5 235.787 981.59 232.954 983.65 230.122L985.71 229.178L993.95 225.402L999.1 226.346L1000.13 224.458V221.626L999.1 219.738L997.04 215.018L993.95 212.186H998.07L1001.16 209.354L1002.19 208.41L1003.22 206.522L1002.19 203.689L1005.28 201.801L1004.25 204.633L1006.31 206.522L1009.4 205.578L1012.49 206.522L1013.52 209.354L1017.64 211.242L1019.7 213.13H1022.79L1023.82 212.186V206.522L1028.97 205.578L1030 203.689L1024.85 197.081ZM638.6 319.805L635.51 318.861L634.48 321.693H636.54L635.51 323.581L637.57 324.525V328.302L638.6 330.19V331.134L634.48 332.078L630.36 331.134L628.3 329.246L625.21 328.302L624.18 325.47V323.581L625.21 322.637V321.693V318.861H627.27L626.24 317.917H625.21L624.18 315.085C622.12 313.197 621.09 311.309 619.03 309.421V306.589L618 305.645L621.09 301.869L624.18 300.925L625.21 299.037L628.3 298.093L631.39 296.205L633.45 297.149H636.54V299.981L635.51 303.757L633.45 302.813L631.39 303.757V306.589H628.3V307.533L630.36 308.477L631.39 311.309L634.48 312.253L635.51 313.197L634.48 315.085V316.029L635.51 317.917V315.085L637.57 314.141L638.6 316.973L640.66 318.861L638.6 319.805Z" fill="#144CAA"/>
</svg>
