<svg width="335" height="264" viewBox="0 0 335 264" fill="none" xmlns="http://www.w3.org/2000/svg">
<ellipse cx="167.194" cy="131.567" rx="148.738" ry="76.801" transform="rotate(24.5 167.194 131.567)" fill="#06378B"/>
<rect x="107.363" y="9.89478" width="133" height="247" rx="22.5" fill="#06378B" stroke="#407CD5" stroke-width="3"/>
<path d="M142.863 11.3948L147.603 18.1426C149.475 20.8082 152.529 22.3948 155.786 22.3948H193.636C197.164 22.3948 200.43 20.5363 202.232 17.5039L205.863 11.3948" stroke="#407CD5" stroke-width="3"/>
<rect x="126.5" y="87.5" width="90" height="22" rx="4.5" fill="#06378B" stroke="#407CD5" stroke-width="3"/>
<rect x="126.5" y="205.5" width="90" height="22" rx="4.5" fill="#06378B" stroke="#407CD5" stroke-width="3"/>
<rect x="126.5" y="47.5" width="90" height="22" rx="4.5" fill="#06378B" stroke="#407CD5" stroke-width="3"/>
<rect x="126.5" y="164.5" width="90" height="22" rx="4.5" fill="#06378B" stroke="#407CD5" stroke-width="3"/>
<rect x="126.5" y="124.5" width="90" height="23" rx="4.5" fill="#06378B" stroke="#407CD5" stroke-width="3"/>
<path d="M54.5 142C54.5 139.515 56.5147 137.5 59 137.5H167.863C170.349 137.5 172.363 139.515 172.363 142V211.054C172.363 213.54 170.349 215.554 167.863 215.554H59C56.5147 215.554 54.5 213.54 54.5 211.054V142Z" fill="#06378B" stroke="#407CD5" stroke-width="3"/>
<path d="M56.7188 139.078L109.548 180.789C112.096 182.801 115.693 182.796 118.237 180.778L170.144 139.591" stroke="#407CD5" stroke-width="3"/>
<path d="M96.2323 170.884L56.8164 214.614M131.562 170.884L170.76 214.141" stroke="#407CD5" stroke-width="3"/>
<circle cx="94" cy="41" r="2" fill="#407CD4"/>
<circle cx="82" cy="42" r="2" fill="#407CD4"/>
<circle cx="70.4004" cy="45" r="2" fill="#407CD4"/>
<circle cx="59" cy="48" r="2" fill="#407CD4"/>
<circle cx="49" cy="54" r="2" fill="#407CD4"/>
<circle cx="40" cy="61" r="2" fill="#407CD4"/>
<circle cx="34" cy="71" r="2" fill="#407CD4"/>
<circle cx="31" cy="82" r="2" fill="#407CD4"/>
<circle cx="31" cy="93" r="2" fill="#407CD4"/>
<circle cx="33" cy="105" r="2" fill="#407CD4"/>
<circle cx="38" cy="115" r="2" fill="#407CD4"/>
<circle cx="44" cy="126" r="2" fill="#407CD4"/>
<circle cx="51" cy="135" r="2" fill="#407CD4"/>
<circle cx="241" cy="223" r="2" transform="rotate(-180 241 223)" fill="#407CD4"/>
<circle cx="253" cy="222" r="2" transform="rotate(-180 253 222)" fill="#407CD4"/>
<circle cx="264.6" cy="219" r="2" transform="rotate(-180 264.6 219)" fill="#407CD4"/>
<circle cx="276" cy="216" r="2" transform="rotate(-180 276 216)" fill="#407CD4"/>
<circle cx="286" cy="210" r="2" transform="rotate(-180 286 210)" fill="#407CD4"/>
<circle cx="295" cy="203" r="2" transform="rotate(-180 295 203)" fill="#407CD4"/>
<circle cx="301" cy="193" r="2" transform="rotate(-180 301 193)" fill="#407CD4"/>
<circle cx="304" cy="182" r="2" transform="rotate(-180 304 182)" fill="#407CD4"/>
<circle cx="304" cy="171" r="2" transform="rotate(-180 304 171)" fill="#407CD4"/>
<circle cx="302" cy="159" r="2" transform="rotate(-180 302 159)" fill="#407CD4"/>
<circle cx="297" cy="149" r="2" transform="rotate(-180 297 149)" fill="#407CD4"/>
<circle cx="291" cy="138" r="2" transform="rotate(-180 291 138)" fill="#407CD4"/>
<circle cx="284" cy="128" r="2" transform="rotate(-180 284 128)" fill="#407CD4"/>
<circle cx="276" cy="119" r="2" transform="rotate(-180 276 119)" fill="#407CD4"/>
<circle cx="268" cy="111" r="2" transform="rotate(-180 268 111)" fill="#407CD4"/>
<circle cx="259" cy="102" r="2" transform="rotate(-180 259 102)" fill="#407CD4"/>
<circle cx="248" cy="92" r="2" transform="rotate(-180 248 92)" fill="#407CD4"/>
</svg>
