<svg width="277" height="248" viewBox="0 0 277 248" fill="none" xmlns="http://www.w3.org/2000/svg">
<circle cx="65" cy="42" r="2" fill="#407CD4"/>
<circle cx="53" cy="43" r="2" fill="#407CD4"/>
<circle cx="41.4004" cy="46" r="2" fill="#407CD4"/>
<circle cx="30" cy="49" r="2" fill="#407CD4"/>
<circle cx="20" cy="55" r="2" fill="#407CD4"/>
<circle cx="11" cy="62" r="2" fill="#407CD4"/>
<circle cx="5" cy="72" r="2" fill="#407CD4"/>
<circle cx="2" cy="83" r="2" fill="#407CD4"/>
<circle cx="2" cy="94" r="2" fill="#407CD4"/>
<circle cx="4" cy="106" r="2" fill="#407CD4"/>
<circle cx="9" cy="116" r="2" fill="#407CD4"/>
<circle cx="15" cy="127" r="2" fill="#407CD4"/>
<circle cx="22" cy="136" r="2" fill="#407CD4"/>
<circle cx="29" cy="145" r="2" fill="#407CD4"/>
<circle cx="38" cy="153" r="2" fill="#407CD4"/>
<circle cx="47" cy="162" r="2" fill="#407CD4"/>
<circle cx="56" cy="169" r="2" fill="#407CD4"/>
<circle cx="66" cy="176" r="2" fill="#407CD4"/>
<circle cx="76" cy="182" r="2" fill="#407CD4"/>
<circle cx="85" cy="187" r="2" fill="#407CD4"/>
<circle cx="94" cy="191" r="2" fill="#407CD4"/>
<circle cx="212" cy="224" r="2" transform="rotate(-180 212 224)" fill="#407CD4"/>
<circle cx="199" cy="223" r="2" transform="rotate(-180 199 223)" fill="#407CD4"/>
<circle cx="224" cy="223" r="2" transform="rotate(-180 224 223)" fill="#407CD4"/>
<circle cx="235.6" cy="220" r="2" transform="rotate(-180 235.6 220)" fill="#407CD4"/>
<circle cx="247" cy="217" r="2" transform="rotate(-180 247 217)" fill="#407CD4"/>
<circle cx="257" cy="211" r="2" transform="rotate(-180 257 211)" fill="#407CD4"/>
<circle cx="266" cy="204" r="2" transform="rotate(-180 266 204)" fill="#407CD4"/>
<circle cx="272" cy="194" r="2" transform="rotate(-180 272 194)" fill="#407CD4"/>
<circle cx="275" cy="183" r="2" transform="rotate(-180 275 183)" fill="#407CD4"/>
<circle cx="275" cy="172" r="2" transform="rotate(-180 275 172)" fill="#407CD4"/>
<circle cx="273" cy="160" r="2" transform="rotate(-180 273 160)" fill="#407CD4"/>
<circle cx="268" cy="150" r="2" transform="rotate(-180 268 150)" fill="#407CD4"/>
<circle cx="262" cy="139" r="2" transform="rotate(-180 262 139)" fill="#407CD4"/>
<circle cx="255" cy="129" r="2" transform="rotate(-180 255 129)" fill="#407CD4"/>
<circle cx="247" cy="120" r="2" transform="rotate(-180 247 120)" fill="#407CD4"/>
<circle cx="239" cy="112" r="2" transform="rotate(-180 239 112)" fill="#407CD4"/>
<circle cx="230" cy="104" r="2" transform="rotate(-180 230 104)" fill="#407CD4"/>
<circle cx="141.5" cy="91.5" r="78" fill="#06378B" stroke="#407CD5" stroke-width="3"/>
<circle cx="141" cy="89" r="52.5" fill="#06378B" stroke="#407CD5" stroke-width="3"/>
<circle cx="140" cy="89" r="30.5" fill="#06378B" stroke="#407CD5" stroke-width="3"/>
<path d="M131 100L101 174H178L149 100H131Z" fill="#06378B"/>
<path d="M90.5 222H188.5L101 193.5H177.5L113 164.5H164.717C165.744 164.5 166.104 163.138 165.211 162.631L124.59 139.54C123.678 139.022 124.077 137.628 125.125 137.672L157 139" stroke="#407CD5" stroke-width="3"/>
<path d="M138.5 93L79 246.5C79.5 248.5 82 247.5 82 247.5L139.5 98L197 247.5C197 247.5 199 249 200 246.5L141 93H138.5Z" fill="#407CD5"/>
<circle cx="140" cy="89" r="10.5" fill="#06378B" stroke="#407CD5" stroke-width="3"/>
<path d="M32.8448 79.7517V78.2517H31.3448C21.4894 78.2517 13.5 70.2623 13.5 60.4068V23C13.5 11.1259 23.1259 1.5 35 1.5H87C99.4264 1.5 109.5 11.5736 109.5 24V56.7517C109.5 68.6258 99.8741 78.2517 88 78.2517H58.6552H58.1797L57.791 78.5256L32.8448 96.1077V79.7517Z" fill="#06378B" stroke="#407CD5" stroke-width="3"/>
<circle cx="44.9997" cy="39.3783" r="3.41379" fill="#407CD5"/>
<circle cx="61.4997" cy="39.3783" r="3.41379" fill="#407CD5"/>
<circle cx="77.9997" cy="39.3783" r="3.41379" fill="#407CD5"/>
</svg>
