<svg width="93" height="98" viewBox="0 0 93 98" fill="none" xmlns="http://www.w3.org/2000/svg">
<g clip-path="url(#clip0)">
<path d="M83.5698 95.4287H44.3555V98.0001H83.5698V95.4287Z" fill="#9BA7BF"/>
<path d="M43.7143 95.4287H41.1429V98.0001H43.7143V95.4287ZM38.5714 95.4287H36V98.0001H38.5714V95.4287ZM33.4286 95.4287H30.8571V98.0001H33.4286V95.4287ZM28.2857 95.4287H25.7143V98.0001H28.2857V95.4287ZM23.1429 95.4287H20.5714V98.0001H23.1429V95.4287ZM18 95.4287H15.4286V98.0001H18V95.4287ZM12.8571 95.4287H10.2857V98.0001H12.8571V95.4287ZM7.71429 95.4287H5.14286V98.0001H7.71429V95.4287ZM2.57143 95.4287H0V98.0001H2.57143V95.4287Z" fill="#9BA7BF"/>
<path d="M83.5725 96.7144C86.4129 96.7144 88.7154 94.4119 88.7154 91.5716C88.7154 88.7312 86.4129 86.4287 83.5725 86.4287C80.7322 86.4287 78.4297 88.7312 78.4297 91.5716C78.4297 94.4119 80.7322 96.7144 83.5725 96.7144Z" stroke="#155FCD" stroke-width="2"/>
<path d="M45 98C20.1472 98 0 77.8528 0 53C0 31.6886 14.8145 13.8373 34.7071 9.18262L35.0052 11.7548C16.1241 16.3117 2.57143 33.2882 2.57143 53C2.57143 76.3332 21.4064 95.2673 44.7019 95.4276L45 98Z" fill="#9BA7BF"/>
<path d="M56.6806 9.53125C75.8705 14.6749 90 32.1876 90 53.0004C90 77.8532 69.8528 98.0004 45 98.0004" stroke="#9BA7BF" stroke-width="4" stroke-dasharray="2 2"/>
<path d="M45.0006 72.2853C34.3494 72.2853 25.7148 63.6508 25.7148 52.9996C25.7148 42.3484 34.3494 33.7139 45.0006 33.7139C55.6518 33.7139 64.2863 42.3484 64.2863 52.9996C64.2863 63.6508 55.6518 72.2853 45.0006 72.2853Z" stroke="#9BA7BF" stroke-width="4" stroke-dasharray="2 2"/>
<path d="M45.9983 13.5718C48.8386 13.5718 51.1412 11.2693 51.1412 8.42899C51.1412 5.58867 48.8386 3.28613 45.9983 3.28613C43.158 3.28613 40.8555 5.58867 40.8555 8.42899C40.8555 11.2693 43.158 13.5718 45.9983 13.5718Z" stroke="#155FCD" stroke-width="2"/>
</g>
<defs>
<clipPath id="clip0">
<rect width="93" height="98" fill="white"/>
</clipPath>
</defs>
</svg>
