<svg width="70" height="70" viewBox="0 0 70 70" fill="none" xmlns="http://www.w3.org/2000/svg">
<path d="M35 60C21.1929 60 10 48.8071 10 35C10 21.1929 21.1929 10 35 10C48.8071 10 60 21.1929 60 35C60 48.8071 48.8071 60 35 60Z" stroke="#9BA7BF" stroke-width="4" stroke-dasharray="2 2"/>
<path fill-rule="evenodd" clip-rule="evenodd" d="M2 19.988L0 21.9805V10.9973C0 4.92366 4.91714 0 11.004 0H22.064L20.0564 2H11.004C6.025 2 2 6.02494 2 10.9973V19.988ZM50.1889 2L48.1714 0H58.9931C65.072 0 70 4.92494 70 10.9968V21.6387L68 19.6561V10.9968C68 6.02936 63.9673 2 58.9931 2H50.1889ZM68 50.1139L70 48.1143V58.9983C70 65.0744 65.0652 70 58.9969 70H48.1104L50.1107 68H58.9969C63.9639 68 68 63.9665 68 58.9983V50.1139ZM20.0807 68L22.1226 70H10.9997C4.92474 70 0 65.0818 0 59.0046V48.3311L2 50.29V59.0046C2 63.9753 6.02742 68 10.9997 68H20.0807Z" fill="#9BA7BF"/>
<path d="M35 48C42.1797 48 48 42.1797 48 35C48 27.8203 42.1797 22 35 22C27.8203 22 22 27.8203 22 35C22 42.1797 27.8203 48 35 48ZM35 50C26.7157 50 20 43.2843 20 35C20 26.7157 26.7157 20 35 20C43.2843 20 50 26.7157 50 35C50 43.2843 43.2843 50 35 50Z" fill="#155FCD"/>
<path d="M34 29V41H36V29H34Z" fill="#155FCD"/>
<path d="M11 62C12.6569 62 14 60.6569 14 59C14 57.3431 12.6569 56 11 56C9.34315 56 8 57.3431 8 59C8 60.6569 9.34315 62 11 62ZM11 64C8.23858 64 6 61.7614 6 59C6 56.2386 8.23858 54 11 54C13.7614 54 16 56.2386 16 59C16 61.7614 13.7614 64 11 64Z" fill="#155FCD"/>
<path d="M59 14C60.6569 14 62 12.6569 62 11C62 9.34315 60.6569 8 59 8C57.3431 8 56 9.34315 56 11C56 12.6569 57.3431 14 59 14ZM59 16C56.2386 16 54 13.7614 54 11C54 8.23858 56.2386 6 59 6C61.7614 6 64 8.23858 64 11C64 13.7614 61.7614 16 59 16Z" fill="#155FCD"/>
</svg>
