<svg width="151" height="106" viewBox="0 0 151 106" fill="none" xmlns="http://www.w3.org/2000/svg">
<rect x="47" y="2" width="102" height="102" rx="9" stroke="#9BA7BF" stroke-width="2.4" stroke-dasharray="2 2"/>
<path d="M54 22C54 22 54 18 54 14.5C54 11 56 9 59.5 9C63 9 67 9 67 9" stroke="#9BA7BF" stroke-width="2.3"/>
<path d="M54 84C54 84 54 88 54 91.5C54 95 56 97 59.5 97C63 97 67 97 67 97" stroke="#9BA7BF" stroke-width="2.3"/>
<path d="M142 22C142 22 142 18 142 14.5C142 11 140 9 136.5 9C133 9 129 9 129 9" stroke="#9BA7BF" stroke-width="2.3"/>
<path d="M142 84C142 84 142 88 142 91.5C142 95 140 97 136.5 97C133 97 129 97 129 97" stroke="#9BA7BF" stroke-width="2.3"/>
<path d="M78 33V73H118V33H78ZM79.6864 71.4V55L92.1112 64.92L92.3053 65.08L86.5459 71.4H79.6864ZM116.314 71.4H88.4873L105.183 53L116.314 63V71.4ZM116.314 61L105.054 50.92L93.2113 63.96L79.6864 53.08V34.6H116.314V61Z" fill="#1357BC" stroke="#1357BC" stroke-width="0.7"/>
<path d="M92.0397 51.2402C95.0201 51.2402 97.4515 48.7602 97.4515 45.7202C97.4515 42.6802 95.0201 40.2002 92.0397 40.2002C89.0593 40.2002 86.6279 42.6802 86.6279 45.7202C86.6279 48.7602 89.0593 51.2402 92.0397 51.2402ZM92.0397 41.8002C94.1573 41.8002 95.8828 43.5602 95.8828 45.7202C95.8828 47.8802 94.1573 49.6402 92.0397 49.6402C89.922 49.6402 88.1966 47.8802 88.1966 45.7202C88.1966 43.5602 89.922 41.8002 92.0397 41.8002Z" fill="#1357BC" stroke="#1357BC" stroke-width="0.7"/>
<path d="M22.4257 80.8634C22.4257 78.733 20.6929 77 18.5626 77C16.4325 77 14.6992 78.733 14.6992 80.8634C14.6992 82.9934 16.4323 84.7265 18.5626 84.7265C20.6927 84.7265 22.4257 82.9934 22.4257 80.8634ZM18.5626 78.3392C19.9541 78.3392 21.0865 79.4716 21.0865 80.8634C21.0865 82.2549 19.9544 83.3873 18.5626 83.3873C17.1708 83.3873 16.0384 82.2551 16.0384 80.8634C16.0384 79.4716 17.1708 78.3392 18.5626 78.3392Z" fill="#1357BC" stroke="#1357BC" stroke-width="0.6"/>
<path d="M11 91.3319V93.1317H26.1314V91.3319C26.1314 88.4275 23.7684 86.0645 20.8639 86.0645H16.2673C13.363 86.0645 11 88.4275 11 91.3319ZM16.2675 87.4037H20.8641C23.0301 87.4037 24.7924 89.166 24.7924 91.3319V91.7925H12.3392V91.3319C12.3392 89.166 14.1013 87.4037 16.2675 87.4037Z" fill="#1357BC" stroke="#1357BC" stroke-width="0.6"/>
<path d="M18 104.026C27.931 104.026 36 95.9515 36 86.0132C36 76.0749 27.931 68 18 68V69.8157C26.9284 69.8157 34.1857 77.0783 34.1857 86.0132C34.1857 94.9481 26.9284 102.211 18 102.211C9.07162 102.211 1.81432 94.9481 1.81432 86.0132H0C0 95.9515 8.06896 104.026 18 104.026Z" fill="#9BA7BF"/>
<ellipse cx="1.42393" cy="83.5792" rx="0.947368" ry="0.973684" fill="#9BA7BF"/>
<ellipse cx="2.03819" cy="80.9014" rx="0.947368" ry="0.973684" fill="#9BA7BF"/>
<ellipse cx="3.03038" cy="78.2237" rx="0.947368" ry="0.973684" fill="#9BA7BF"/>
<ellipse cx="4.45127" cy="75.9356" rx="0.947368" ry="0.973684" fill="#9BA7BF"/>
<ellipse cx="6.15831" cy="73.8419" rx="0.947368" ry="0.973684" fill="#9BA7BF"/>
<ellipse cx="8.24131" cy="71.8946" rx="0.947368" ry="0.973684" fill="#9BA7BF"/>
<ellipse cx="10.4239" cy="70.629" rx="0.947368" ry="0.973684" fill="#9BA7BF"/>
<ellipse cx="13.0255" cy="69.6553" rx="0.947368" ry="0.973684" fill="#9BA7BF"/>
<ellipse cx="15.6349" cy="68.9737" rx="0.947368" ry="0.973684" fill="#9BA7BF"/>
</svg>
