<svg width="248" height="491" viewBox="0 0 248 491" fill="none" xmlns="http://www.w3.org/2000/svg">
<path d="M124.5 304C92.1913 304 66 277.809 66 245.5C66 213.191 92.1913 187 124.5 187C156.809 187 183 213.191 183 245.5C183 277.809 156.809 304 124.5 304Z" stroke="#9BA7BF" stroke-width="4" stroke-dasharray="2 2"/>
<path d="M47 207C47 207 47 192.2 47 189.425C47 186.65 47 180.175 51.7436 175.55C56.4872 170.925 61.2308 170 65.9744 170C70.7179 170 84 170 84 170" stroke="#9BA7BF" stroke-width="3"/>
<path d="M47 286C47 286 47 300.8 47 303.575C47 306.35 47 312.825 51.7436 317.45C56.4872 322.075 61.2308 323 65.9744 323C70.7179 323 84 323 84 323" stroke="#9BA7BF" stroke-width="3"/>
<path d="M201 207C201 207 201 192.2 201 189.425C201 186.65 201 180.175 196.256 175.55C191.513 170.925 186.769 170 182.026 170C177.282 170 164 170 164 170" stroke="#9BA7BF" stroke-width="3"/>
<path d="M201 286C201 286 201 300.8 201 303.575C201 306.35 201 312.825 196.256 317.45C191.513 322.075 186.769 323 182.026 323C177.282 323 164 323 164 323" stroke="#9BA7BF" stroke-width="3"/>
<circle cx="124" cy="246" r="45.5" stroke="#1357BC" stroke-width="3"/>
<path fill-rule="evenodd" clip-rule="evenodd" d="M59.1328 8.20703H64.4101H184.259H189.536C189.536 8.20703 184.784 8.73499 184.784 12.4307V15.2128C184.784 21.8402 179.412 27.2135 172.784 27.2135H172.259H76.4101H75.8844C69.257 27.2135 63.8844 21.8402 63.8844 15.2128L63.8844 12.4307C63.8844 8.73499 59.1328 8.20703 59.1328 8.20703ZM109.285 17.1097C109.285 16.1952 110.027 15.4539 110.941 15.4539H137.434C138.349 15.4539 139.09 16.1952 139.09 17.1097C139.09 18.0242 138.349 18.7655 137.434 18.7655H110.941C110.027 18.7655 109.285 18.0242 109.285 17.1097ZM148.473 20.9733C150.607 20.9733 152.337 19.2436 152.337 17.1098C152.337 14.976 150.607 13.2462 148.473 13.2462C146.339 13.2462 144.61 14.976 144.61 17.1098C144.61 19.2436 146.339 20.9733 148.473 20.9733Z" fill="#053588"/>
<rect x="9.94922" y="7.83594" width="226.133" height="475.329" rx="28.5" stroke="#053588" stroke-width="3"/>
<rect x="3.11328" y="1" width="240.86" height="489" rx="35" stroke="#053588" stroke-width="2"/>
<rect y="69.5439" width="3.31164" height="19.8698" rx="1.65582" fill="#053588"/>
<rect x="243.957" y="119.219" width="3.31164" height="58.5056" rx="1.65582" fill="#053588"/>
<rect y="107.076" width="3.31164" height="37.5319" rx="1.65582" fill="#053588"/>
<rect y="155.647" width="3.31164" height="37.5319" rx="1.65582" fill="#053588"/>
<path d="M119.031 218C118.579 218.002 118.398 218.321 118.285 218.65L117.632 224.48C114.956 225.411 112.531 226.831 110.427 228.638L105.018 226.269C104.679 226.12 104.239 226.27 104.062 226.594L98.0931 236.906C97.9228 237.217 98.0174 237.647 98.303 237.859L103.083 241.342C102.824 242.689 102.616 244.071 102.616 245.5C102.616 246.928 102.824 248.288 103.083 249.634L98.303 253.118C98.006 253.331 97.9099 253.778 98.0931 254.094L104.062 264.406C104.246 264.722 104.685 264.86 105.018 264.708L110.427 262.339C112.531 264.146 114.956 265.565 117.632 266.497L118.285 272.327C118.319 272.692 118.663 273.002 119.031 273H130.969C131.337 273 131.681 272.692 131.715 272.327L132.368 266.497C135.044 265.565 137.469 264.146 139.573 262.339L144.982 264.708C145.315 264.86 145.754 264.722 145.938 264.406L151.907 254.094C152.09 253.778 151.994 253.331 151.697 253.118L146.917 249.634C147.176 248.288 147.384 246.928 147.384 245.5C147.384 244.071 147.176 242.689 146.917 241.342L151.697 237.859C151.983 237.647 152.077 237.217 151.907 236.906L145.938 226.594C145.761 226.27 145.321 226.12 144.982 226.269L139.573 228.638C137.469 226.831 135.044 225.411 132.368 224.48L131.715 218.65C131.67 218.293 131.33 217.997 130.969 218H119.031ZM119.707 219.487H130.293L130.922 225.061C130.954 225.344 131.163 225.6 131.435 225.688C134.269 226.602 136.854 228.088 139.013 230.031C139.221 230.223 139.544 230.279 139.806 230.171L144.959 227.918L150.275 237.069L145.705 240.39C145.482 240.559 145.368 240.86 145.425 241.133C145.726 242.542 145.891 244.01 145.891 245.5C145.891 246.99 145.726 248.434 145.425 249.843C145.368 250.117 145.482 250.418 145.705 250.587L150.275 253.908L144.982 263.059L139.806 260.806C139.544 260.697 139.221 260.754 139.013 260.946C136.854 262.888 134.269 264.375 131.435 265.289C131.163 265.376 130.953 265.633 130.922 265.916L130.293 271.514H119.707L119.078 265.916C119.046 265.633 118.837 265.376 118.565 265.289C115.731 264.375 113.146 262.888 110.987 260.946C110.779 260.754 110.456 260.697 110.194 260.806L105.018 263.059L99.7253 253.908L104.295 250.587C104.518 250.418 104.632 250.117 104.575 249.843C104.274 248.434 104.109 246.99 104.109 245.5C104.109 244.01 104.274 242.542 104.575 241.133C104.632 240.86 104.518 240.559 104.295 240.39L99.7253 237.069L105.041 227.918L110.194 230.171C110.456 230.279 110.779 230.223 110.987 230.031C113.146 228.088 115.731 226.602 118.565 225.688C118.837 225.6 119.047 225.344 119.078 225.061L119.707 219.487ZM125 232.122C117.592 232.122 111.57 238.12 111.57 245.5C111.57 252.88 117.592 258.878 125 258.878C132.408 258.878 138.43 252.88 138.43 245.5C138.43 238.12 132.408 232.122 125 232.122ZM125 233.608C131.602 233.608 136.938 238.923 136.938 245.5C136.938 252.076 131.602 257.392 125 257.392C118.398 257.392 113.062 252.076 113.062 245.5C113.062 238.923 118.398 233.608 125 233.608Z" fill="#155FCD" stroke="#155FCD" stroke-width="1.4"/>
<path d="M179 201C172.935 201 168 196.065 168 190C168 183.935 172.935 179 179 179C185.065 179 190 183.935 190 190C190 196.065 185.065 201 179 201ZM179 181.87C174.517 181.87 170.87 185.517 170.87 190C170.87 194.483 174.517 198.13 179 198.13C183.483 198.13 187.13 194.483 187.13 190C187.13 185.517 183.483 181.87 179 181.87Z" fill="#155FCD" stroke="#155FCD" stroke-width="0.7"/>
<path d="M69 312C62.9347 312 58 307.065 58 301C58 294.935 62.9347 290 69 290C75.0653 290 80 294.935 80 301C80 307.065 75.0653 312 69 312ZM69 292.87C64.5168 292.87 60.8696 296.517 60.8696 301C60.8696 305.483 64.5168 309.13 69 309.13C73.4832 309.13 77.1304 305.483 77.1304 301C77.1304 296.517 73.4832 292.87 69 292.87Z" fill="#155FCD" stroke="#155FCD" stroke-width="0.7"/>
</svg>
