<svg width="172" height="77" viewBox="0 0 172 77" fill="none" xmlns="http://www.w3.org/2000/svg">
<rect x="2" y="2" width="168" height="73" rx="9" stroke="#9BA7BF" stroke-width="2.4" stroke-dasharray="2 2"/>
<path d="M16 22.6C17.9882 22.6 19.6 20.9882 19.6 19C19.6 17.0118 17.9882 15.4 16 15.4C14.0118 15.4 12.4 17.0118 12.4 19C12.4 20.9882 14.0118 22.6 16 22.6ZM16 25C12.6863 25 10 22.3137 10 19C10 15.6863 12.6863 13 16 13C19.3137 13 22 15.6863 22 19C22 22.3137 19.3137 25 16 25Z" fill="#155FCD"/>
<rect x="105" y="36" width="52" height="2.4" fill="#9BA7BF"/>
<rect x="12" y="36" width="86" height="2.4" fill="#9BA7BF"/>
<rect x="28" y="18" width="42" height="2.4" fill="#155FCD"/>
<rect x="72" y="18" width="2" height="2.4" fill="#155FCD"/>
<rect x="12" y="44" width="97" height="2.4" fill="#9BA7BF"/>
<rect x="12" y="52" width="128" height="2.4" fill="#9BA7BF"/>
<rect x="12" y="60" width="60" height="2.4" fill="#9BA7BF"/>
<rect x="80" y="60" width="67" height="2.4" fill="#9BA7BF"/>
</svg>
