<svg width="24" height="20" viewBox="0 0 24 20" fill="none" xmlns="http://www.w3.org/2000/svg">
<path fill-rule="evenodd" clip-rule="evenodd" d="M21.0754 5.57726C21.0844 5.78097 21.0893 5.98634 21.0893 6.19171C21.0893 12.4447 16.382 19.6525 7.76941 19.6525C5.12575 19.6525 2.66477 18.8716 0.59375 17.5284C0.959947 17.5723 1.3327 17.5947 1.71036 17.5947C3.90427 17.5947 5.92204 16.8378 7.52446 15.5691C5.47638 15.531 3.74698 14.163 3.15139 12.2824C3.43649 12.337 3.73059 12.3677 4.03125 12.3677C4.45807 12.3677 4.8726 12.3114 5.26502 12.2029C3.12354 11.769 1.51047 9.85688 1.51047 7.56305C1.51047 7.54317 1.51047 7.52247 1.51129 7.50342C2.1421 7.85702 2.86384 8.07067 3.63065 8.09469C2.37558 7.24754 1.54898 5.79836 1.54898 4.15707C1.54898 3.28922 1.77918 2.47602 2.18224 1.77711C4.49002 4.64068 7.94063 6.52378 11.8303 6.72252C11.7501 6.37555 11.7099 6.01533 11.7099 5.64351C11.7099 3.03085 13.8055 0.911743 16.3902 0.911743C17.737 0.911743 18.9519 1.48644 19.8072 2.40564C20.8747 2.19364 21.8741 1.80112 22.781 1.25706C22.4288 2.36258 21.689 3.28922 20.7198 3.87551C21.6677 3.76124 22.5721 3.50784 23.4086 3.13105C22.7843 4.0784 21.9905 4.9123 21.0754 5.57726Z" fill="white"/>
</svg>
