<svg width="25" height="17" viewBox="0 0 25 17" fill="none" xmlns="http://www.w3.org/2000/svg">
<path d="M0.728247 0.692505C0.418705 0.692505 0.160645 0.942532 0.160645 1.24247V15.5415C0.160645 15.8414 0.418705 16.0915 0.728247 16.0915H23.4323C23.7419 16.0915 23.9999 15.8414 23.9999 15.5415V1.24247C23.9999 0.942532 23.7419 0.692505 23.4323 0.692505H0.728247ZM1.15395 1.24247H23.0066L12.0803 11.0387L1.15395 1.24247ZM0.728247 1.61197L7.96517 8.10841L0.728247 15.1205V1.61197ZM23.4323 1.61197V15.1205L16.1954 8.10841L23.4323 1.61197ZM8.39088 8.48651L11.8852 11.6144C11.9379 11.6628 12.0077 11.6897 12.0803 11.6897C12.1529 11.6897 12.2227 11.6628 12.2754 11.6144L15.7697 8.48651L23.051 15.5415H1.10962L8.39088 8.48651ZM0.728247 15.5157L0.754924 15.5416H0.728247V15.5157ZM23.4323 15.5157V15.5416H23.4057L23.4323 15.5157Z" fill="#06378B" stroke="#06378B" stroke-width="0.3"/>
</svg>
