<svg width="28" height="20" viewBox="0 0 28 20" fill="none" xmlns="http://www.w3.org/2000/svg">
<path d="M27.5773 10.1683C27.5839 10.1555 27.5958 10.1458 27.6015 10.1324C27.6329 10.059 27.651 9.97847 27.651 9.89352C27.651 9.80856 27.6329 9.72803 27.6016 9.65459C27.596 9.64155 27.5842 9.63209 27.5778 9.61936C27.5473 9.56041 27.5121 9.50444 27.465 9.4589C27.4626 9.45684 27.4619 9.45356 27.4595 9.4512L17.7569 0.354971C17.5123 0.125806 17.1286 0.138238 16.8996 0.382805C16.6705 0.626766 16.6829 1.01057 16.9272 1.23973L25.5112 9.2871H1.57517C1.2403 9.2871 0.96875 9.55835 0.96875 9.89352C0.96875 10.2287 1.2403 10.4999 1.57517 10.4999H25.5112L16.9271 18.5474C16.6828 18.7765 16.6704 19.1603 16.8996 19.4043C17.0189 19.5316 17.1803 19.5962 17.342 19.5962C17.4906 19.5962 17.6398 19.5417 17.7568 19.4321L27.4594 10.3359C27.4618 10.3335 27.4625 10.3303 27.4649 10.3282C27.5118 10.2826 27.5468 10.2269 27.5773 10.1683Z" fill="white"/>
</svg>
