<svg width="76" height="74" viewBox="0 0 76 74" fill="none" xmlns="http://www.w3.org/2000/svg">
<path d="M38 74C58.9655 74 76 57.4138 76 37C76 16.5862 58.9655 0 38 0V3.72944C56.8488 3.72944 72.1698 18.6472 72.1698 37C72.1698 55.3528 56.8488 70.2706 38 70.2706C19.1512 70.2706 3.83023 55.3528 3.83023 37H-7.62939e-06C-7.62939e-06 57.4138 17.0345 74 38 74Z" fill="#9BA7BF"/>
<circle cx="3" cy="32" r="2" fill="#9BA7BF"/>
<circle cx="4.30078" cy="26.5" r="2" fill="#9BA7BF"/>
<circle cx="6.39844" cy="21" r="2" fill="#9BA7BF"/>
<circle cx="9.39844" cy="16.2998" r="2" fill="#9BA7BF"/>
<circle cx="13" cy="12" r="2" fill="#9BA7BF"/>
<circle cx="17.3984" cy="8" r="2" fill="#9BA7BF"/>
<circle cx="22" cy="5.40039" r="2" fill="#9BA7BF"/>
<circle cx="27.5" cy="3.40039" r="2" fill="#9BA7BF"/>
<circle cx="33" cy="2" r="2" fill="#9BA7BF"/>
</svg>
