<svg width="77" height="83" viewBox="0 0 77 83" fill="none" xmlns="http://www.w3.org/2000/svg">
<circle cx="6.51562" cy="5" r="4" stroke="#407CD4" stroke-width="2"/>
<circle cx="71.8125" cy="5" r="4" stroke="#407CD4" stroke-width="2"/>
<rect x="34.9219" y="1" width="8" height="8" stroke="#407CD4" stroke-width="2"/>
<path d="M5.34766 17.4629V31.1296H19.0143" stroke="#407CD4" stroke-width="2" stroke-dasharray="2 2"/>
<path d="M72.1636 16.7041V31.13H56.2191" stroke="#407CD4" stroke-width="2" stroke-dasharray="2 2"/>
<path d="M39.5156 13.667V24.2966" stroke="#407CD4" stroke-width="2" stroke-dasharray="2 2"/>
<circle r="4" transform="matrix(1 0 0 -1 5 77.7588)" stroke="#407CD4" stroke-width="2"/>
<circle r="4" transform="matrix(1 0 0 -1 71.8164 77.7588)" stroke="#407CD4" stroke-width="2"/>
<rect x="1" y="-1" width="8" height="8" transform="matrix(1 0 0 -1 33.9258 80.7588)" stroke="#407CD4" stroke-width="2"/>
<path d="M5.35205 65.2959V48.5922H15.2224" stroke="#407CD4" stroke-width="2" stroke-dasharray="2 2"/>
<path d="M72.168 65.2959V48.5922H66.0939" stroke="#407CD4" stroke-width="2" stroke-dasharray="2 2"/>
<path d="M39.5195 66.0547V56.1843" stroke="#407CD4" stroke-width="2" stroke-dasharray="2 2"/>
<path d="M26.9809 54H52.4936C54.0925 54.0049 55.6369 53.413 56.8303 52.338C58.0237 51.2631 58.782 49.7807 58.9598 48.1754C59.1375 46.5701 58.7222 44.9551 57.7934 43.6402C56.8647 42.3254 55.4879 41.4034 53.9275 41.0513C54.3273 40.0507 54.5326 38.9818 54.5323 37.9028C54.5297 35.6455 53.6409 33.4814 52.061 31.8852C50.481 30.2891 48.3389 29.3912 46.1045 29.3886C45.0593 29.3879 44.0234 29.5868 43.0513 29.9749C41.8202 27.8399 39.8514 26.2398 37.5233 25.4823C35.1953 24.7248 32.6722 24.8633 30.4391 25.8712C28.206 26.8791 26.4204 28.6853 25.4256 30.9425C24.4307 33.1998 24.2968 35.7489 25.0495 38.0999C23.1573 38.5782 21.5037 39.7395 20.4005 41.3646C19.2973 42.9897 18.8207 44.9664 19.0607 46.922C19.3006 48.8776 20.2405 50.677 21.7031 51.9808C23.1656 53.2846 25.0498 54.0028 27.0004 54H26.9809ZM25.7811 38.9523C25.8526 38.9395 25.9203 38.9107 25.9794 38.8681C26.0384 38.8255 26.0873 38.7701 26.1225 38.7059C26.1576 38.6426 26.1784 38.5722 26.1835 38.4998C26.1886 38.4274 26.1777 38.3548 26.1518 38.2871C25.33 36.1371 25.3529 33.7511 26.2158 31.6176C27.0787 29.4841 28.7163 27.7646 30.7933 26.8112C32.8702 25.8578 35.2294 25.7426 37.3877 26.4892C39.546 27.2359 41.3401 28.7878 42.4027 30.8273C42.4601 30.938 42.5571 31.0225 42.6739 31.0637C42.7907 31.1048 42.9187 31.0996 43.0318 31.049C43.9945 30.6039 45.0409 30.3736 46.0996 30.374C48.0761 30.3753 49.9714 31.1688 51.3695 32.5803C52.7676 33.9918 53.5543 35.906 53.5568 37.9028C53.5567 39.0497 53.2947 40.1811 52.7911 41.2089C52.7552 41.279 52.7365 41.3567 52.7365 41.4356C52.7365 41.5145 52.7552 41.5922 52.7911 41.6622C52.8281 41.7318 52.881 41.7914 52.9455 41.836C53.01 41.8806 53.0842 41.9089 53.1618 41.9185C54.5588 42.0872 55.8391 42.7893 56.7402 43.881C57.6413 44.9726 58.095 46.3711 58.0084 47.7898C57.9217 49.2086 57.3012 50.5401 56.274 51.5115C55.2469 52.4829 53.8908 53.0206 52.4839 53.0145H26.9809C25.2289 53.0089 23.5424 52.3411 22.2533 51.1425C20.9643 49.9438 20.1659 48.3011 20.0155 46.5377C19.865 44.7743 20.3733 43.0178 21.4404 41.614C22.5074 40.2102 24.0559 39.2607 25.7811 38.9523Z" fill="#407CD4" stroke="#407CD4"/>
</svg>
