<svg width="53" height="39" viewBox="0 0 53 39" fill="none" xmlns="http://www.w3.org/2000/svg">
<path d="M51.6068 0.00130167C51.2931 0.0136866 50.9968 0.148368 50.7813 0.376509C38.2418 12.9431 29.0855 23.1599 16.75 35.5709L2.00432 23.114C1.88376 23.0094 1.74371 22.9297 1.59222 22.8794C1.44073 22.8291 1.28079 22.8092 1.1216 22.8209C0.962414 22.8327 0.807121 22.8758 0.664657 22.9478C0.522194 23.0198 0.395372 23.1193 0.29149 23.2405C0.187608 23.3617 0.108715 23.5022 0.0593511 23.654C0.00998755 23.8058 -0.00887287 23.9658 0.00385549 24.1249C0.0165838 24.2841 0.0606503 24.4391 0.133518 24.5811C0.206385 24.7231 0.306617 24.8494 0.428444 24.9525L16.0371 38.1598C16.2695 38.3611 16.5702 38.4656 16.8774 38.4518C17.1845 38.4379 17.4747 38.3068 17.688 38.0854C30.5199 25.2259 39.725 14.8753 52.5073 2.06546C52.6838 1.89537 52.804 1.67536 52.8518 1.43493C52.8996 1.19451 52.8727 0.945169 52.7746 0.720498C52.6766 0.495827 52.5121 0.306598 52.3034 0.178133C52.0946 0.0496674 51.8515 -0.0118529 51.6068 0.00188793V0.00130167Z" fill="#145FCD"/>
</svg>
