<svg width="30" height="19" viewBox="0 0 30 19" fill="none" xmlns="http://www.w3.org/2000/svg">
<path d="M1.07663 0.230957C0.70518 0.230957 0.395508 0.530989 0.395508 0.890912V18.0498C0.395508 18.4097 0.70518 18.7097 1.07663 18.7097H28.3215C28.693 18.7097 29.0027 18.4097 29.0027 18.0498V0.890912C29.0027 0.530989 28.693 0.230957 28.3215 0.230957H1.07663ZM1.58747 0.890912H27.8107L14.6991 12.6464L1.58747 0.890912ZM1.07663 1.33432L9.76094 9.13004L1.07663 17.5445V1.33432ZM28.3215 1.33432V17.5445L19.6372 9.13004L28.3215 1.33432ZM10.2718 9.58376L14.4649 13.3373C14.5282 13.3953 14.612 13.4276 14.6991 13.4276C14.7862 13.4276 14.87 13.3953 14.9332 13.3373L19.1264 9.58376L27.8639 18.0498H1.53428L10.2718 9.58376ZM1.07663 18.0188L1.10864 18.0499H1.07663V18.0188ZM28.3215 18.0188V18.0499H28.2895L28.3215 18.0188Z" fill="white" stroke="white" stroke-width="0.3"/>
</svg>
