<svg width="83" height="32" viewBox="0 0 83 32" fill="none" xmlns="http://www.w3.org/2000/svg">
<path d="M41.544 20.1837C41.217 20.1837 40.9554 20.0997 40.7592 19.9316C40.563 19.7636 40.4648 19.5325 40.4648 19.2385V11.33C40.4648 10.5948 40.6829 10.0224 41.1189 9.61277C41.5658 9.20316 42.1817 8.99836 42.9666 8.99836H48.0518C48.3788 8.99836 48.6295 9.07188 48.8039 9.21892C48.9783 9.35545 49.0655 9.555 49.0655 9.81757C49.0655 10.0696 48.9729 10.2692 48.7876 10.4162C48.6132 10.5528 48.3679 10.621 48.0518 10.621H43.3426C43.1246 10.621 42.9502 10.6893 42.8194 10.8258C42.6995 10.9624 42.6395 11.1514 42.6395 11.393V13.7403H46.8091C47.1361 13.7403 47.3868 13.8138 47.5612 13.9609C47.7356 14.0974 47.8228 14.297 47.8228 14.5595C47.8228 14.8116 47.7302 15.0111 47.5449 15.1582C47.3705 15.2947 47.1252 15.363 46.8091 15.363H42.6395V19.2385C42.6395 19.522 42.536 19.7531 42.3289 19.9316C42.1327 20.0997 41.871 20.1837 41.544 20.1837Z" fill="white"/>
<path d="M52.5347 20.0262C51.7062 20.0262 51.0631 19.8161 50.6052 19.396C50.1474 18.9759 49.9185 18.3877 49.9185 17.6315V11.33C49.9185 10.5948 50.1365 10.0224 50.5725 9.61277C51.0194 9.20316 51.6353 8.99836 52.4202 8.99836H57.5054C57.8324 8.99836 58.0831 9.07188 58.2575 9.21892C58.432 9.35545 58.5192 9.555 58.5192 9.81757C58.5192 10.0696 58.4265 10.2692 58.2412 10.4162C58.0668 10.5528 57.8215 10.621 57.5054 10.621H52.7963C52.5783 10.621 52.4038 10.6893 52.273 10.8258C52.1531 10.9624 52.0932 11.1514 52.0932 11.393V13.5828H56.2627C56.5897 13.5828 56.8404 13.6563 57.0149 13.8033C57.1893 13.9399 57.2765 14.1394 57.2765 14.402C57.2765 14.654 57.1838 14.8536 56.9985 15.0006C56.8241 15.1372 56.5788 15.2054 56.2627 15.2054H52.0932V17.6315C52.0932 17.8731 52.1531 18.0622 52.273 18.1987C52.4038 18.3352 52.5783 18.4035 52.7963 18.4035H57.8651C58.1921 18.4035 58.4429 18.477 58.6173 18.624C58.7917 18.7606 58.8789 18.9601 58.8789 19.2227C58.8789 19.4748 58.7862 19.6743 58.6009 19.8214C58.4265 19.9579 58.1812 20.0262 57.8651 20.0262H52.5347Z" fill="white"/>
<path d="M62.5152 20.0262C61.6868 20.0262 61.0436 19.8161 60.5858 19.396C60.128 18.9759 59.899 18.3877 59.899 17.6315V11.33C59.899 10.5948 60.1171 10.0224 60.5531 9.61277C61 9.20316 61.6159 8.99836 62.4008 8.99836H66.1779C67.4424 8.99836 68.418 9.25568 69.1047 9.77031C69.7915 10.2849 70.1348 11.0306 70.1348 12.0074C70.1348 12.4905 69.9877 12.9421 69.6934 13.3622C69.399 13.7718 69.0175 14.0816 68.5488 14.2917V14.3075C69.072 14.507 69.4971 14.8273 69.8242 15.2684C70.1621 15.6991 70.3311 16.1664 70.3311 16.6706C70.3311 17.7208 69.9768 18.5453 69.2682 19.1439C68.5706 19.7321 67.6059 20.0262 66.3741 20.0262H62.5152ZM66.1779 13.5513C66.7338 13.5513 67.1644 13.42 67.4696 13.1574C67.7857 12.8948 67.9438 12.5168 67.9438 12.0231C67.9438 11.54 67.7966 11.1829 67.5023 10.9519C67.208 10.7208 66.7665 10.6053 66.1779 10.6053H62.7441C62.5261 10.6053 62.3517 10.6735 62.2209 10.8101C62.101 10.9466 62.041 11.1357 62.041 11.3772V13.5513H66.1779ZM66.1779 18.4192C67.486 18.4192 68.14 17.8469 68.14 16.7021C68.14 16.2084 67.9656 15.8251 67.6168 15.552C67.2788 15.279 66.7992 15.1424 66.1779 15.1424H62.041V17.6473C62.041 17.8889 62.101 18.0779 62.2209 18.2144C62.3517 18.351 62.5261 18.4192 62.7441 18.4192H66.1779Z" fill="white"/>
<path d="M76.8853 20.1837C75.6099 20.1837 74.5089 19.9474 73.5824 19.4748C72.6667 18.9916 71.9691 18.3247 71.4894 17.474C71.0098 16.6128 70.77 15.6255 70.77 14.5123C70.77 13.399 71.0098 12.417 71.4894 11.5663C71.9691 10.705 72.6667 10.0381 73.5824 9.5655C74.5089 9.08238 75.6099 8.84082 76.8853 8.84082C78.1607 8.84082 79.2562 9.08238 80.1719 9.5655C81.0984 10.0381 81.8015 10.705 82.2812 11.5663C82.7608 12.417 83.0006 13.399 83.0006 14.5123C83.0006 15.6255 82.7608 16.6128 82.2812 17.474C81.8015 18.3247 81.0984 18.9916 80.1719 19.4748C79.2562 19.9474 78.1607 20.1837 76.8853 20.1837ZM76.8853 18.5295C78.128 18.5295 79.0927 18.1724 79.7794 17.4583C80.4662 16.7336 80.8096 15.7516 80.8096 14.5123C80.8096 13.2624 80.4498 12.2804 79.7304 11.5663C79.0218 10.8521 78.019 10.495 76.7218 10.495C75.5336 10.495 74.607 10.8626 73.9421 11.5978C73.288 12.3225 72.961 13.2939 72.961 14.5123C72.961 15.7516 73.3044 16.7336 73.9911 17.4583C74.6779 18.1724 75.6426 18.5295 76.8853 18.5295Z" fill="white"/>
<path d="M41.7812 25.7694H41.3812V22.8108H40.4639V22.3963H42.6985V22.8108H41.7812V25.7694Z" fill="white"/>
<path d="M47.211 25.3502H48.7062V25.7694H46.8109V22.3963H48.6456V22.8108H47.211V23.8208H48.5607V24.2258H47.211V25.3502Z" fill="white"/>
<path d="M53.3692 25.3502H54.6461V25.7694H52.9691V22.3963H53.3692V25.3502Z" fill="white"/>
<path d="M59.1643 25.3502H60.6594V25.7694H58.7642V22.3963H60.5988V22.8108H59.1643V23.8208H60.514V24.2258H59.1643V25.3502Z" fill="white"/>
<path d="M67.3753 25.2454C67.2621 25.4264 67.1153 25.5741 66.9348 25.6884C66.7543 25.7996 66.5374 25.8552 66.2842 25.8552C66.066 25.8552 65.8639 25.8123 65.678 25.7266C65.4949 25.6376 65.3359 25.5153 65.2012 25.3597C65.0692 25.2009 64.9655 25.0135 64.8901 24.7975C64.8146 24.5784 64.7769 24.3386 64.7769 24.0781C64.7769 23.8145 64.8146 23.5747 64.8901 23.3587C64.9682 23.1395 65.0746 22.9537 65.2093 22.8013C65.3467 22.6456 65.5083 22.5249 65.6942 22.4392C65.8801 22.3534 66.0821 22.3105 66.3004 22.3105C66.3973 22.3105 66.4957 22.3217 66.5954 22.3439C66.695 22.3661 66.7907 22.3995 66.8823 22.4439C66.9739 22.4884 67.0574 22.544 67.1328 22.6107C67.2082 22.6742 67.2729 22.7489 67.3268 22.8346L67.0116 23.1205C66.9415 23.0061 66.8419 22.9124 66.7125 22.8394C66.5859 22.7632 66.4485 22.725 66.3004 22.725C66.1333 22.725 65.9825 22.7616 65.8478 22.8346C65.7158 22.9045 65.6026 23.0014 65.5083 23.1252C65.414 23.2491 65.3413 23.3936 65.2901 23.5588C65.2389 23.7208 65.2133 23.8939 65.2133 24.0781C65.2133 24.2687 65.2376 24.4465 65.2861 24.6117C65.3373 24.7769 65.4086 24.9214 65.5002 25.0453C65.5945 25.166 65.7077 25.2612 65.8397 25.3311C65.9744 25.401 66.1239 25.4359 66.2882 25.4359C66.4499 25.4359 66.5967 25.3978 66.7287 25.3216C66.8607 25.2454 66.9698 25.1342 67.056 24.9881L67.3753 25.2454Z" fill="white"/>
<path d="M74.3526 24.0781C74.3526 24.3386 74.3135 24.5784 74.2354 24.7975C74.1599 25.0135 74.0549 25.2009 73.9202 25.3597C73.7855 25.5153 73.6252 25.6376 73.4393 25.7266C73.2534 25.8123 73.0514 25.8552 72.8331 25.8552C72.6149 25.8552 72.4129 25.8123 72.227 25.7266C72.0438 25.6376 71.8849 25.5153 71.7502 25.3597C71.6155 25.2009 71.5104 25.0135 71.435 24.7975C71.3595 24.5784 71.3218 24.3386 71.3218 24.0781C71.3218 23.8145 71.3595 23.5747 71.435 23.3587C71.5104 23.1395 71.6155 22.9537 71.7502 22.8013C71.8849 22.6456 72.0438 22.5249 72.227 22.4392C72.4129 22.3534 72.6149 22.3105 72.8331 22.3105C73.0514 22.3105 73.2534 22.3534 73.4393 22.4392C73.6252 22.5249 73.7855 22.6456 73.9202 22.8013C74.0549 22.9537 74.1599 23.1395 74.2354 23.3587C74.3135 23.5747 74.3526 23.8145 74.3526 24.0781ZM73.9202 24.0781C73.9202 23.8939 73.8946 23.7208 73.8434 23.5588C73.7922 23.3936 73.7195 23.2491 73.6252 23.1252C73.5309 23.0014 73.4164 22.9045 73.2817 22.8346C73.1497 22.7616 73.0002 22.725 72.8331 22.725C72.6688 22.725 72.5193 22.7616 72.3846 22.8346C72.2526 22.9045 72.1394 23.0014 72.0452 23.1252C71.9536 23.2491 71.8822 23.3936 71.831 23.5588C71.7798 23.7208 71.7542 23.8939 71.7542 24.0781C71.7542 24.2655 71.7798 24.4418 71.831 24.6069C71.8822 24.7721 71.9549 24.9166 72.0492 25.0405C72.1435 25.1612 72.2566 25.2565 72.3886 25.3264C72.5206 25.3962 72.6688 25.4312 72.8331 25.4312C72.9975 25.4312 73.147 25.3962 73.2817 25.3264C73.4164 25.2565 73.5309 25.1612 73.6252 25.0405C73.7195 24.9166 73.7922 24.7721 73.8434 24.6069C73.8946 24.4418 73.9202 24.2655 73.9202 24.0781Z" fill="white"/>
<path d="M80.1068 24.9881H80.1149L80.9595 22.3963H81.5818V25.7694H81.1817V22.949H81.1736L80.224 25.7694H79.9694L79.0238 22.949H79.0157V25.7694H78.6278V22.3963H79.2501L80.1068 24.9881Z" fill="white"/>
<path d="M25.7644 25.8688C25.4671 26.1661 24.9601 26.4017 24.0991 26.4084C23.2289 26.4153 22.1083 26.1818 20.7928 25.657C18.1669 24.6096 15.0415 22.5124 12.1015 19.5724C9.16148 16.6323 7.06429 13.5069 6.01682 10.8811C5.49203 9.56551 5.25854 8.44492 5.2654 7.57473C5.27219 6.71374 5.50774 6.20672 5.80504 5.90942C6.10234 5.61212 6.60936 5.37657 7.47035 5.36978C8.34054 5.36292 9.46113 5.59641 10.7767 6.1212C13.4026 7.16867 16.528 9.26586 19.468 12.2059C22.408 15.1459 24.5052 18.2713 25.5526 20.8972C26.0774 22.2127 26.3109 23.3333 26.3041 24.2035C26.2973 25.0645 26.0617 25.5715 25.7644 25.8688Z" stroke="url(#paint0_linear)" stroke-width="3"/>
<path d="M29.4236 6.12265C29.1263 5.82534 28.6193 5.58979 27.7583 5.58301C26.8881 5.57614 25.7675 5.80964 24.4519 6.33443C21.8261 7.3819 18.7007 9.47909 15.7607 12.4191C12.8207 15.3591 10.7235 18.4845 9.676 21.1104C9.15121 22.4259 8.91772 23.5465 8.92458 24.4167C8.93137 25.2777 9.16692 25.7847 9.46422 26.082C9.76152 26.3793 10.2685 26.6149 11.1295 26.6217C11.9997 26.6285 13.1203 26.395 14.4359 25.8703C17.0617 24.8228 20.1871 22.7256 23.1272 19.7856C26.0672 16.8456 28.1644 13.7202 29.2118 11.0943C29.7366 9.77874 29.9701 8.65815 29.9632 7.78796C29.9565 6.92697 29.7209 6.41995 29.4236 6.12265Z" stroke="url(#paint1_linear)" stroke-width="3"/>
<path d="M24.5 16L26 18.5L24 21L22.5 18.5L24.5 16Z" fill="url(#paint2_linear)"/>
<path d="M11.3333 21L13 18.3529L10.8182 16L9 18.6471L11.3333 21Z" fill="url(#paint3_linear)"/>
<defs>
<linearGradient id="paint0_linear" x1="4.82191" y1="5.76174" x2="26.4406" y2="27.2249" gradientUnits="userSpaceOnUse">
<stop stop-color="#4D93FD"/>
<stop offset="1" stop-color="#5593F0"/>
</linearGradient>
<linearGradient id="paint1_linear" x1="8.48109" y1="26.2297" x2="23.546" y2="8.34584" gradientUnits="userSpaceOnUse">
<stop stop-color="#4F93F8"/>
<stop offset="1" stop-color="#3478DD"/>
</linearGradient>
<linearGradient id="paint2_linear" x1="23.7692" y1="17.1084" x2="25.2637" y2="19.5195" gradientUnits="userSpaceOnUse">
<stop stop-color="#5293F3"/>
<stop offset="1" stop-color="#5393F2"/>
</linearGradient>
<linearGradient id="paint3_linear" x1="11.3728" y1="19.5715" x2="9.88154" y2="17.293" gradientUnits="userSpaceOnUse">
<stop stop-color="#5093F6"/>
<stop offset="1" stop-color="#5093F8"/>
</linearGradient>
</defs>
</svg>
