<svg width="109" height="44" viewBox="0 0 109 44" fill="none" xmlns="http://www.w3.org/2000/svg">
<path d="M3.2798 28.8995C2.44661 28.8995 1.78006 28.6854 1.28015 28.2573C0.780231 27.8291 0.530273 27.2404 0.530273 26.4912V6.34183C0.530273 4.46872 1.08573 3.01036 2.19665 1.96677C3.33535 0.923178 4.90453 0.401381 6.90418 0.401381H19.8603C20.6935 0.401381 21.3323 0.588692 21.7766 0.963315C22.221 1.31118 22.4432 1.8196 22.4432 2.48857C22.4432 3.13078 22.2071 3.63919 21.735 4.01382C21.2906 4.36168 20.6657 4.53561 19.8603 4.53561H7.86235C7.30689 4.53561 6.86252 4.70955 6.52925 5.05741C6.22374 5.40527 6.07099 5.88693 6.07099 6.50238V12.483H16.6942C17.5274 12.483 18.1661 12.6703 18.6105 13.0449C19.0549 13.3928 19.2771 13.9012 19.2771 14.5702C19.2771 15.2124 19.041 15.7208 18.5689 16.0954C18.1245 16.4433 17.4996 16.6172 16.6942 16.6172H6.07099V26.4912C6.07099 27.2137 5.80715 27.8024 5.27946 28.2573C4.77955 28.6854 4.11299 28.8995 3.2798 28.8995Z" fill="white"/>
<path d="M31.2818 28.4981C29.1711 28.4981 27.5325 27.9629 26.366 26.8926C25.1996 25.8222 24.6163 24.3237 24.6163 22.3971V6.34183C24.6163 4.46872 25.1718 3.01036 26.2827 1.96677C27.4214 0.923178 28.9906 0.401381 30.9902 0.401381H43.9463C44.7795 0.401381 45.4183 0.588692 45.8627 0.963315C46.307 1.31118 46.5292 1.8196 46.5292 2.48857C46.5292 3.13078 46.2932 3.63919 45.821 4.01382C45.3767 4.36168 44.7518 4.53561 43.9463 4.53561H31.9484C31.3929 4.53561 30.9486 4.70955 30.6153 5.05741C30.3098 5.40527 30.157 5.88693 30.157 6.50238V12.0816H40.7802C41.6134 12.0816 42.2522 12.2689 42.6966 12.6435C43.1409 12.9914 43.3631 13.4998 43.3631 14.1688C43.3631 14.811 43.127 15.3194 42.6549 15.694C42.2105 16.0419 41.5856 16.2158 40.7802 16.2158H30.157V22.3971C30.157 23.0126 30.3098 23.4942 30.6153 23.8421C30.9486 24.1899 31.3929 24.3639 31.9484 24.3639H44.8629C45.696 24.3639 46.3348 24.5512 46.7792 24.9258C47.2236 25.2737 47.4458 25.7821 47.4458 26.451C47.4458 27.0933 47.2097 27.6017 46.7375 27.9763C46.2932 28.3242 45.6683 28.4981 44.8629 28.4981H31.2818Z" fill="white"/>
<path d="M56.7104 28.4981C54.5997 28.4981 52.9611 27.9629 51.7946 26.8926C50.6281 25.8222 50.0449 24.3237 50.0449 22.3971V6.34183C50.0449 4.46872 50.6004 3.01036 51.7113 1.96677C52.85 0.923178 54.4192 0.401381 56.4188 0.401381H66.0422C69.2638 0.401381 71.7495 1.05697 73.4992 2.36815C75.2489 3.67933 76.1238 5.5792 76.1238 8.06777C76.1238 9.29867 75.7488 10.4493 74.999 11.5197C74.2491 12.5632 73.277 13.3526 72.0828 13.8878V13.9279C73.4159 14.4364 74.4991 15.2525 75.3323 16.3764C76.1932 17.4735 76.6237 18.6642 76.6237 19.9487C76.6237 22.6245 75.7211 24.7251 73.9158 26.2504C72.1384 27.7489 69.6804 28.4981 66.5421 28.4981H56.7104ZM66.0422 12.0013C67.4586 12.0013 68.5556 11.6668 69.3333 10.9979C70.1387 10.3289 70.5414 9.36557 70.5414 8.10791C70.5414 6.87701 70.1665 5.96721 69.4166 5.37851C68.6667 4.78982 67.5419 4.49547 66.0422 4.49547H57.2937C56.7382 4.49547 56.2938 4.66941 55.9606 5.01727C55.6551 5.36513 55.5023 5.84679 55.5023 6.46224V12.0013H66.0422ZM66.0422 24.404C69.3749 24.404 71.0413 22.9457 71.0413 20.0289C71.0413 18.7713 70.5969 17.7946 69.7082 17.0989C68.8472 16.4031 67.6252 16.0553 66.0422 16.0553H55.5023V22.4372C55.5023 23.0527 55.6551 23.5343 55.9606 23.8822C56.2938 24.2301 56.7382 24.404 57.2937 24.404H66.0422Z" fill="white"/>
<path d="M93.3227 28.8995C90.0732 28.8995 87.2681 28.2974 84.9074 27.0933C82.5745 25.8624 80.797 24.1632 79.575 21.9957C78.353 19.8015 77.742 17.2862 77.742 14.4497C77.742 11.6133 78.353 9.11136 79.575 6.9439C80.797 4.74968 82.5745 3.0505 84.9074 1.84636C87.2681 0.615452 90.0732 0 93.3227 0C96.5721 0 99.3633 0.615452 101.696 1.84636C104.057 3.0505 105.848 4.74968 107.07 6.9439C108.292 9.11136 108.903 11.6133 108.903 14.4497C108.903 17.2862 108.292 19.8015 107.07 21.9957C105.848 24.1632 104.057 25.8624 101.696 27.0933C99.3633 28.2974 96.5721 28.8995 93.3227 28.8995ZM93.3227 24.685C96.4888 24.685 98.9467 23.7752 100.696 21.9556C102.446 20.1092 103.321 17.6073 103.321 14.4497C103.321 11.2654 102.404 8.7635 100.571 6.9439C98.7662 5.12431 96.2111 4.21451 92.9061 4.21451C89.8788 4.21451 87.5181 5.15106 85.8239 7.02418C84.1576 8.87053 83.3244 11.3457 83.3244 14.4497C83.3244 17.6073 84.1992 20.1092 85.9489 21.9556C87.6986 23.7752 90.1565 24.685 93.3227 24.685Z" fill="white"/>
<path d="M3.88631 43.1311H2.86703V35.593H0.529907V34.537H6.22344V35.593H3.88631V43.1311Z" fill="white"/>
<path d="M17.7203 42.0629H21.5297V43.1311H16.7011V34.537H21.3753V35.593H17.7203V38.1664H21.1591V39.1982H17.7203V42.0629Z" fill="white"/>
<path d="M33.4102 42.0629H36.6636V43.1311H32.3909V34.537H33.4102V42.0629Z" fill="white"/>
<path d="M48.175 42.0629H51.9844V43.1311H47.1557V34.537H51.83V35.593H48.175V38.1664H51.6138V39.1982H48.175V42.0629Z" fill="white"/>
<path d="M69.095 41.7958C68.8068 42.2571 68.4327 42.6334 67.9728 42.9247C67.5129 43.208 66.9604 43.3496 66.3152 43.3496C65.7592 43.3496 65.2444 43.2403 64.7708 43.0218C64.3041 42.7952 63.8991 42.4837 63.556 42.0872C63.2196 41.6825 62.9554 41.2051 62.7632 40.6548C62.571 40.0964 62.4749 39.4855 62.4749 38.8219C62.4749 38.1502 62.571 37.5392 62.7632 36.989C62.9622 36.4306 63.2333 35.9572 63.5765 35.5688C63.9266 35.1722 64.3384 34.8647 64.812 34.6462C65.2856 34.4277 65.8004 34.3185 66.3564 34.3185C66.6035 34.3185 66.854 34.3468 67.108 34.4035C67.3619 34.4601 67.6056 34.5451 67.839 34.6584C68.0723 34.7717 68.2851 34.9133 68.4773 35.0832C68.6695 35.2451 68.8342 35.4352 68.9715 35.6537L68.1684 36.382C67.99 36.0907 67.736 35.852 67.4065 35.6659C67.0839 35.4716 66.7339 35.3745 66.3564 35.3745C65.9308 35.3745 65.5464 35.4676 65.2033 35.6537C64.8669 35.8318 64.5787 36.0786 64.3384 36.3942C64.0982 36.7098 63.9129 37.078 63.7825 37.4988C63.652 37.9115 63.5868 38.3525 63.5868 38.8219C63.5868 39.3074 63.6486 39.7606 63.7722 40.1814C63.9026 40.6022 64.0845 40.9704 64.3178 41.286C64.5581 41.5935 64.8463 41.8363 65.1827 42.0143C65.5259 42.1924 65.9068 42.2814 66.3255 42.2814C66.7373 42.2814 67.1114 42.1843 67.4477 41.9901C67.7841 41.7958 68.062 41.5126 68.2817 41.1404L69.095 41.7958Z" fill="white"/>
<path d="M86.8719 38.8219C86.8719 39.4855 86.7723 40.0964 86.5733 40.6548C86.3811 41.2051 86.1134 41.6825 85.7702 42.0872C85.427 42.4837 85.0186 42.7952 84.545 43.0218C84.0714 43.2403 83.5566 43.3496 83.0007 43.3496C82.4447 43.3496 81.9299 43.2403 81.4563 43.0218C80.9896 42.7952 80.5846 42.4837 80.2414 42.0872C79.8982 41.6825 79.6305 41.2051 79.4384 40.6548C79.2462 40.0964 79.1501 39.4855 79.1501 38.8219C79.1501 38.1502 79.2462 37.5392 79.4384 36.989C79.6305 36.4306 79.8982 35.9572 80.2414 35.5688C80.5846 35.1722 80.9896 34.8647 81.4563 34.6462C81.9299 34.4277 82.4447 34.3185 83.0007 34.3185C83.5566 34.3185 84.0714 34.4277 84.545 34.6462C85.0186 34.8647 85.427 35.1722 85.7702 35.5688C86.1134 35.9572 86.3811 36.4306 86.5733 36.989C86.7723 37.5392 86.8719 38.1502 86.8719 38.8219ZM85.7702 38.8219C85.7702 38.3525 85.705 37.9115 85.5746 37.4988C85.4442 37.078 85.2589 36.7098 85.0186 36.3942C84.7784 36.0786 84.4867 35.8318 84.1435 35.6537C83.8072 35.4676 83.4262 35.3745 83.0007 35.3745C82.582 35.3745 82.201 35.4676 81.8578 35.6537C81.5215 35.8318 81.2332 36.0786 80.993 36.3942C80.7596 36.7098 80.5777 37.078 80.4473 37.4988C80.3169 37.9115 80.2517 38.3525 80.2517 38.8219C80.2517 39.2993 80.3169 39.7485 80.4473 40.1693C80.5777 40.5901 80.7631 40.9583 81.0033 41.2739C81.2435 41.5814 81.5318 41.8242 81.8681 42.0022C82.2045 42.1802 82.582 42.2692 83.0007 42.2692C83.4194 42.2692 83.8003 42.1802 84.1435 42.0022C84.4867 41.8242 84.7784 41.5814 85.0186 41.2739C85.2589 40.9583 85.4442 40.5901 85.5746 40.1693C85.705 39.7485 85.7702 39.2993 85.7702 38.8219Z" fill="white"/>
<path d="M101.533 41.1404H101.553L103.705 34.537H105.291V43.1311H104.271V35.945H104.251L101.831 43.1311H101.183L98.7733 35.945H98.7527V43.1311H97.7644V34.537H99.3499L101.533 41.1404Z" fill="white"/>
</svg>
