<svg width="159" height="58" viewBox="0 0 159 58" fill="none" xmlns="http://www.w3.org/2000/svg">
<path fill-rule="evenodd" clip-rule="evenodd" d="M131.845 0.234963H146.717V16.1589H157.352V27.0564H146.717V35.164C146.717 39.5778 149.944 44.4049 153.918 44.4049H159V56.6438H149.173C141.778 56.6438 131.845 51.4895 131.845 38.6706V0.234963ZM49.9042 34.8101C49.9042 28.6634 52.0453 23.409 56.3273 19.0468C60.6094 14.6847 65.897 12.5036 72.1902 12.5036C78.8083 12.5036 84.4199 14.5141 89.025 18.5353C93.6301 22.5564 95.9326 27.7652 95.9326 34.1617C95.9326 40.8735 93.6981 46.5245 89.2292 51.1147C84.7602 55.7049 79.0836 58 72.1993 58C66.9442 58 62.1106 56.1005 57.6985 52.3014C52.5165 47.8599 49.9215 42.0345 49.9134 34.825L49.9042 34.8101ZM31.2625 16.2065L31.2808 0H45.4799V30.7325C45.4799 48.9049 38.3225 57.9941 22.6882 57.9941C7.90399 57.9941 0.00609406 49.3689 0 35.5775C0 22.9073 9.04358 13.7557 21.5212 13.7557C24.6626 13.7557 28.639 14.5825 31.2716 16.2124L31.2625 16.2065ZM72.9458 25.1558C68.159 25.1558 64.2771 29.7629 64.2771 35.4466C64.2771 41.1303 68.159 45.7374 72.9458 45.7374C77.7327 45.7374 81.6146 41.1303 81.6146 35.4466C81.6146 29.7629 77.7327 25.1558 72.9458 25.1558ZM21.8563 25.1558C17.0694 25.1558 13.1875 29.7629 13.1875 35.4466C13.1875 41.1303 17.0694 45.7374 21.8563 45.7374C26.6432 45.7374 30.5251 41.1303 30.5251 35.4466C30.5251 29.7629 26.6432 25.1558 21.8563 25.1558ZM100.524 0.234963H115.397V16.1589H126.031V27.0564H115.397V35.164C115.397 39.5778 118.624 44.4049 122.597 44.4049H127.689V56.6438H117.856C110.461 56.6438 100.528 51.4895 100.528 38.6706L100.524 0.234963Z" fill="#1357BC"/>
</svg>
