<svg width="121" height="118" viewBox="0 0 121 118" fill="none" xmlns="http://www.w3.org/2000/svg">
<path fill-rule="evenodd" clip-rule="evenodd" d="M12.6514 13.5955L4.98285 7.5015C8.1319 3.4194 12.8555 1.2034 18.6287 0.882659C26.5888 0.357817 36.4734 3.09866 47.2618 8.98855C58.196 14.7327 69.9466 23.4509 81.6973 34.9099C94.9349 47.7977 105.519 62.2892 112.255 75.0895C118.961 87.919 121.702 99.1448 119.165 105.326L110.039 101.536C110.564 100.194 110.564 93.2549 103.537 79.7256C96.8302 66.9253 86.6249 53.4835 74.7868 42.0244C64.1734 31.6442 53.0351 23.1301 42.6548 17.6776C33.5284 12.7499 25.2476 10.3298 19.3577 10.7672C15.159 10.9713 13.5844 12.5458 12.6514 13.5955ZM111.205 100.486L113.917 110.05C113.509 110.166 113.1 110.254 112.663 110.254L111.088 100.486H111.205ZM113.917 110.05L111.613 102.177L119.165 105.326C118.232 107.63 116.453 109.204 113.917 110.05ZM111.613 102.177L110.039 101.536C110.243 101.127 110.768 100.603 111.205 100.486L111.613 102.177Z" fill="#5594F1"/>
<path fill-rule="evenodd" clip-rule="evenodd" d="M16.5281 1.20288L17.986 10.9708C14.4288 11.4956 12.2128 13.4784 11.2797 16.5399C9.50108 21.9925 11.8046 31.0022 17.3737 41.4991C22.9137 51.9085 31.7485 63.7757 42.9743 74.7974C54.4042 86.1107 67.4378 95.2662 78.8677 101.01C90.2976 106.696 100.27 109.116 105.751 107.017C108.463 105.967 110.037 103.868 110.242 100.602L120.126 101.244C119.689 108.271 115.723 113.84 109.309 116.231C98.9283 120.225 84.641 114.89 74.4649 109.845C61.2272 103.226 47.5813 93.2543 36.0348 81.8245C24.7215 70.6861 14.9536 58.0025 8.6555 46.1352C1.51182 32.6934 -0.791657 21.6717 1.92003 13.4784C4.0194 6.77204 9.38445 2.3692 16.5281 1.20288Z" fill="#5594F1"/>
<path fill-rule="evenodd" clip-rule="evenodd" d="M74.785 42.0244L81.6954 34.9099C94.9331 47.7977 105.517 62.2892 112.253 75.0895C118.959 87.919 121.7 99.1447 119.163 105.326L110.037 101.536C110.562 100.194 110.562 93.2549 103.535 79.7256C96.8284 66.9253 86.6231 53.4835 74.785 42.0244ZM111.203 100.486L113.915 110.05C113.507 110.166 113.098 110.254 112.661 110.254L111.087 100.486H111.203ZM113.915 110.05L111.611 102.177L119.163 105.326C118.23 107.63 116.452 109.204 113.915 110.05ZM111.611 102.177L110.037 101.536C110.241 101.127 110.766 100.603 111.203 100.486L111.611 102.177Z" fill="#5594F1"/>
</svg>
