<svg width="82" height="84" viewBox="0 0 82 84" fill="none" xmlns="http://www.w3.org/2000/svg">
<path d="M12 41.542L2 41.542M2 41.542L8.5 48.042M2 41.542L8.5 35.042" stroke="#155FCD" stroke-width="2"/>
<path d="M70.5 41.542L80 41.542M80 41.542L73.5 48.042M80 41.542L73.5 35.042" stroke="#155FCD" stroke-width="2"/>
<circle cx="41" cy="41.5" r="4" stroke="#155FCD" stroke-width="2"/>
<line x1="41.084" y1="32.875" x2="41.084" y2="28.5417" stroke="#155FCD" stroke-width="2"/>
<line x1="41.084" y1="54.542" x2="41.084" y2="50.2087" stroke="#155FCD" stroke-width="2"/>
<line x1="49.666" y1="41.625" x2="53.9993" y2="41.625" stroke="#155FCD" stroke-width="2"/>
<line x1="28" y1="41.625" x2="32.3333" y2="41.625" stroke="#155FCD" stroke-width="2"/>
<path d="M11.75 31.7917C11.75 31.7917 22.0417 16.625 41 16.625C59.9583 16.625 70.25 31.7917 70.25 31.7917" stroke="#A6B1C7" stroke-width="2" stroke-dasharray="2 2"/>
<path d="M11.75 51.2913C11.75 51.2913 22.0417 66.458 41 66.458C59.9583 66.458 70.25 51.2913 70.25 51.2913" stroke="#A6B1C7" stroke-width="2" stroke-dasharray="2 2"/>
<path d="M41 11V2M41 2L34.5 8.5M41 2L47.5 8.5" stroke="#155FCD" stroke-width="2"/>
<path d="M41 71.5V81.625M41 81.625L34.5 75.125M41 81.625L47.5 75.125" stroke="#155FCD" stroke-width="2"/>
<circle cx="41" cy="41.542" r="18.5" stroke="#A6B1C7" stroke-width="2"/>
</svg>
