<svg width="198" height="114" viewBox="0 0 198 114" fill="none" xmlns="http://www.w3.org/2000/svg">
<path d="M184.426 15.8634C184.426 13.733 182.693 12 180.563 12C178.432 12 176.699 13.733 176.699 15.8634C176.699 17.9934 178.432 19.7265 180.563 19.7265C182.693 19.7265 184.426 17.9934 184.426 15.8634ZM180.563 13.3392C181.954 13.3392 183.086 14.4716 183.086 15.8634C183.086 17.2549 181.954 18.3873 180.563 18.3873C179.171 18.3873 178.038 17.2551 178.038 15.8634C178.038 14.4716 179.171 13.3392 180.563 13.3392Z" fill="#1357BC" stroke="#1357BC" stroke-width="0.6"/>
<path d="M173 26.3329V28.1327H188.131V26.3329C188.131 23.4284 185.768 21.0654 182.864 21.0654H178.267C175.363 21.0654 173 23.4284 173 26.3329ZM178.267 22.4046H182.864C185.03 22.4046 186.792 24.167 186.792 26.3329V26.7935H174.339V26.3329C174.339 24.167 176.101 22.4046 178.267 22.4046Z" fill="#1357BC" stroke="#1357BC" stroke-width="0.6"/>
<path d="M180 39.0263C189.931 39.0263 198 30.9515 198 21.0132C198 11.0749 189.931 3 180 3V4.81565C188.928 4.81565 196.186 12.0783 196.186 21.0132C196.186 29.9481 188.928 37.2107 180 37.2107C171.072 37.2107 163.814 29.9481 163.814 21.0132H162C162 30.9515 170.069 39.0263 180 39.0263Z" fill="#9BA7BF"/>
<ellipse cx="163.424" cy="18.5792" rx="0.947368" ry="0.973684" fill="#9BA7BF"/>
<ellipse cx="164.037" cy="15.9014" rx="0.947368" ry="0.973684" fill="#9BA7BF"/>
<ellipse cx="165.029" cy="13.2237" rx="0.947368" ry="0.973684" fill="#9BA7BF"/>
<ellipse cx="166.451" cy="10.9356" rx="0.947368" ry="0.973684" fill="#9BA7BF"/>
<ellipse cx="168.158" cy="8.84185" rx="0.947368" ry="0.973684" fill="#9BA7BF"/>
<ellipse cx="170.24" cy="6.89458" rx="0.947368" ry="0.973684" fill="#9BA7BF"/>
<ellipse cx="172.424" cy="5.62896" rx="0.947368" ry="0.973684" fill="#9BA7BF"/>
<ellipse cx="175.025" cy="4.65532" rx="0.947368" ry="0.973684" fill="#9BA7BF"/>
<ellipse cx="177.635" cy="3.97368" rx="0.947368" ry="0.973684" fill="#9BA7BF"/>
<path d="M22.4257 88.8634C22.4257 86.733 20.6929 85 18.5626 85C16.4325 85 14.6992 86.733 14.6992 88.8634C14.6992 90.9934 16.4323 92.7265 18.5626 92.7265C20.6927 92.7265 22.4257 90.9934 22.4257 88.8634ZM18.5626 86.3392C19.9541 86.3392 21.0865 87.4716 21.0865 88.8634C21.0865 90.2549 19.9544 91.3873 18.5626 91.3873C17.1708 91.3873 16.0384 90.2551 16.0384 88.8634C16.0384 87.4716 17.1708 86.3392 18.5626 86.3392Z" fill="#1357BC" stroke="#1357BC" stroke-width="0.6"/>
<path d="M11 99.3329V101.133H26.1314V99.3329C26.1314 96.4284 23.7684 94.0654 20.8639 94.0654H16.2673C13.363 94.0654 11 96.4284 11 99.3329ZM16.2675 95.4046H20.8641C23.0301 95.4046 24.7924 97.167 24.7924 99.3329V99.7935H12.3392V99.3329C12.3392 97.167 14.1013 95.4046 16.2675 95.4046Z" fill="#1357BC" stroke="#1357BC" stroke-width="0.6"/>
<path d="M18 112.026C27.931 112.026 36 103.951 36 94.0132C36 84.0749 27.931 76 18 76V77.8157C26.9284 77.8157 34.1857 85.0783 34.1857 94.0132C34.1857 102.948 26.9284 110.211 18 110.211C9.07162 110.211 1.81432 102.948 1.81432 94.0132H0C0 103.951 8.06896 112.026 18 112.026Z" fill="#9BA7BF"/>
<ellipse cx="1.42393" cy="91.5792" rx="0.947368" ry="0.973684" fill="#9BA7BF"/>
<ellipse cx="2.03721" cy="88.9014" rx="0.947368" ry="0.973684" fill="#9BA7BF"/>
<ellipse cx="3.0294" cy="86.2237" rx="0.947368" ry="0.973684" fill="#9BA7BF"/>
<ellipse cx="4.45127" cy="83.9356" rx="0.947368" ry="0.973684" fill="#9BA7BF"/>
<ellipse cx="6.15831" cy="81.8419" rx="0.947368" ry="0.973684" fill="#9BA7BF"/>
<ellipse cx="8.24034" cy="79.8946" rx="0.947368" ry="0.973684" fill="#9BA7BF"/>
<ellipse cx="10.4239" cy="78.629" rx="0.947368" ry="0.973684" fill="#9BA7BF"/>
<ellipse cx="13.0255" cy="77.6553" rx="0.947368" ry="0.973684" fill="#9BA7BF"/>
<ellipse cx="15.6349" cy="76.9737" rx="0.947368" ry="0.973684" fill="#9BA7BF"/>
<rect x="90" y="2" width="66" height="37" rx="9" stroke="#9BA7BF" stroke-width="2.4" stroke-dasharray="2 2"/>
<rect x="42" y="58" width="132" height="54" rx="9" stroke="#9BA7BF" stroke-width="2.4" stroke-dasharray="2 2"/>
<rect x="52" y="89" width="23" height="2.4" fill="#1357BC"/>
<rect x="93" y="72" width="69" height="2.4" fill="#1357BC"/>
<rect x="52" y="72" width="11" height="2.4" fill="#1357BC"/>
<rect x="68" y="72" width="20" height="2.4" fill="#1357BC"/>
<rect x="79" y="89" width="68" height="2.4" fill="#1357BC"/>
<rect x="51.9883" y="97" width="105" height="2.4" fill="#1357BC"/>
<rect x="119" y="80" width="31" height="2.4" fill="#1357BC"/>
<rect x="52" y="80" width="60.2202" height="2.4" fill="#1357BC"/>
<path d="M102.42 11.88V12.888C102.42 13.56 102.756 13.896 103.428 13.896H107.208V25.992C107.208 26.664 107.544 27 108.216 27H109.728V11.88H102.42ZM121.834 18.432H114.778V13.896H124.606C125.278 13.896 125.614 13.56 125.614 12.888V11.88H112.258V20.448H121.33C122.842 20.448 123.598 21.204 123.598 22.716C123.598 24.228 122.842 24.984 121.33 24.984H113.518C112.846 24.984 112.51 25.32 112.51 25.992V27H121.834C124.69 27 126.118 25.572 126.118 22.716C126.118 19.86 124.69 18.432 121.834 18.432ZM139.532 19.398C140.708 18.852 141.317 17.718 141.317 15.975C141.317 13.245 139.952 11.88 137.222 11.88H128.465V12.888C128.465 13.56 128.801 13.896 129.473 13.896H136.529C138.041 13.896 138.797 14.652 138.797 16.164C138.797 17.676 138.041 18.432 136.529 18.432H129.221V20.448H136.781C138.293 20.448 139.049 21.204 139.049 22.716C139.049 24.228 138.293 24.984 136.781 24.984H129.221C128.549 24.984 128.213 25.32 128.213 25.992V27H137.474C140.204 27 141.569 25.635 141.569 22.905C141.569 21.057 140.876 19.881 139.532 19.398Z" fill="#155FCD"/>
</svg>
