<svg width="74" height="71" viewBox="0 0 74 71" fill="none" xmlns="http://www.w3.org/2000/svg">
<path d="M58.3442 30.8927C57.9639 30.8927 57.5837 30.8927 57.2034 30.8927C56.1678 30.8927 55.1321 30.8927 54.0965 30.8927C52.5655 30.8927 51.0346 30.8927 49.5036 30.8927C47.6374 30.8927 45.7662 30.8927 43.9001 30.8927C41.8538 30.8927 39.8075 30.8927 37.7612 30.8927C35.6949 30.8927 33.6286 30.8927 31.5623 30.8927C29.6361 30.8927 27.7099 30.8927 25.7837 30.8927C24.1627 30.8927 22.5416 30.8927 20.9206 30.8927C19.7499 30.8927 18.5791 30.8927 17.4084 30.8927C16.8581 30.8927 16.2977 30.8677 15.7424 30.8927C15.7173 30.8927 15.6923 30.8927 15.6723 30.8927C15.8174 31.1429 15.9625 31.393 16.1026 31.6432C16.833 30.5325 17.5635 29.4168 18.294 28.3061C19.4597 26.535 20.6204 24.7589 21.7862 22.9877C22.0513 22.5825 22.3215 22.1722 22.5867 21.767C22.4416 21.852 22.2965 21.9321 22.1564 22.0171C23.142 22.0171 24.1276 22.0171 25.1133 22.0171C27.4797 22.0171 29.8462 22.0171 32.2127 22.0171C35.0745 22.0171 37.9363 22.0171 40.7981 22.0171C43.2697 22.0171 45.7462 22.0171 48.2178 22.0171C49.0333 22.0171 49.8438 22.0171 50.6593 22.0171C51.0396 22.0171 51.4348 22.0421 51.815 22.0171C51.8301 22.0171 51.8501 22.0171 51.8651 22.0171C51.72 21.9321 51.5749 21.852 51.4348 21.767C52.1653 22.8777 52.8957 23.9934 53.6262 25.1041C54.7919 26.8752 55.9527 28.6513 57.1184 30.4224C57.3836 30.8277 57.6537 31.2379 57.9189 31.6432C58.2691 32.1785 59.1397 31.6782 58.7844 31.1379C57.8889 29.777 56.9933 28.4112 56.1027 27.0503C54.917 25.2392 53.7263 23.433 52.5405 21.6219C52.4605 21.5018 52.3854 21.3767 52.3004 21.2566C52.1503 21.0465 51.9651 21.0065 51.74 21.0065C51.3498 21.0065 50.9545 21.0065 50.5643 21.0065C48.8282 21.0065 47.0921 21.0065 45.356 21.0065C42.8894 21.0065 40.4279 21.0065 37.9613 21.0065C35.4197 21.0065 32.8731 21.0065 30.3315 21.0065C28.3553 21.0065 26.3791 21.0065 24.4028 21.0065C23.8375 21.0065 23.2771 21.0065 22.7117 21.0065C22.3665 21.0065 21.9563 20.9364 21.7261 21.2566C21.4259 21.6819 21.1558 22.1272 20.8706 22.5625C20.2352 23.5281 19.5998 24.4987 18.9644 25.4643C17.7937 27.2504 16.6229 29.0315 15.4522 30.8177C15.3821 30.9227 15.3121 31.0278 15.2471 31.1329C15.0369 31.4531 15.3171 31.8833 15.6773 31.8833C16.0576 31.8833 16.4378 31.8833 16.818 31.8833C17.8537 31.8833 18.8893 31.8833 19.925 31.8833C21.456 31.8833 22.9869 31.8833 24.5179 31.8833C26.3841 31.8833 28.2552 31.8833 30.1214 31.8833C32.1677 31.8833 34.214 31.8833 36.2603 31.8833C38.3266 31.8833 40.3929 31.8833 42.4592 31.8833C44.3854 31.8833 46.3116 31.8833 48.2378 31.8833C49.8588 31.8833 51.4798 31.8833 53.1009 31.8833C54.2716 31.8833 55.4423 31.8833 56.6131 31.8833C57.1684 31.8833 57.7238 31.8933 58.2791 31.8833C58.3041 31.8833 58.3291 31.8833 58.3492 31.8833C58.9896 31.8933 58.9896 30.8927 58.3442 30.8927Z" fill="white" stroke="white" stroke-width="0.8"/>
<path d="M37.3866 54.1871C36.6762 53.4166 35.9607 52.6461 35.2503 51.8706C33.5542 50.0295 31.8532 48.1933 30.1571 46.3522C28.0958 44.1157 26.0295 41.8793 23.9682 39.6429C22.1921 37.7267 20.421 35.8055 18.6448 33.8843C18.0595 33.2489 17.4741 32.6185 16.8887 31.9831C16.6136 31.6829 16.3484 31.3627 16.0532 31.0775C16.0382 31.0625 16.0282 31.0525 16.0182 31.0375C15.8981 31.3227 15.783 31.6079 15.663 31.893C16.0432 31.893 16.4234 31.893 16.8037 31.893C17.8393 31.893 18.875 31.893 19.9106 31.893C21.4416 31.893 22.9726 31.893 24.5035 31.893C26.3697 31.893 28.2409 31.893 30.1071 31.893C32.1533 31.893 34.1996 31.893 36.2459 31.893C38.3122 31.893 40.3785 31.893 42.4448 31.893C44.371 31.893 46.2972 31.893 48.2234 31.893C49.8445 31.893 51.4655 31.893 53.0865 31.893C54.2572 31.893 55.428 31.893 56.5987 31.893C57.1491 31.893 57.7094 31.9181 58.2648 31.893C58.2898 31.893 58.3148 31.893 58.3348 31.893C58.2147 31.6079 58.0997 31.3227 57.9796 31.0375C57.2691 31.808 56.5587 32.5835 55.8432 33.354C54.1622 35.2001 52.4661 37.0413 50.765 38.8874C48.7138 41.1139 46.6675 43.3403 44.6162 45.5667C42.8451 47.4929 41.074 49.4141 39.3028 51.3403C38.4423 52.2759 37.5617 53.1965 36.7162 54.1521C36.7062 54.1671 36.6912 54.1771 36.6812 54.1921C36.2459 54.6674 36.9514 55.3728 37.3866 54.8975C38.0971 54.1271 38.8075 53.3516 39.523 52.5811C41.219 50.7399 42.9151 48.8988 44.6112 47.0526C46.6625 44.8262 48.7088 42.5998 50.76 40.3734C52.5312 38.4472 54.3023 36.526 56.0734 34.5997C56.9339 33.6642 57.8195 32.7436 58.66 31.788C58.67 31.773 58.685 31.763 58.695 31.748C58.9852 31.4328 58.7851 30.8924 58.3398 30.8924C57.9596 30.8924 57.5793 30.8924 57.1991 30.8924C56.1634 30.8924 55.1278 30.8924 54.0921 30.8924C52.5612 30.8924 51.0302 30.8924 49.4992 30.8924C47.6331 30.8924 45.7619 30.8924 43.8957 30.8924C41.8494 30.8924 39.8032 30.8924 37.7569 30.8924C35.6906 30.8924 33.6243 30.8924 31.558 30.8924C29.6318 30.8924 27.7055 30.8924 25.7793 30.8924C24.1583 30.8924 22.5373 30.8924 20.9163 30.8924C19.7455 30.8924 18.5748 30.8924 17.4041 30.8924C16.8487 30.8924 16.2934 30.8774 15.738 30.8924C15.713 30.8924 15.688 30.8924 15.668 30.8924C15.2227 30.8924 15.0226 31.4328 15.3127 31.748C16.0232 32.5184 16.7386 33.2889 17.4491 34.0644C19.1452 35.9056 20.8462 37.7417 22.5423 39.5829C24.6036 41.8193 26.6699 44.0557 28.7312 46.2921C30.5023 48.2133 32.2784 50.1345 34.0495 52.0557C34.9101 52.9863 35.7456 53.9569 36.6362 54.8625C36.6512 54.8775 36.6612 54.8875 36.6712 54.9025C37.1165 55.3728 37.8219 54.6624 37.3866 54.1871Z" fill="white" stroke="white" stroke-width="0.8"/>
<path d="M43.5802 21.6475C43.8454 22.7582 44.1156 23.8689 44.3807 24.9796C44.806 26.7507 45.2313 28.5218 45.6565 30.293C45.7566 30.6982 45.8517 31.1035 45.9517 31.5137C46.1018 32.1391 47.0674 31.874 46.9173 31.2486C46.6522 30.1379 46.382 29.0272 46.1168 27.9165C45.6916 26.1453 45.2663 24.3742 44.841 22.6031C44.741 22.1979 44.6459 21.7926 44.5458 21.3823C44.3958 20.7569 43.4301 21.0221 43.5802 21.6475Z" fill="white" stroke="white" stroke-width="0.8"/>
<path d="M45.9567 31.2486C45.6465 32.0191 45.3313 32.7846 45.0212 33.5551C44.2707 35.4012 43.5202 37.2474 42.7747 39.0935C41.8692 41.3199 40.9686 43.5413 40.063 45.7677C39.2775 47.6989 38.497 49.6302 37.7115 51.5564C37.4514 52.1918 37.1912 52.8322 36.936 53.4676C36.816 53.7678 36.6709 54.063 36.5708 54.3681C36.5658 54.3832 36.5608 54.3932 36.5558 54.4082C36.4557 54.6583 36.6659 54.9585 36.906 55.0236C37.1912 55.1036 37.4214 54.9235 37.5214 54.6733C37.8316 53.9029 38.1468 53.1374 38.457 52.3669C39.2075 50.5207 39.958 48.6746 40.7034 46.8284C41.604 44.612 42.5046 42.3856 43.4101 40.1592C44.1956 38.228 44.9761 36.2968 45.7616 34.3706C46.0218 33.7352 46.2819 33.0948 46.5371 32.4594C46.6572 32.1592 46.8023 31.864 46.9023 31.5588C46.9073 31.5438 46.9123 31.5338 46.9173 31.5188C47.0174 31.2686 46.8073 30.9684 46.5671 30.9034C46.2819 30.8233 46.0568 30.9984 45.9567 31.2486Z" fill="white" stroke="white" stroke-width="0.8"/>
<path d="M29.5308 21.3823C29.2657 22.493 28.9955 23.6037 28.7303 24.7144C28.3051 26.4856 27.8798 28.2567 27.4545 30.0278C27.3545 30.433 27.2594 30.8383 27.1593 31.2486C27.0093 31.874 27.9749 32.1391 28.125 31.5137C28.3901 30.403 28.6603 29.2923 28.9255 28.1816C29.3507 26.4105 29.776 24.6394 30.2013 22.8683C30.3013 22.463 30.3964 22.0578 30.4964 21.6475C30.6465 21.0221 29.6809 20.7569 29.5308 21.3823Z" fill="white" stroke="white" stroke-width="0.8"/>
<path d="M27.1599 31.5187C27.4701 32.2891 27.7853 33.0546 28.0955 33.8251C28.846 35.6713 29.5915 37.5174 30.3419 39.3636C31.2425 41.59 32.1431 43.8114 33.0486 46.0378C33.8291 47.969 34.6146 49.9002 35.3951 51.8264C35.7753 52.762 36.1506 53.7026 36.5358 54.6432C36.5408 54.6582 36.5458 54.6682 36.5508 54.6832C36.6509 54.9334 36.886 55.1085 37.1662 55.0334C37.4014 54.9684 37.6165 54.6682 37.5164 54.418C37.2062 53.6476 36.891 52.8821 36.5808 52.1116C35.8304 50.2654 35.0849 48.4193 34.3344 46.5731C33.4339 44.3467 32.5333 42.1253 31.6277 39.8989C30.8472 37.9677 30.0617 36.0365 29.2813 34.1103C28.901 33.1747 28.5258 32.2341 28.1405 31.2935C28.1355 31.2785 28.1305 31.2685 28.1255 31.2535C28.0255 31.0033 27.7903 30.8282 27.5101 30.9033C27.275 30.9683 27.0599 31.2635 27.1599 31.5187Z" fill="white" stroke="white" stroke-width="0.8"/>
<path d="M36.5 70C17.4462 70 2 54.5538 2 35.5C2 16.4462 17.4462 1 36.5 1C55.5538 1 71 16.4462 71 35.5C71 54.5538 55.5538 70 36.5 70Z" stroke="#639DF4" stroke-width="2" stroke-dasharray="2 2"/>
<rect x="1" width="7" height="2" rx="1" fill="#639DF4"/>
<rect x="3" width="7" height="2" rx="1" transform="rotate(90 3 0)" fill="#639DF4"/>
<rect width="7" height="2" rx="1" transform="matrix(1 0 0 -1 0 71)" fill="white"/>
<rect width="7" height="2" rx="1" transform="matrix(-4.37114e-08 -1 -1 4.37114e-08 2 71)" fill="white"/>
<rect width="7" height="2" rx="1" transform="matrix(-1 0 0 1 74 0)" fill="white"/>
<rect width="7" height="2" rx="1" transform="matrix(4.37114e-08 1 1 -4.37114e-08 72 0)" fill="white"/>
<rect x="73" y="71" width="7" height="2" rx="1" transform="rotate(-180 73 71)" fill="#639DF4"/>
<rect x="71" y="71" width="7" height="2" rx="1" transform="rotate(-90 71 71)" fill="#639DF4"/>
</svg>
