<svg width="70" height="70" viewBox="0 0 70 70" fill="none" xmlns="http://www.w3.org/2000/svg">
<path d="M54.2734 55.6867L68.294 69.7072L69.7082 68.293L55.6877 54.2725L54.2734 55.6867Z" fill="#9BA7BF"/>
<path d="M50 0H0V2H50V0Z" fill="#9BA7BF"/>
<path d="M40 5H10V7H40V5Z" fill="#9BA7BF"/>
<path d="M40 63H10V65H40V63Z" fill="#9BA7BF"/>
<path d="M12 5H10V65H12V5Z" fill="#9BA7BF"/>
<path d="M40 5H38V11H40V5Z" fill="#9BA7BF"/>
<path d="M40 59H38V65H40V59Z" fill="#9BA7BF"/>
<path d="M50 68H0V70H50V68Z" fill="#9BA7BF"/>
<path d="M2 0H0V70H2V0Z" fill="#9BA7BF"/>
<path d="M50 0H48V15H50V0Z" fill="#9BA7BF"/>
<path d="M50 55H48V70H50V55Z" fill="#9BA7BF"/>
<path d="M50 52V50H48V52H50ZM50 48V46H48V48H50ZM50 44V42H48V44H50ZM50 40V38H48V40H50ZM50 36V34H48V36H50ZM50 32V30H48V32H50ZM50 28V26H48V28H50ZM50 24V22H48V24H50ZM50 20V18H48V20H50Z" fill="#9BA7BF"/>
<path d="M12.1221 40.911C12.9359 40.3371 13.9288 40 15.0003 40C17.7618 40 20.0003 42.2386 20.0003 45C20.0003 47.2219 18.551 49.1054 16.5461 49.7565L15.9284 47.8543C17.1533 47.4564 18.0003 46.3095 18.0003 45C18.0003 43.3431 16.6572 42 15.0003 42C14.3712 42 13.7761 42.1919 13.2747 42.5455L12.1221 40.911ZM12.1221 40.911C12.9359 40.3371 13.9288 40 15.0003 40C17.7618 40 20.0003 42.2386 20.0003 45C20.0003 47.2219 18.551 49.1054 16.5461 49.7565L15.9284 47.8543C17.1533 47.4564 18.0003 46.3095 18.0003 45C18.0003 43.3431 16.6572 42 15.0003 42C14.3712 42 13.7761 42.1919 13.2747 42.5455L12.1221 40.911Z" fill="#155FCD"/>
<path d="M35 48C36.6569 48 38 46.6569 38 45C38 43.3431 36.6569 42 35 42C33.3431 42 32 43.3431 32 45C32 46.6569 33.3431 48 35 48ZM35 50C32.2386 50 30 47.7614 30 45C30 42.2386 32.2386 40 35 40C37.7614 40 40 42.2386 40 45C40 47.7614 37.7614 50 35 50Z" fill="#155FCD"/>
<path d="M15.0015 20C15.5932 20 16.1609 20.1028 16.6878 20.2915C16.8022 20.3325 16.9147 20.3775 17.0252 20.4265C18.7784 21.2034 20.0015 22.9588 20.0015 25C20.0015 27.7614 17.7629 30 15.0015 30C14.1167 30 13.2856 29.7702 12.5647 29.367C12.4477 29.3016 12.3336 29.2316 12.2227 29.1573L13.3356 27.4956C13.4023 27.5403 13.4708 27.5822 13.5408 27.6214C13.983 27.8687 14.4804 28 15.0015 28C16.6584 28 18.0015 26.6569 18.0015 25C18.0015 23.8011 17.2925 22.7325 16.2149 22.255C16.1488 22.2257 16.0815 22.1988 16.0134 22.1743C15.6927 22.0595 15.3526 22 15.0015 22V20ZM15.0015 20C15.5932 20 16.1609 20.1028 16.6878 20.2915C16.8022 20.3325 16.9147 20.3775 17.0252 20.4265C18.7784 21.2034 20.0015 22.9588 20.0015 25C20.0015 27.7614 17.7629 30 15.0015 30C14.1167 30 13.2856 29.7702 12.5647 29.367C12.4477 29.3016 12.3336 29.2316 12.2227 29.1573L13.3356 27.4956C13.4023 27.5403 13.4708 27.5822 13.5408 27.6214C13.983 27.8687 14.4804 28 15.0015 28C16.6584 28 18.0015 26.6569 18.0015 25C18.0015 23.8011 17.2925 22.7325 16.2149 22.255C16.1488 22.2257 16.0815 22.1988 16.0134 22.1743C15.6927 22.0595 15.3526 22 15.0015 22V20Z" fill="#155FCD"/>
<path d="M35 28C36.6569 28 38 26.6569 38 25C38 23.3431 36.6569 22 35 22C33.3431 22 32 23.3431 32 25C32 26.6569 33.3431 28 35 28ZM35 30C32.2386 30 30 27.7614 30 25C30 22.2386 32.2386 20 35 20C37.7614 20 40 22.2386 40 25C40 27.7614 37.7614 30 35 30Z" fill="#155FCD"/>
<path d="M35 58C47.7025 58 58 47.7025 58 35C58 22.2975 47.7025 12 35 12C22.2975 12 12 22.2975 12 35C12 47.7025 22.2975 58 35 58ZM35 60C21.1929 60 10 48.8071 10 35C10 21.1929 21.1929 10 35 10C48.8071 10 60 21.1929 60 35C60 48.8071 48.8071 60 35 60Z" fill="#9BA7BF"/>
</svg>
