<svg width="76" height="76" viewBox="0 0 76 76" fill="none" xmlns="http://www.w3.org/2000/svg">
<path d="M38 74C18.1178 74 2 57.8823 2 38C2 18.1178 18.1178 2 38 2C57.8823 2 74 18.1178 74 38C74 57.8823 57.8823 74 38 74Z" stroke="#9BA7BF" stroke-width="3" stroke-dasharray="2 2"/>
<path d="M50.0154 28.3714C47.0391 28.3714 43.5802 25.9177 43.5802 22.7546C43.5802 22.3116 43.2198 21.9521 42.7758 21.9521H33.1231C32.679 21.9521 32.3187 22.3116 32.3187 22.7546C32.3187 25.9177 28.8598 28.3714 25.8835 28.3714C25.4395 28.3714 25.0791 28.7309 25.0791 29.1738V43.6172C25.0791 49.3336 36.3889 53.5414 37.6792 54.002C37.766 54.0341 37.8577 54.0485 37.9494 54.0485C38.0411 54.0485 38.1328 54.0325 38.2197 54.002C39.51 53.5414 50.8198 49.3336 50.8198 43.6172V29.1738C50.8198 28.7309 50.4594 28.3714 50.0154 28.3714ZM33.8728 23.557H42.0245C42.4894 27.0009 45.8953 29.5654 49.2094 29.9313V33.1859H26.6863V29.9313C30.0036 29.5654 33.4078 27.0009 33.8728 23.557ZM26.6879 43.6172V34.7907H37.145V52.0778C33.4641 50.5934 26.6879 47.1318 26.6879 43.6172ZM38.7538 52.0778V34.7907H49.211V43.6172C49.211 47.1318 42.4347 50.5934 38.7538 52.0778Z" fill="#155FCD"/>
<path fill-rule="evenodd" clip-rule="evenodd" d="M17.9615 28.8844L16.7471 30.0942V23.425C16.7471 19.7369 19.7329 16.7471 23.429 16.7471H30.1449L28.9259 17.9615H23.429C20.4056 17.9615 17.9615 20.4056 17.9615 23.425V28.8844ZM47.2232 17.9615L45.9981 16.7471H52.5694C56.2607 16.7471 59.2531 19.7376 59.2531 23.4246V29.8867L58.0386 28.6828V23.4246C58.0386 20.4083 55.5899 17.9615 52.5694 17.9615H47.2232ZM58.0386 47.1777L59.2531 45.9634V52.5725C59.2531 56.2621 56.2565 59.2531 52.5717 59.2531H45.9611L47.1757 58.0386H52.5717C55.5878 58.0386 58.0386 55.5894 58.0386 52.5725V47.1777ZM28.9406 58.0386L30.1805 59.2531H23.4264C19.7375 59.2531 16.7471 56.2666 16.7471 52.5764V46.0951L17.9615 47.2846V52.5764C17.9615 55.5947 20.4071 58.0386 23.4264 58.0386H28.9406Z" fill="#9BA7BF" stroke="#9BA7BF" stroke-width="0.6" stroke-linejoin="round"/>
</svg>
