<svg width="259" height="512" viewBox="0 0 259 512" fill="none" xmlns="http://www.w3.org/2000/svg">
<path fill-rule="evenodd" clip-rule="evenodd" d="M62.083 8.55859H67.5869H192.56H198.064C198.064 8.55859 193.109 9.10913 193.109 12.9629V16.3772C193.109 23.0046 187.737 28.3779 181.109 28.3779H180.56H79.5869H79.0378C72.4104 28.3779 67.0378 23.0046 67.0378 16.3772L67.0378 12.9629C67.0378 9.10913 62.083 8.55859 62.083 8.55859ZM114.38 17.8421C114.38 16.8885 115.153 16.1155 116.107 16.1155H143.733C144.686 16.1155 145.459 16.8885 145.459 17.8421C145.459 18.7957 144.686 19.5688 143.733 19.5688H116.107C115.153 19.5688 114.38 18.7957 114.38 17.8421ZM155.245 21.8708C157.47 21.8708 159.274 20.0671 159.274 17.842C159.274 15.6169 157.47 13.8132 155.245 13.8132C153.02 13.8132 151.216 15.6169 151.216 17.842C151.216 20.0671 153.02 21.8708 155.245 21.8708Z" fill="#053588"/>
<rect x="10.7354" y="8.10645" width="235.933" height="495.787" rx="28.5" stroke="#053588" stroke-width="3"/>
<rect x="3.62695" y="1" width="251.247" height="510" rx="35" stroke="#053588" stroke-width="2"/>
<rect x="0.422852" y="72.5186" width="3.45328" height="20.7197" rx="1.72664" fill="#053588"/>
<rect x="254.813" y="124.318" width="3.45328" height="61.0079" rx="1.72664" fill="#053588"/>
<rect x="0.422852" y="111.656" width="3.45328" height="39.1371" rx="1.72664" fill="#053588"/>
<rect x="0.422852" y="162.304" width="3.45328" height="39.1371" rx="1.72664" fill="#053588"/>
</svg>
