<svg width="180" height="53" viewBox="0 0 180 53" fill="none" xmlns="http://www.w3.org/2000/svg">
<path d="M22.4267 28.8634C22.4267 26.733 20.6939 25 18.5636 25C16.4335 25 14.7002 26.733 14.7002 28.8634C14.7002 30.9934 16.4332 32.7265 18.5636 32.7265C20.6936 32.7265 22.4267 30.9934 22.4267 28.8634ZM18.5636 26.3392C19.9551 26.3392 21.0875 27.4716 21.0875 28.8634C21.0875 30.2549 19.9553 31.3873 18.5636 31.3873C17.1718 31.3873 16.0394 30.2551 16.0394 28.8634C16.0394 27.4716 17.1718 26.3392 18.5636 26.3392Z" fill="#1357BC" stroke="#1357BC" stroke-width="0.6"/>
<path d="M11 39.3329V41.1327H26.1314V39.3329C26.1314 36.4284 23.7684 34.0654 20.8639 34.0654H16.2673C13.363 34.0654 11 36.4284 11 39.3329ZM16.2675 35.4046H20.8641C23.0301 35.4046 24.7924 37.167 24.7924 39.3329V39.7935H12.3392V39.3329C12.3392 37.167 14.1013 35.4046 16.2675 35.4046Z" fill="#1357BC" stroke="#1357BC" stroke-width="0.6"/>
<path d="M18 52.0263C27.931 52.0263 36 43.9515 36 34.0132C36 24.0749 27.931 16 18 16V17.8157C26.9284 17.8157 34.1857 25.0783 34.1857 34.0132C34.1857 42.9481 26.9284 50.2107 18 50.2107C9.07162 50.2107 1.81432 42.9481 1.81432 34.0132H0C0 43.9515 8.06896 52.0263 18 52.0263Z" fill="#9BA7BF"/>
<ellipse cx="1.42393" cy="31.5792" rx="0.947368" ry="0.973684" fill="#9BA7BF"/>
<ellipse cx="2.03819" cy="28.9014" rx="0.947368" ry="0.973684" fill="#9BA7BF"/>
<ellipse cx="3.03038" cy="26.2237" rx="0.947368" ry="0.973684" fill="#9BA7BF"/>
<ellipse cx="4.45127" cy="23.9356" rx="0.947368" ry="0.973684" fill="#9BA7BF"/>
<ellipse cx="6.15831" cy="21.8418" rx="0.947368" ry="0.973684" fill="#9BA7BF"/>
<ellipse cx="8.24131" cy="19.8946" rx="0.947368" ry="0.973684" fill="#9BA7BF"/>
<ellipse cx="10.4239" cy="18.629" rx="0.947368" ry="0.973684" fill="#9BA7BF"/>
<ellipse cx="13.0255" cy="17.6553" rx="0.947368" ry="0.973684" fill="#9BA7BF"/>
<ellipse cx="15.6349" cy="16.9737" rx="0.947368" ry="0.973684" fill="#9BA7BF"/>
<rect x="47" y="2" width="131" height="48" rx="9" stroke="#9BA7BF" stroke-width="2.4" stroke-dasharray="2 2"/>
<rect x="60" y="19" width="2.4" height="14" fill="#1357BC"/>
<rect x="102" y="21" width="2.4" height="10" fill="#1357BC"/>
<rect x="144" y="21" width="2.4" height="10" fill="#1357BC"/>
<rect x="81" y="15" width="2.4" height="22" fill="#1357BC"/>
<rect x="123" y="18" width="2.4" height="16" fill="#1357BC"/>
<rect x="165" y="19" width="2.4" height="14" fill="#1357BC"/>
<rect x="67" y="15" width="2.4" height="22" fill="#1357BC"/>
<rect x="109" y="11" width="2.4" height="30" fill="#1357BC"/>
<rect x="151" y="18" width="2.4" height="16" fill="#1357BC"/>
<rect x="88" y="11" width="2.4" height="30" fill="#1357BC"/>
<rect x="130" y="11" width="2.4" height="30" fill="#1357BC"/>
<rect x="74" y="21" width="2.4" height="10" fill="#1357BC"/>
<rect x="116" y="15" width="2.4" height="22" fill="#1357BC"/>
<rect x="158" y="21" width="2.4" height="10" fill="#1357BC"/>
<rect x="95" y="18" width="2.4" height="16" fill="#1357BC"/>
<rect x="137" y="15" width="2.4" height="22" fill="#1357BC"/>
</svg>
