<svg width="200" height="59" viewBox="0 0 200 59" fill="none" xmlns="http://www.w3.org/2000/svg">
<rect x="47" y="2" width="151" height="54" rx="9" stroke="#9BA7BF" stroke-width="2.4" stroke-dasharray="2 2"/>
<rect x="140.578" y="16" width="46.7381" height="2.4" fill="#1357BC"/>
<rect x="56.9883" y="16" width="77.2976" height="2.4" fill="#1357BC"/>
<rect x="56.9883" y="24" width="87.1845" height="2.4" fill="#1357BC"/>
<rect x="56.9883" y="32" width="115.048" height="2.4" fill="#1357BC"/>
<rect x="56.9883" y="40" width="53.9286" height="2.4" fill="#1357BC"/>
<rect x="118.105" y="40" width="60.2202" height="2.4" fill="#1357BC"/>
<path d="M22.4267 34.8634C22.4267 32.733 20.6939 31 18.5636 31C16.4335 31 14.7002 32.733 14.7002 34.8634C14.7002 36.9934 16.4332 38.7265 18.5636 38.7265C20.6936 38.7265 22.4267 36.9934 22.4267 34.8634ZM18.5636 32.3392C19.9551 32.3392 21.0875 33.4716 21.0875 34.8634C21.0875 36.2549 19.9553 37.3873 18.5636 37.3873C17.1718 37.3873 16.0394 36.2551 16.0394 34.8634C16.0394 33.4716 17.1718 32.3392 18.5636 32.3392Z" fill="#1357BC" stroke="#1357BC" stroke-width="0.6"/>
<path d="M11 45.3329V47.1327H26.1314V45.3329C26.1314 42.4284 23.7684 40.0654 20.8639 40.0654H16.2673C13.363 40.0654 11 42.4284 11 45.3329ZM16.2675 41.4046H20.8641C23.0301 41.4046 24.7924 43.167 24.7924 45.3329V45.7935H12.3392V45.3329C12.3392 43.167 14.1013 41.4046 16.2675 41.4046Z" fill="#1357BC" stroke="#1357BC" stroke-width="0.6"/>
<path d="M18 58.0263C27.931 58.0263 36 49.9515 36 40.0132C36 30.0749 27.931 22 18 22V23.8157C26.9284 23.8157 34.1857 31.0783 34.1857 40.0132C34.1857 48.9481 26.9284 56.2107 18 56.2107C9.07162 56.2107 1.81432 48.9481 1.81432 40.0132H0C0 49.9515 8.06896 58.0263 18 58.0263Z" fill="#9BA7BF"/>
<ellipse cx="1.42393" cy="37.5792" rx="0.947368" ry="0.973684" fill="#9BA7BF"/>
<ellipse cx="2.03819" cy="34.9014" rx="0.947368" ry="0.973684" fill="#9BA7BF"/>
<ellipse cx="3.03038" cy="32.2237" rx="0.947368" ry="0.973684" fill="#9BA7BF"/>
<ellipse cx="4.45127" cy="29.9356" rx="0.947368" ry="0.973684" fill="#9BA7BF"/>
<ellipse cx="6.15831" cy="27.8418" rx="0.947368" ry="0.973684" fill="#9BA7BF"/>
<ellipse cx="8.24131" cy="25.8946" rx="0.947368" ry="0.973684" fill="#9BA7BF"/>
<ellipse cx="10.4239" cy="24.629" rx="0.947368" ry="0.973684" fill="#9BA7BF"/>
<ellipse cx="13.0255" cy="23.6553" rx="0.947368" ry="0.973684" fill="#9BA7BF"/>
<ellipse cx="15.6349" cy="22.9737" rx="0.947368" ry="0.973684" fill="#9BA7BF"/>
</svg>
