<svg width="73" height="18" viewBox="0 0 73 18" fill="none" xmlns="http://www.w3.org/2000/svg">
<path d="M6.574 9.24218C6.574 8.98501 6.52578 8.74391 6.42934 8.51888C6.34362 8.28314 6.21503 8.07954 6.04358 7.90809C5.87213 7.73664 5.66854 7.6027 5.4328 7.50626C5.20777 7.3991 4.96131 7.34553 4.69342 7.34553C4.43625 7.34553 4.19515 7.39375 3.97012 7.49019C3.74509 7.58663 3.54686 7.72057 3.37541 7.89202C3.21467 8.06347 3.08073 8.26707 2.97357 8.50281C2.87713 8.72784 2.82891 8.96894 2.82891 9.22611C2.82891 9.48328 2.87713 9.72438 2.97357 9.94941C3.07001 10.1744 3.20396 10.3727 3.37541 10.5441C3.54686 10.7049 3.74509 10.8388 3.97012 10.946C4.20586 11.0424 4.45232 11.0906 4.70949 11.0906C4.96667 11.0906 5.20777 11.0424 5.4328 10.946C5.65782 10.8495 5.8507 10.7156 6.01144 10.5441C6.18289 10.3727 6.31683 10.1744 6.41327 9.94941C6.52043 9.72438 6.574 9.48864 6.574 9.24218ZM2.90928 17.4557H0V5.09526H2.90928V6.01144C3.53078 5.2292 4.37731 4.83808 5.44887 4.83808C6.03823 4.83808 6.58472 4.95595 7.08835 5.1917C7.6027 5.41672 8.0474 5.72747 8.42244 6.12395C8.79749 6.52043 9.08681 6.98656 9.2904 7.52233C9.50471 8.05811 9.61187 8.6314 9.61187 9.24218C9.61187 9.85297 9.50471 10.4209 9.2904 10.946C9.08681 11.471 8.79749 11.9318 8.42244 12.3283C8.05811 12.7247 7.62413 13.0355 7.1205 13.2605C6.61687 13.4855 6.07037 13.5981 5.48102 13.5981C4.45232 13.5981 3.59508 13.2445 2.90928 12.5372V17.4557Z" fill="white"/>
<path d="M11.2702 5.09526H14.1795V6.44542C14.4902 5.9525 14.8706 5.57746 15.3207 5.32028C15.7707 5.05239 16.2958 4.91845 16.8959 4.91845C16.9709 4.91845 17.0512 4.91845 17.137 4.91845C17.2334 4.91845 17.3406 4.92916 17.4584 4.9506V7.73129C17.0727 7.53841 16.6548 7.44197 16.2047 7.44197C15.5296 7.44197 15.0206 7.64556 14.6777 8.05275C14.3456 8.44923 14.1795 9.03323 14.1795 9.80475V13.3409H11.2702V5.09526Z" fill="white"/>
<path d="M21.5688 9.17789C21.5688 9.4565 21.617 9.71367 21.7135 9.94941C21.8206 10.1744 21.9546 10.3727 22.1153 10.5441C22.2868 10.7156 22.485 10.8495 22.71 10.946C22.9458 11.0424 23.1922 11.0906 23.4494 11.0906C23.7066 11.0906 23.9477 11.0424 24.1727 10.946C24.4084 10.8495 24.6067 10.7156 24.7674 10.5441C24.9389 10.3727 25.0728 10.1744 25.1693 9.94941C25.2764 9.71367 25.33 9.46185 25.33 9.19396C25.33 8.93679 25.2764 8.69569 25.1693 8.47066C25.0728 8.23492 24.9389 8.03132 24.7674 7.85987C24.6067 7.68843 24.4084 7.55448 24.1727 7.45804C23.9477 7.3616 23.7066 7.31338 23.4494 7.31338C23.1922 7.31338 22.9458 7.3616 22.71 7.45804C22.485 7.55448 22.2868 7.68843 22.1153 7.85987C21.9546 8.03132 21.8206 8.22956 21.7135 8.45459C21.617 8.67961 21.5688 8.92072 21.5688 9.17789ZM18.4988 9.14574C18.4988 8.53496 18.622 7.96703 18.8685 7.44197C19.1149 6.90619 19.4578 6.44542 19.8972 6.05966C20.3365 5.66318 20.8562 5.35243 21.4563 5.1274C22.0671 4.90238 22.7315 4.78986 23.4494 4.78986C24.1566 4.78986 24.8103 4.90238 25.4103 5.1274C26.0211 5.34171 26.5462 5.64711 26.9855 6.04358C27.4356 6.42934 27.7839 6.89547 28.0303 7.44197C28.2768 7.97775 28.4 8.57246 28.4 9.22611C28.4 9.87976 28.2714 10.4798 28.0142 11.0263C27.7678 11.5621 27.4249 12.0282 26.9855 12.4247C26.5462 12.8105 26.0158 13.1105 25.3943 13.3248C24.7835 13.5391 24.1191 13.6463 23.4012 13.6463C22.694 13.6463 22.0403 13.5391 21.4402 13.3248C20.8402 13.1105 20.3205 12.8051 19.8811 12.4086C19.4525 12.0122 19.1149 11.5407 18.8685 10.9942C18.622 10.437 18.4988 9.82082 18.4988 9.14574Z" fill="white"/>
<path d="M32.984 5.09526V9.74046C32.984 10.7584 33.477 11.2674 34.4628 11.2674C35.4486 11.2674 35.9415 10.7584 35.9415 9.74046V5.09526H38.8508V10.303C38.8508 11.4174 38.4811 12.2533 37.7418 12.8105C37.0131 13.3677 35.9201 13.6463 34.4628 13.6463C33.0055 13.6463 31.9071 13.3677 31.1678 12.8105C30.4391 12.2533 30.0748 11.4174 30.0748 10.303V5.09526H32.984Z" fill="white"/>
<path d="M43.5273 9.19396C43.5273 9.46185 43.5755 9.71367 43.6719 9.94941C43.7684 10.1744 43.897 10.3727 44.0577 10.5441C44.2292 10.7156 44.4274 10.8495 44.6524 10.946C44.8882 11.0424 45.14 11.0906 45.4079 11.0906C45.665 11.0906 45.9061 11.0424 46.1312 10.946C46.3669 10.8495 46.5652 10.7156 46.7259 10.5441C46.8973 10.3727 47.0313 10.1744 47.1277 9.94941C47.2349 9.72438 47.2885 9.48328 47.2885 9.22611C47.2885 8.96894 47.2349 8.72784 47.1277 8.50281C47.0313 8.26707 46.8973 8.06347 46.7259 7.89202C46.5652 7.72057 46.3669 7.58663 46.1312 7.49019C45.9061 7.39375 45.665 7.34553 45.4079 7.34553C45.1507 7.34553 44.9042 7.39375 44.6685 7.49019C44.4435 7.58663 44.2452 7.72057 44.0738 7.89202C43.913 8.06347 43.7791 8.26171 43.6719 8.48673C43.5755 8.70105 43.5273 8.93679 43.5273 9.19396ZM47.192 0H50.1174V13.3409H47.192V12.4247C46.5705 13.2069 45.7293 13.5981 44.6685 13.5981C44.0684 13.5981 43.5166 13.4855 43.0129 13.2605C42.5093 13.0355 42.07 12.7247 41.6949 12.3283C41.3199 11.9318 41.0252 11.4657 40.8109 10.9299C40.6073 10.3941 40.5055 9.81547 40.5055 9.19396C40.5055 8.60461 40.6019 8.0474 40.7948 7.52233C40.9984 6.98656 41.2824 6.52043 41.6467 6.12395C42.011 5.72747 42.445 5.41672 42.9486 5.1917C43.463 4.95595 44.0256 4.83808 44.6364 4.83808C45.665 4.83808 46.5169 5.19705 47.192 5.915V0Z" fill="white"/>
<path d="M55.0064 0V13.3409H52.0972V0H55.0064Z" fill="white"/>
<path d="M60.1411 12.2158L56.1549 5.09526H59.5303L61.7324 9.32255L63.8701 5.09526H67.2134L60.5912 17.4557H57.3283L60.1411 12.2158Z" fill="white"/>
<circle cx="70.6565" cy="11.3899" r="2.34403" fill="#1771F8"/>
</svg>
